SplineFontDB: 3.0
FontName: Orbitron-Bold
FullName: Orbitron Bold
FamilyName: Orbitron
Weight: Bold
Copyright: Copyright (c) 2009, Matt McInerney <matt@pixelspread.com>
Version: 001.001
ItalicAngle: 0
UnderlinePosition: -50
UnderlineWidth: 50
Ascent: 750
Descent: 250
sfntRevision: 0x00010000
LayerCount: 2
Layer: 0 1 "Back"  1
Layer: 1 1 "Fore"  0
XUID: [1021 496 529952750 10140929]
FSType: 0
OS2Version: 2
OS2_WeightWidthSlopeOnly: 0
OS2_UseTypoMetrics: 1
CreationTime: 1259834403
ModificationTime: 1291728398
PfmFamily: 17
TTFWeight: 700
TTFWidth: 5
LineGap: 0
VLineGap: 0
Panose: 2 0 0 0 0 0 0 0 0 0
OS2TypoAscent: 0
OS2TypoAOffset: 1
OS2TypoDescent: 0
OS2TypoDOffset: 1
OS2TypoLinegap: 0
OS2WinAscent: 0
OS2WinAOffset: 1
OS2WinDescent: 0
OS2WinDOffset: 1
HheadAscent: -219
HheadAOffset: 1
HheadDescent: -20
HheadDOffset: 1
OS2SubXSize: 700
OS2SubYSize: 650
OS2SubXOff: 0
OS2SubYOff: 140
OS2SupXSize: 700
OS2SupYSize: 650
OS2SupXOff: 0
OS2SupYOff: 477
OS2StrikeYSize: 50
OS2StrikeYPos: 250
OS2Vendor: 'pyrs'
OS2CodePages: 00000001.00000000
OS2UnicodeRanges: 80000027.10000042.00000000.00000000
Lookup: 1 0 0 "'aalt' Access All Alternates in Latin lookup 0"  {"'aalt' Access All Alternates in Latin lookup 0 subtable"  } ['aalt' ('latn' <'dflt' > ) ]
Lookup: 3 0 0 "'aalt' Access All Alternates in Latin lookup 1"  {"'aalt' Access All Alternates in Latin lookup 1 subtable"  } ['aalt' ('latn' <'dflt' > ) ]
Lookup: 1 0 0 "'salt' Stylistic Alternatives in Latin lookup 2"  {"'salt' Stylistic Alternatives in Latin lookup 2 subtable"  } ['salt' ('latn' <'dflt' > ) ]
Lookup: 1 0 0 "'smcp' Lowercase to Small Capitals in Latin lookup 3"  {"'smcp' Lowercase to Small Capitals in Latin lookup 3 subtable"  } ['smcp' ('latn' <'dflt' > ) ]
Lookup: 1 0 0 "'ss01' Style Set 1 in Latin lookup 4"  {"'ss01' Style Set 1 in Latin lookup 4 subtable"  } ['ss01' ('latn' <'dflt' > ) ]

StartChar: A.alt3
Encoding: 65539 -1 4
Width: 827
Flags: MW
HStem: 0 21G<-28 124 -28 -28 712 864 712 712> 168 132<296 541 296 616 222 541> 700 20G<358 479 479 479>
LayerCount: 2
Fore
SplineSet
864 0 m 1,0,-1
 712 0 l 1,1,-1
 616 168 l 1,2,-1
 222 168 l 1,3,-1
 124 0 l 1,4,-1
 -28 0 l 1,5,-1
 358 720 l 1,6,-1
 479 720 l 1,7,-1
 864 0 l 1,0,-1
419 553 m 1,8,-1
 296 300 l 1,9,-1
 541 300 l 1,10,-1
 419 553 l 1,8,-1
EndSplineSet
EndChar

StartChar: AE
Encoding: 198 198 5
Width: 1375
Flags: MW
HStem: 0 132<774 1304 774 1304> 242 132<187 642 187 642> 294 132<774 1200 774 1200> 588 132<191.5 1304 193 635 774 774 774 1304>
VStem: 54 133<0 242 0 374 374 581> 642 132<132 242 242 242 426 581 581 583>
LayerCount: 2
Fore
SplineSet
774 588 m 1,0,-1
 774 426 l 1,1,-1
 1200 426 l 1,2,-1
 1200 294 l 1,3,-1
 774 294 l 1,4,-1
 774 132 l 1,5,-1
 1304 132 l 1,6,-1
 1304 0 l 1,7,-1
 642 0 l 1,8,-1
 642 242 l 1,9,-1
 187 242 l 1,10,-1
 187 0 l 1,11,-1
 54 0 l 1,12,-1
 54 581 l 2,13,14
 54 639 54 639 95 679.5 c 128,-1,15
 136 720 136 720 193 720 c 2,16,-1
 1304 720 l 1,17,-1
 1304 588 l 1,18,-1
 774 588 l 1,0,-1
642 374 m 1,19,-1
 642 581 l 2,20,21
 642 588 642 588 635 588 c 2,22,-1
 193 588 l 2,23,24
 187 588 187 588 187 581 c 2,25,-1
 187 374 l 1,26,-1
 642 374 l 1,19,-1
EndSplineSet
EndChar

StartChar: Aacute
Encoding: 193 193 6
Width: 836
Flags: MW
HStem: 0 21G<58 190 58 58 645 778 645 645> 242 132<190 645 190 645> 588 132<195 638 197 638> 778 183<344 523 390 477>
VStem: 58 132<0 242 374 581> 645 133<0 242 242 242 374 581 0 583>
LayerCount: 2
Fore
SplineSet
197 720 m 2,0,-1
 638 720 l 2,1,2
 696 720 696 720 737 679.5 c 128,-1,3
 778 639 778 639 778 581 c 2,4,-1
 778 0 l 1,5,-1
 645 0 l 1,6,-1
 645 242 l 1,7,-1
 190 242 l 1,8,-1
 190 0 l 1,9,-1
 58 0 l 1,10,-1
 58 581 l 2,11,12
 58 639 58 639 98.5 679.5 c 128,-1,13
 139 720 139 720 197 720 c 2,0,-1
190 374 m 1,14,-1
 645 374 l 1,15,-1
 645 581 l 2,16,17
 645 588 645 588 638 588 c 2,18,-1
 197 588 l 2,19,20
 190 588 190 588 190 581 c 2,21,-1
 190 374 l 1,14,-1
344 778 m 1,22,-1
 390 961 l 1,23,-1
 523 961 l 1,24,-1
 477 778 l 1,25,-1
 344 778 l 1,22,-1
EndSplineSet
EndChar

StartChar: Acircumflex
Encoding: 194 194 7
Width: 836
Flags: MW
HStem: 0 21G<58 190 58 58 645 778 645 645> 242 132<190 645 190 645> 588 132<195 638 197 638> 778 163<394 400 296 481 473 473 473 481 394 579>
VStem: 58 132<0 242 374 581> 645 133<0 242 242 242 374 581 0 583>
LayerCount: 2
Fore
SplineSet
197 720 m 2,0,-1
 638 720 l 2,1,2
 696 720 696 720 737 679.5 c 128,-1,3
 778 639 778 639 778 581 c 2,4,-1
 778 0 l 1,5,-1
 645 0 l 1,6,-1
 645 242 l 1,7,-1
 190 242 l 1,8,-1
 190 0 l 1,9,-1
 58 0 l 1,10,-1
 58 581 l 2,11,12
 58 639 58 639 98.5 679.5 c 128,-1,13
 139 720 139 720 197 720 c 2,0,-1
190 374 m 1,14,-1
 645 374 l 1,15,-1
 645 581 l 2,16,17
 645 588 645 588 638 588 c 2,18,-1
 197 588 l 2,19,20
 190 588 190 588 190 581 c 2,21,-1
 190 374 l 1,14,-1
400 778 m 1,22,-1
 296 778 l 1,23,-1
 394 941 l 1,24,-1
 481 941 l 1,25,-1
 579 778 l 1,26,-1
 473 778 l 1,27,-1
 436 837 l 1,28,29
 430 828 430 828 418 807.5 c 128,-1,30
 406 787 406 787 400 778 c 1,22,-1
EndSplineSet
EndChar

StartChar: Adieresis
Encoding: 196 196 8
Width: 836
Flags: MW
HStem: 0 21G<58 190 58 58 645 778 645 645> 242 132<190 645 190 645> 588 132<195 638 197 638> 769 132<279 410 279 410 450 582 279 450>
VStem: 58 132<0 242 374 581> 279 131<769 901 769 901> 450 132<769 901 769 901> 645 133<0 242 242 242 374 581 0 583>
LayerCount: 2
Fore
SplineSet
197 720 m 2,0,-1
 638 720 l 2,1,2
 696 720 696 720 737 679.5 c 128,-1,3
 778 639 778 639 778 581 c 2,4,-1
 778 0 l 1,5,-1
 645 0 l 1,6,-1
 645 242 l 1,7,-1
 190 242 l 1,8,-1
 190 0 l 1,9,-1
 58 0 l 1,10,-1
 58 581 l 2,11,12
 58 639 58 639 98.5 679.5 c 128,-1,13
 139 720 139 720 197 720 c 2,0,-1
190 374 m 1,14,-1
 645 374 l 1,15,-1
 645 581 l 2,16,17
 645 588 645 588 638 588 c 2,18,-1
 197 588 l 2,19,20
 190 588 190 588 190 581 c 2,21,-1
 190 374 l 1,14,-1
582 901 m 1,22,-1
 582 769 l 1,23,-1
 450 769 l 1,24,-1
 450 901 l 1,25,-1
 582 901 l 1,22,-1
410 901 m 1,26,-1
 410 769 l 1,27,-1
 279 769 l 1,28,-1
 279 901 l 1,29,-1
 410 901 l 1,26,-1
EndSplineSet
EndChar

StartChar: Agrave
Encoding: 192 192 9
Width: 836
Flags: MW
HStem: 0 21G<58 190 58 58 645 778 645 645> 242 132<190 645 190 645> 588 132<195 638 197 638> 779 183<390 477 344 523 390 390>
VStem: 58 132<0 242 374 581> 645 133<0 242 242 242 374 581 0 583>
LayerCount: 2
Fore
SplineSet
197 720 m 2,0,-1
 638 720 l 2,1,2
 696 720 696 720 737 679.5 c 128,-1,3
 778 639 778 639 778 581 c 2,4,-1
 778 0 l 1,5,-1
 645 0 l 1,6,-1
 645 242 l 1,7,-1
 190 242 l 1,8,-1
 190 0 l 1,9,-1
 58 0 l 1,10,-1
 58 581 l 2,11,12
 58 639 58 639 98.5 679.5 c 128,-1,13
 139 720 139 720 197 720 c 2,0,-1
190 374 m 1,14,-1
 645 374 l 1,15,-1
 645 581 l 2,16,17
 645 588 645 588 638 588 c 2,18,-1
 197 588 l 2,19,20
 190 588 190 588 190 581 c 2,21,-1
 190 374 l 1,14,-1
477 962 m 1,22,-1
 523 779 l 1,23,-1
 390 779 l 1,24,-1
 344 962 l 1,25,-1
 477 962 l 1,22,-1
EndSplineSet
EndChar

StartChar: Aring
Encoding: 197 197 10
Width: 836
Flags: MW
HStem: 0 21G<58 190 58 58 645 778 645 645> 242 132<190 645 190 645> 588 132<195 638 197 638> 780 181<370 442 388 442>
VStem: 58 132<0 242 374 581> 323 184<845 896 827.5 913.5> 645 133<0 242 242 242 374 581 0 583>
LayerCount: 2
Fore
SplineSet
197 720 m 2,0,-1
 638 720 l 2,1,2
 696 720 696 720 737 679.5 c 128,-1,3
 778 639 778 639 778 581 c 2,4,-1
 778 0 l 1,5,-1
 645 0 l 1,6,-1
 645 242 l 1,7,-1
 190 242 l 1,8,-1
 190 0 l 1,9,-1
 58 0 l 1,10,-1
 58 581 l 2,11,12
 58 639 58 639 98.5 679.5 c 128,-1,13
 139 720 139 720 197 720 c 2,0,-1
190 374 m 1,14,-1
 645 374 l 1,15,-1
 645 581 l 2,16,17
 645 588 645 588 638 588 c 2,18,-1
 197 588 l 2,19,20
 190 588 190 588 190 581 c 2,21,-1
 190 374 l 1,14,-1
388 961 m 2,22,-1
 442 961 l 2,23,24
 469 961 469 961 488 941.5 c 128,-1,25
 507 922 507 922 507 896 c 2,26,-1
 507 845 l 2,27,28
 507 819 507 819 488 799.5 c 128,-1,29
 469 780 469 780 442 780 c 2,30,-1
 388 780 l 2,31,32
 361 780 361 780 342 799.5 c 128,-1,33
 323 819 323 819 323 845 c 2,34,-1
 323 896 l 2,35,36
 323 922 323 922 342 941.5 c 128,-1,37
 361 961 361 961 388 961 c 2,22,-1
389 894 m 1,38,-1
 389 847 l 1,39,-1
 441 847 l 1,40,-1
 441 894 l 1,41,-1
 389 894 l 1,38,-1
EndSplineSet
EndChar

StartChar: Atilde
Encoding: 195 195 11
Width: 836
Flags: MW
HStem: 0 21G<58 190 58 58 645 778 645 645> 242 132<190 645 190 645> 588 132<195 638 197 638> 783 156<312 533.5> 848 91<312 315 315 327>
VStem: 58 132<0 242 374 581> 645 133<0 242 242 242 374 581 0 583>
LayerCount: 2
Fore
SplineSet
197 720 m 2,0,-1
 638 720 l 2,1,2
 696 720 696 720 737 679.5 c 128,-1,3
 778 639 778 639 778 581 c 2,4,-1
 778 0 l 1,5,-1
 645 0 l 1,6,-1
 645 242 l 1,7,-1
 190 242 l 1,8,-1
 190 0 l 1,9,-1
 58 0 l 1,10,-1
 58 581 l 2,11,12
 58 639 58 639 98.5 679.5 c 128,-1,13
 139 720 139 720 197 720 c 2,0,-1
190 374 m 1,14,-1
 645 374 l 1,15,-1
 645 581 l 2,16,17
 645 588 645 588 638 588 c 2,18,-1
 197 588 l 2,19,20
 190 588 190 588 190 581 c 2,21,-1
 190 374 l 1,14,-1
519 874 m 1,22,23
 566 874 566 874 606 901 c 1,24,-1
 606 805 l 1,25,26
 554 783 554 783 517 783 c 0,27,28
 481 783 481 783 421 815.5 c 128,-1,29
 361 848 361 848 327 848 c 2,30,-1
 315 848 l 2,31,32
 271 848 271 848 242 810 c 1,33,-1
 242 921 l 1,34,35
 287 939 287 939 327 939 c 0,36,37
 366 939 366 939 426.5 908.5 c 128,-1,38
 487 878 487 878 519 874 c 1,22,23
EndSplineSet
EndChar

StartChar: B
Encoding: 66 66 12
Width: 832
Flags: MW
HStem: 0 132<198 639 198 639> 300 133<196 611 198 611 611 612.5 198 639> 588 132<196 198 198 611>
VStem: 59 132<137 139 139 294 438 440 440 581> 617 133<440 581> 646 133<139 294>
LayerCount: 2
Fore
SplineSet
750 581 m 2,0,-1
 750 440 l 2,1,2
 750 410 750 410 740 389 c 1,3,4
 779 348 779 348 779 294 c 2,5,-1
 779 139 l 2,6,7
 779 81 779 81 738 40.5 c 128,-1,8
 697 0 697 0 639 0 c 2,9,-1
 59 0 l 1,10,-1
 59 720 l 1,11,-1
 611 720 l 2,12,13
 668 720 668 720 709 679.5 c 128,-1,14
 750 639 750 639 750 581 c 2,0,-1
611 588 m 2,15,-1
 198 588 l 2,16,17
 191 588 191 588 191 581 c 2,18,-1
 191 440 l 2,19,20
 191 433 191 433 198 433 c 2,21,-1
 611 433 l 2,22,23
 617 433 617 433 617 440 c 2,24,-1
 617 581 l 2,25,26
 617 588 617 588 611 588 c 2,15,-1
646 139 m 2,27,-1
 646 294 l 2,28,29
 646 300 646 300 639 300 c 2,30,-1
 198 300 l 2,31,32
 191 300 191 300 191 294 c 2,33,-1
 191 139 l 2,34,35
 191 132 191 132 198 132 c 2,36,-1
 639 132 l 2,37,38
 646 132 646 132 646 139 c 2,27,-1
EndSplineSet
EndChar

StartChar: C
Encoding: 67 67 13
Width: 822
Flags: MW
HStem: 0 132<156.5 774 195 774> 588 132<193 774 195 774>
VStem: 56 132<139 581>
LayerCount: 2
Fore
SplineSet
774 588 m 1,0,-1
 195 588 l 2,1,2
 188 588 188 588 188 581 c 2,3,-1
 188 139 l 2,4,5
 188 132 188 132 195 132 c 2,6,-1
 774 132 l 1,7,-1
 774 0 l 1,8,-1
 195 0 l 2,9,10
 137 0 137 0 96.5 40.5 c 128,-1,11
 56 81 56 81 56 139 c 2,12,-1
 56 581 l 2,13,14
 56 639 56 639 96.5 679.5 c 128,-1,15
 137 720 137 720 195 720 c 2,16,-1
 774 720 l 1,17,-1
 774 588 l 1,0,-1
EndSplineSet
Substitution2: "'salt' Stylistic Alternatives in Latin lookup 2 subtable" C.alt
Substitution2: "'aalt' Access All Alternates in Latin lookup 0 subtable" C.alt
EndChar

StartChar: C.alt
Encoding: 65540 -1 14
Width: 822
Flags: MW
HStem: 0 132<152.5 640 191 633> 0 236<191 770> 484 236<640 667 191 773 640 640> 588 132<189 633 191 633 633 640>
VStem: 52 132<139 581> 640 130<132 236 115 236>
LayerCount: 2
Fore
SplineSet
773 605 m 1,0,-1
 773 484 l 1,1,-1
 640 484 l 1,2,-1
 640 588 l 1,3,-1
 191 588 l 2,4,5
 184 588 184 588 184 581 c 2,6,-1
 184 139 l 2,7,8
 184 132 184 132 191 132 c 2,9,-1
 640 132 l 1,10,-1
 640 236 l 1,11,-1
 770 236 l 1,12,-1
 770 115 l 1,13,14
 761 66 761 66 722.5 33 c 128,-1,15
 684 0 684 0 633 0 c 2,16,-1
 191 0 l 2,17,18
 133 0 133 0 92.5 40.5 c 128,-1,19
 52 81 52 81 52 139 c 2,20,-1
 52 581 l 2,21,22
 52 639 52 639 92.5 679.5 c 128,-1,23
 133 720 133 720 191 720 c 2,24,-1
 633 720 l 2,25,26
 683 720 683 720 722 687.5 c 128,-1,27
 761 655 761 655 773 605 c 1,0,-1
EndSplineSet
EndChar

StartChar: A.alt
Encoding: 57355 57355 15
Width: 774
Flags: MW
HStem: 0 21G<0 0 0 143 581 581 581 713> 183 131<406 581 406 581 296 581> 700 20G<570 713 713 713>
VStem: 581 132<0 183 183 183 314 523 523 523>
LayerCount: 2
Fore
SplineSet
0 0 m 1,0,-1
 0 33 l 1,1,-1
 570 720 l 1,2,-1
 713 720 l 1,3,-1
 713 0 l 1,4,-1
 581 0 l 1,5,-1
 581 183 l 1,6,-1
 296 183 l 1,7,-1
 143 0 l 1,8,-1
 0 0 l 1,0,-1
581 523 m 1,9,-1
 406 314 l 1,10,-1
 581 314 l 1,11,-1
 581 523 l 1,9,-1
EndSplineSet
EndChar

StartChar: Ccedilla
Encoding: 199 199 16
Width: 822
Flags: MW
HStem: -154 21G<337 470 337 337> 0 132<156.5 774 195 375 508 774 508 508> 588 132<193 774 195 774>
VStem: 56 132<139 581>
LayerCount: 2
Fore
SplineSet
774 588 m 1,0,-1
 195 588 l 2,1,2
 188 588 188 588 188 581 c 2,3,-1
 188 139 l 2,4,5
 188 132 188 132 195 132 c 2,6,-1
 774 132 l 1,7,-1
 774 0 l 1,8,-1
 508 0 l 1,9,-1
 470 -154 l 1,10,-1
 337 -154 l 1,11,-1
 375 0 l 1,12,-1
 195 0 l 2,13,14
 137 0 137 0 96.5 40.5 c 128,-1,15
 56 81 56 81 56 139 c 2,16,-1
 56 581 l 2,17,18
 56 639 56 639 96.5 679.5 c 128,-1,19
 137 720 137 720 195 720 c 2,20,-1
 774 720 l 1,21,-1
 774 588 l 1,0,-1
EndSplineSet
EndChar

StartChar: D
Encoding: 68 68 17
Width: 834
Flags: MW
HStem: 0 132<197 638 197 638> 588 132<195 197 197 638>
VStem: 58 132<137 139 139 581> 645 133<139 581>
LayerCount: 2
Fore
SplineSet
58 720 m 1,0,-1
 638 720 l 2,1,2
 696 720 696 720 737 679.5 c 128,-1,3
 778 639 778 639 778 581 c 2,4,-1
 778 139 l 2,5,6
 778 81 778 81 737 40.5 c 128,-1,7
 696 0 696 0 638 0 c 2,8,-1
 58 0 l 1,9,-1
 58 720 l 1,0,-1
645 139 m 2,10,-1
 645 581 l 2,11,12
 645 588 645 588 638 588 c 2,13,-1
 197 588 l 2,14,15
 190 588 190 588 190 581 c 2,16,-1
 190 139 l 2,17,18
 190 132 190 132 197 132 c 2,19,-1
 638 132 l 2,20,21
 645 132 645 132 645 139 c 2,10,-1
EndSplineSet
EndChar

StartChar: E
Encoding: 69 69 18
Width: 766
Flags: MW
HStem: 0 132<191 720 191 720> 294 132<191 617 191 617> 588 132<191 720 191 191>
VStem: 58 133<132 294 426 588>
CounterMasks: 1 e0
LayerCount: 2
Fore
SplineSet
720 720 m 1,0,-1
 720 588 l 1,1,-1
 191 588 l 1,2,-1
 191 426 l 1,3,-1
 617 426 l 1,4,-1
 617 294 l 1,5,-1
 191 294 l 1,6,-1
 191 132 l 1,7,-1
 720 132 l 1,8,-1
 720 0 l 1,9,-1
 58 0 l 1,10,-1
 58 720 l 1,11,-1
 720 720 l 1,0,-1
EndSplineSet
EndChar

StartChar: Eacute
Encoding: 201 201 19
Width: 766
Flags: MW
HStem: 0 132<191 720 191 720> 294 132<191 617 191 617> 588 132<191 720 191 191> 779 183<309 488 355 442>
VStem: 58 133<132 294 426 588>
LayerCount: 2
Fore
SplineSet
720 720 m 1,0,-1
 720 588 l 1,1,-1
 191 588 l 1,2,-1
 191 426 l 1,3,-1
 617 426 l 1,4,-1
 617 294 l 1,5,-1
 191 294 l 1,6,-1
 191 132 l 1,7,-1
 720 132 l 1,8,-1
 720 0 l 1,9,-1
 58 0 l 1,10,-1
 58 720 l 1,11,-1
 720 720 l 1,0,-1
309 779 m 1,12,-1
 355 962 l 1,13,-1
 488 962 l 1,14,-1
 442 779 l 1,15,-1
 309 779 l 1,12,-1
EndSplineSet
EndChar

StartChar: Ecircumflex
Encoding: 202 202 20
Width: 766
Flags: MW
HStem: 0 132<191 720 191 720> 294 132<191 617 191 617> 588 132<191 720 191 191> 778 163<359 365 261 446 438 438 438 446 359 544>
VStem: 58 133<132 294 426 588>
LayerCount: 2
Fore
SplineSet
720 720 m 1,0,-1
 720 588 l 1,1,-1
 191 588 l 1,2,-1
 191 426 l 1,3,-1
 617 426 l 1,4,-1
 617 294 l 1,5,-1
 191 294 l 1,6,-1
 191 132 l 1,7,-1
 720 132 l 1,8,-1
 720 0 l 1,9,-1
 58 0 l 1,10,-1
 58 720 l 1,11,-1
 720 720 l 1,0,-1
365 778 m 1,12,-1
 261 778 l 1,13,-1
 359 941 l 1,14,-1
 446 941 l 1,15,-1
 544 778 l 1,16,-1
 438 778 l 1,17,-1
 401 837 l 1,18,19
 395 828 395 828 383 807.5 c 128,-1,20
 371 787 371 787 365 778 c 1,12,-1
EndSplineSet
EndChar

StartChar: Edieresis
Encoding: 203 203 21
Width: 766
Flags: MW
HStem: 0 132<191 720 191 720> 294 132<191 617 191 617> 588 132<191 720 191 191> 779 132<244 375 244 375 415 547 244 415>
VStem: 58 133<132 294 426 588> 244 131<779 911 779 911> 415 132<779 911 779 911>
LayerCount: 2
Fore
SplineSet
720 720 m 1,0,-1
 720 588 l 1,1,-1
 191 588 l 1,2,-1
 191 426 l 1,3,-1
 617 426 l 1,4,-1
 617 294 l 1,5,-1
 191 294 l 1,6,-1
 191 132 l 1,7,-1
 720 132 l 1,8,-1
 720 0 l 1,9,-1
 58 0 l 1,10,-1
 58 720 l 1,11,-1
 720 720 l 1,0,-1
547 911 m 1,12,-1
 547 779 l 1,13,-1
 415 779 l 1,14,-1
 415 911 l 1,15,-1
 547 911 l 1,12,-1
375 911 m 1,16,-1
 375 779 l 1,17,-1
 244 779 l 1,18,-1
 244 911 l 1,19,-1
 375 911 l 1,16,-1
EndSplineSet
EndChar

StartChar: Egrave
Encoding: 200 200 22
Width: 766
Flags: MW
HStem: 0 132<191 720 191 720> 294 132<191 617 191 617> 588 132<191 720 191 191> 779 183<355 442 309 488 355 355>
VStem: 58 133<132 294 426 588>
LayerCount: 2
Fore
SplineSet
720 720 m 1,0,-1
 720 588 l 1,1,-1
 191 588 l 1,2,-1
 191 426 l 1,3,-1
 617 426 l 1,4,-1
 617 294 l 1,5,-1
 191 294 l 1,6,-1
 191 132 l 1,7,-1
 720 132 l 1,8,-1
 720 0 l 1,9,-1
 58 0 l 1,10,-1
 58 720 l 1,11,-1
 720 720 l 1,0,-1
442 962 m 1,12,-1
 488 779 l 1,13,-1
 355 779 l 1,14,-1
 309 962 l 1,15,-1
 442 962 l 1,12,-1
EndSplineSet
EndChar

StartChar: Euro
Encoding: 8364 8364 23
Width: 799
Flags: MW
HStem: 0 131<230 746 268 746> 197 131<35 130 35 130 261 643> 385 131<35 130 35 130 261 643> 589 131<266 746 268 746>
VStem: 130 131<138 197 136 197 328 385 516 582>
LayerCount: 2
Fore
SplineSet
268 131 m 2,0,-1
 746 131 l 1,1,-1
 746 0 l 1,2,-1
 268 0 l 2,3,4
 211 0 211 0 170.5 40.5 c 128,-1,5
 130 81 130 81 130 138 c 2,6,-1
 130 197 l 1,7,-1
 35 197 l 1,8,-1
 35 328 l 1,9,-1
 130 328 l 1,10,-1
 130 385 l 1,11,-1
 35 385 l 1,12,-1
 35 516 l 1,13,-1
 130 516 l 1,14,-1
 130 582 l 2,15,16
 130 639 130 639 170.5 679.5 c 128,-1,17
 211 720 211 720 268 720 c 2,18,-1
 746 720 l 1,19,-1
 746 589 l 1,20,-1
 268 589 l 2,21,22
 261 589 261 589 261 582 c 2,23,-1
 261 516 l 1,24,-1
 643 516 l 1,25,-1
 643 385 l 1,26,-1
 261 385 l 1,27,-1
 261 328 l 1,28,-1
 643 328 l 1,29,-1
 643 197 l 1,30,-1
 261 197 l 1,31,-1
 261 138 l 2,32,33
 261 131 261 131 268 131 c 2,0,-1
EndSplineSet
EndChar

StartChar: F
Encoding: 70 70 24
Width: 723
Flags: MW
HStem: 0 21G<58 191 58 58> 294 132<191 617 191 617> 588 132<191 720 191 191>
VStem: 58 133<0 294 426 588>
LayerCount: 2
Fore
SplineSet
58 720 m 1,0,-1
 720 720 l 1,1,-1
 720 588 l 1,2,-1
 191 588 l 1,3,-1
 191 426 l 1,4,-1
 617 426 l 1,5,-1
 617 294 l 1,6,-1
 191 294 l 1,7,-1
 191 0 l 1,8,-1
 58 0 l 1,9,-1
 58 720 l 1,0,-1
EndSplineSet
EndChar

StartChar: G
Encoding: 71 71 25
Width: 830
Flags: MW
HStem: 0 132<156.5 636 195 636> 275 132<480 643 480 776> 525 195<643 674.5 195 776 643 643> 588 132<193 636 195 636>
VStem: 56 132<139 581> 643 133<139 275 275 275 525 581>
LayerCount: 2
Fore
SplineSet
776 581 m 2,0,-1
 776 525 l 1,1,-1
 643 525 l 1,2,-1
 643 581 l 2,3,4
 643 588 643 588 636 588 c 2,5,-1
 195 588 l 2,6,7
 188 588 188 588 188 581 c 2,8,-1
 188 139 l 2,9,10
 188 132 188 132 195 132 c 2,11,-1
 636 132 l 2,12,13
 643 132 643 132 643 139 c 2,14,-1
 643 275 l 1,15,-1
 480 275 l 1,16,-1
 480 407 l 1,17,-1
 776 407 l 1,18,-1
 776 139 l 2,19,20
 776 81 776 81 735 40.5 c 128,-1,21
 694 0 694 0 636 0 c 2,22,-1
 195 0 l 2,23,24
 137 0 137 0 96.5 40.5 c 128,-1,25
 56 81 56 81 56 139 c 2,26,-1
 56 581 l 2,27,28
 56 639 56 639 96.5 679.5 c 128,-1,29
 137 720 137 720 195 720 c 2,30,-1
 636 720 l 2,31,32
 694 720 694 720 735 679.5 c 128,-1,33
 776 639 776 639 776 581 c 2,0,-1
EndSplineSet
EndChar

StartChar: H
Encoding: 72 72 26
Width: 851
Flags: MW
HStem: 0 21G<57 189 57 57 661 793 661 661> 294 132<189 661 189 661> 700 20G<57 189 189 189 661 793 793 793>
VStem: 57 132<0 294 426 720> 661 132<0 294 294 294 426 720 0 720>
LayerCount: 2
Fore
SplineSet
661 720 m 1,0,-1
 793 720 l 1,1,-1
 793 0 l 1,2,-1
 661 0 l 1,3,-1
 661 294 l 1,4,-1
 189 294 l 1,5,-1
 189 0 l 1,6,-1
 57 0 l 1,7,-1
 57 720 l 1,8,-1
 189 720 l 1,9,-1
 189 426 l 1,10,-1
 661 426 l 1,11,-1
 661 720 l 1,0,-1
EndSplineSet
EndChar

StartChar: I
Encoding: 73 73 27
Width: 220
Flags: MW
HStem: 0 21G<57 57 57 189> 700 20G<57 189 189 189>
VStem: 57 132<0 720 0 720>
LayerCount: 2
Fore
SplineSet
57 0 m 1,0,-1
 57 720 l 1,1,-1
 189 720 l 1,2,-1
 189 0 l 1,3,-1
 57 0 l 1,0,-1
EndSplineSet
Substitution2: "'salt' Stylistic Alternatives in Latin lookup 2 subtable" I.alt
Substitution2: "'aalt' Access All Alternates in Latin lookup 0 subtable" I.alt
EndChar

StartChar: I.alt
Encoding: 65541 -1 28
Width: 818
Flags: MW
HStem: 0 132<49 343 475 769 49 343> 588 132<49 343 49 769 475 769 475 475>
VStem: 343 132<132 588 132 588>
LayerCount: 2
Fore
SplineSet
769 720 m 1,0,-1
 769 588 l 1,1,-1
 475 588 l 1,2,-1
 475 132 l 1,3,-1
 769 132 l 1,4,-1
 769 0 l 1,5,-1
 49 0 l 1,6,-1
 49 132 l 1,7,-1
 343 132 l 1,8,-1
 343 588 l 1,9,-1
 49 588 l 1,10,-1
 49 720 l 1,11,-1
 769 720 l 1,0,-1
EndSplineSet
EndChar

StartChar: Iacute
Encoding: 205 205 29
Width: 220
Flags: MW
HStem: 0 21G<57 57 57 189> 700 20G<57 189 189 189> 779 183<36 215 82 169>
VStem: 57 132<0 720 0 720>
LayerCount: 2
Fore
SplineSet
57 0 m 1,0,-1
 57 720 l 1,1,-1
 189 720 l 1,2,-1
 189 0 l 1,3,-1
 57 0 l 1,0,-1
36 779 m 1,4,-1
 82 962 l 1,5,-1
 215 962 l 1,6,-1
 169 779 l 1,7,-1
 36 779 l 1,4,-1
EndSplineSet
EndChar

StartChar: Icircumflex
Encoding: 206 206 30
Width: 220
Flags: MW
HStem: 0 21G<57 57 57 189> 700 20G<57 189 189 189> 778 163<86 92 -12 173 165 165 165 173 86 271>
VStem: 57 132<0 720 0 720>
LayerCount: 2
Fore
SplineSet
57 0 m 1,0,-1
 57 720 l 1,1,-1
 189 720 l 1,2,-1
 189 0 l 1,3,-1
 57 0 l 1,0,-1
92 778 m 1,4,-1
 -12 778 l 1,5,-1
 86 941 l 1,6,-1
 173 941 l 1,7,-1
 271 778 l 1,8,-1
 165 778 l 1,9,-1
 128 837 l 1,10,11
 122 828 122 828 110 807.5 c 128,-1,12
 98 787 98 787 92 778 c 1,4,-1
EndSplineSet
EndChar

StartChar: Idieresis
Encoding: 207 207 31
Width: 220
Flags: MW
HStem: 0 21G<57 57 57 189> 700 20G<57 189 189 189> 779 132<-29 102 -29 102 142 274 -29 142>
VStem: -29 131<779 911 779 911> 57 132<0 720 0 720> 142 132<779 911 779 911>
LayerCount: 2
Fore
SplineSet
57 0 m 1,0,-1
 57 720 l 1,1,-1
 189 720 l 1,2,-1
 189 0 l 1,3,-1
 57 0 l 1,0,-1
274 911 m 1,4,-1
 274 779 l 1,5,-1
 142 779 l 1,6,-1
 142 911 l 1,7,-1
 274 911 l 1,4,-1
102 911 m 1,8,-1
 102 779 l 1,9,-1
 -29 779 l 1,10,-1
 -29 911 l 1,11,-1
 102 911 l 1,8,-1
EndSplineSet
EndChar

StartChar: Igrave
Encoding: 204 204 32
Width: 220
Flags: MW
HStem: 0 21G<57 57 57 189> 700 20G<57 189 189 189> 779 183<82 169 36 215 82 82>
VStem: 57 132<0 720 0 720>
LayerCount: 2
Fore
SplineSet
57 0 m 1,0,-1
 57 720 l 1,1,-1
 189 720 l 1,2,-1
 189 0 l 1,3,-1
 57 0 l 1,0,-1
169 962 m 1,4,-1
 215 779 l 1,5,-1
 82 779 l 1,6,-1
 36 962 l 1,7,-1
 169 962 l 1,4,-1
EndSplineSet
EndChar

StartChar: J
Encoding: 74 74 33
Width: 780
Flags: MW
HStem: 0 132<104.5 585 143 585> 0 221<104.5 136 4 143 4 585> 700 20G<591 724 724 724>
VStem: 4 132<139 221 137 221> 591 133<139 720>
LayerCount: 2
Fore
SplineSet
591 139 m 2,0,-1
 591 720 l 1,1,-1
 724 720 l 1,2,-1
 724 139 l 2,3,4
 724 81 724 81 683 40.5 c 128,-1,5
 642 0 642 0 585 0 c 2,6,-1
 143 0 l 2,7,8
 85 0 85 0 44.5 40.5 c 128,-1,9
 4 81 4 81 4 139 c 2,10,-1
 4 221 l 1,11,-1
 136 221 l 1,12,-1
 136 139 l 2,13,14
 136 132 136 132 143 132 c 2,15,-1
 585 132 l 2,16,17
 591 132 591 132 591 139 c 2,0,-1
EndSplineSet
Substitution2: "'salt' Stylistic Alternatives in Latin lookup 2 subtable" J.alt
Substitution2: "'aalt' Access All Alternates in Latin lookup 0 subtable" J.alt
EndChar

StartChar: J.alt
Encoding: 65542 -1 34
Width: 645
Flags: MW
HStem: 0 132<3 459 3 459> 700 20G<466 599 599 599>
VStem: 466 133<139 720>
LayerCount: 2
Fore
SplineSet
466 139 m 2,0,-1
 466 720 l 1,1,-1
 599 720 l 1,2,-1
 599 139 l 2,3,4
 599 81 599 81 558 40.5 c 128,-1,5
 517 0 517 0 459 0 c 2,6,-1
 3 0 l 1,7,-1
 3 132 l 1,8,-1
 459 132 l 2,9,10
 466 132 466 132 466 139 c 2,0,-1
EndSplineSet
EndChar

StartChar: K
Encoding: 75 75 35
Width: 797
Flags: MW
HStem: 0 21G<57 190 57 57 606 751 606 606> 294 132<190 360 190 360> 700 20G<57 190 190 190 606 751 751 751>
VStem: 57 133<0 294 0 426 426 720>
LayerCount: 2
Fore
SplineSet
606 720 m 1,0,-1
 751 720 l 1,1,-1
 751 685 l 1,2,-1
 479 360 l 1,3,-1
 751 35 l 1,4,-1
 751 0 l 1,5,-1
 606 0 l 1,6,-1
 360 294 l 1,7,-1
 190 294 l 1,8,-1
 190 0 l 1,9,-1
 57 0 l 1,10,-1
 57 720 l 1,11,-1
 190 720 l 1,12,-1
 190 426 l 1,13,-1
 360 426 l 1,14,-1
 606 720 l 1,0,-1
EndSplineSet
Substitution2: "'salt' Stylistic Alternatives in Latin lookup 2 subtable" K.alt
Substitution2: "'aalt' Access All Alternates in Latin lookup 0 subtable" K.alt
EndChar

StartChar: K.alt
Encoding: 65543 -1 36
Width: 829
Flags: MW
HStem: 0 21G<54 186 54 54 641 774 641 641> 291 132<191 635 193 635> 700 20G<54 186 186 186 642 775 775 775>
VStem: 54 132<0 284 428 430 430 720> 641 133<0 265 0 284 0 286>
LayerCount: 2
Fore
SplineSet
642 430 m 2,0,-1
 642 720 l 1,1,-1
 775 720 l 1,2,-1
 775 449 l 2,3,4
 775 422 775 422 753.5 396.5 c 128,-1,5
 732 371 732 371 696 357 c 1,6,7
 732 342 732 342 753 317 c 128,-1,8
 774 292 774 292 774 265 c 2,9,-1
 774 0 l 1,10,-1
 641 0 l 1,11,-1
 641 284 l 2,12,13
 641 291 641 291 635 291 c 2,14,-1
 193 291 l 2,15,16
 186 291 186 291 186 284 c 2,17,-1
 186 0 l 1,18,-1
 54 0 l 1,19,-1
 54 720 l 1,20,-1
 186 720 l 1,21,-1
 186 430 l 2,22,23
 186 423 186 423 193 423 c 2,24,-1
 635 423 l 2,25,26
 642 423 642 423 642 430 c 2,0,-1
EndSplineSet
EndChar

StartChar: L
Encoding: 76 76 37
Width: 779
Flags: MW
HStem: 0 132<189 777 189 777> 701 20G<57 189 189 189>
VStem: 57 132<132 721 132 721 132 721>
LayerCount: 2
Fore
SplineSet
57 0 m 1,0,-1
 57 721 l 1,1,-1
 189 721 l 1,2,-1
 189 132 l 1,3,-1
 777 132 l 1,4,-1
 777 0 l 1,5,-1
 57 0 l 1,0,-1
EndSplineSet
EndChar

StartChar: M
Encoding: 77 77 38
Width: 928
Flags: MW
HStem: 0 21G<56 188 56 56 735 868 735 735> 700 20G<56 200 200 200 723 868 868 868>
VStem: 56 132<0 528 0 720> 735 133<0 528 528 528>
LayerCount: 2
Fore
SplineSet
462 408 m 1,0,-1
 723 720 l 1,1,-1
 868 720 l 1,2,-1
 868 0 l 1,3,-1
 735 0 l 1,4,-1
 735 528 l 1,5,-1
 462 203 l 1,6,-1
 188 528 l 1,7,-1
 188 0 l 1,8,-1
 56 0 l 1,9,-1
 56 720 l 1,10,-1
 200 720 l 1,11,-1
 462 408 l 1,0,-1
EndSplineSet
Substitution2: "'salt' Stylistic Alternatives in Latin lookup 2 subtable" M.alt
Substitution2: "'aalt' Access All Alternates in Latin lookup 0 subtable" M.alt
EndChar

StartChar: M.alt
Encoding: 65544 -1 39
Width: 1155
Flags: MW
HStem: 0 21G<54 186 54 54 494 626 494 494 956 1089 956 956> 588 132<186 487 186 186 626 950 626 626>
VStem: 54 132<0 588 0 720> 494 132<0 581 581 583> 956 133<0 581 0 583>
LayerCount: 2
Fore
SplineSet
950 720 m 2,0,1
 1007 720 1007 720 1048 679.5 c 128,-1,2
 1089 639 1089 639 1089 581 c 2,3,-1
 1089 0 l 1,4,-1
 956 0 l 1,5,-1
 956 581 l 2,6,7
 956 588 956 588 950 588 c 2,8,-1
 626 588 l 1,9,-1
 626 0 l 1,10,-1
 494 0 l 1,11,-1
 494 581 l 2,12,13
 494 588 494 588 487 588 c 2,14,-1
 186 588 l 1,15,-1
 186 0 l 1,16,-1
 54 0 l 1,17,-1
 54 720 l 1,18,-1
 950 720 l 2,0,1
EndSplineSet
EndChar

StartChar: N
Encoding: 78 78 40
Width: 832
Flags: MW
HStem: 0 21G<56 188 56 56 632 776 632 632> 700 20G<56 200 200 200 643 776 776 776>
VStem: 56 132<0 528 0 720> 643 133<192 720 0 720>
LayerCount: 2
Fore
SplineSet
643 192 m 1,0,-1
 643 720 l 1,1,-1
 776 720 l 1,2,-1
 776 0 l 1,3,-1
 632 0 l 1,4,-1
 188 528 l 1,5,-1
 188 0 l 1,6,-1
 56 0 l 1,7,-1
 56 720 l 1,8,-1
 200 720 l 1,9,-1
 643 192 l 1,0,-1
EndSplineSet
Substitution2: "'salt' Stylistic Alternatives in Latin lookup 2 subtable" N.alt
Substitution2: "'aalt' Access All Alternates in Latin lookup 0 subtable" N.alt
EndChar

StartChar: N.alt
Encoding: 65545 -1 41
Width: 827
Flags: MW
HStem: 0 21G<54 186 54 54 641 641 641 774> 588 132<186 635 186 186>
VStem: 54 132<0 588> 641 133<0 581 0 583>
LayerCount: 2
Fore
SplineSet
186 0 m 1,0,-1
 54 0 l 1,1,-1
 54 720 l 1,2,-1
 635 720 l 2,3,4
 692 720 692 720 733 679.5 c 128,-1,5
 774 639 774 639 774 581 c 2,6,-1
 774 0 l 1,7,-1
 641 0 l 1,8,-1
 641 581 l 2,9,10
 641 588 641 588 635 588 c 2,11,-1
 186 588 l 1,12,-1
 186 0 l 1,0,-1
EndSplineSet
EndChar

StartChar: Ntilde
Encoding: 209 209 42
Width: 832
Flags: MW
HStem: 0 21G<56 188 56 56 632 776 632 632> 700 20G<56 200 200 200 643 776 776 776> 783 156<310 531.5> 848 91<310 313 313 325>
VStem: 56 132<0 528 0 720> 643 133<192 720 0 720>
LayerCount: 2
Fore
SplineSet
643 192 m 1,0,-1
 643 720 l 1,1,-1
 776 720 l 1,2,-1
 776 0 l 1,3,-1
 632 0 l 1,4,-1
 188 528 l 1,5,-1
 188 0 l 1,6,-1
 56 0 l 1,7,-1
 56 720 l 1,8,-1
 200 720 l 1,9,-1
 643 192 l 1,0,-1
517 874 m 1,10,11
 564 874 564 874 604 901 c 1,12,-1
 604 805 l 1,13,14
 552 783 552 783 515 783 c 0,15,16
 479 783 479 783 419 815.5 c 128,-1,17
 359 848 359 848 325 848 c 2,18,-1
 313 848 l 2,19,20
 269 848 269 848 240 810 c 1,21,-1
 240 921 l 1,22,23
 285 939 285 939 325 939 c 0,24,25
 364 939 364 939 424.5 908.5 c 128,-1,26
 485 878 485 878 517 874 c 1,10,11
EndSplineSet
EndChar

StartChar: O
Encoding: 79 79 43
Width: 828
Flags: MW
HStem: 0 132<154.5 635 193 635> 588 132<191 635 193 635>
VStem: 54 132<139 581> 641 133<139 581>
LayerCount: 2
Fore
SplineSet
193 720 m 2,0,-1
 635 720 l 2,1,2
 692 720 692 720 733 679.5 c 128,-1,3
 774 639 774 639 774 581 c 2,4,-1
 774 139 l 2,5,6
 774 81 774 81 733 40.5 c 128,-1,7
 692 0 692 0 635 0 c 2,8,-1
 193 0 l 2,9,10
 135 0 135 0 94.5 40.5 c 128,-1,11
 54 81 54 81 54 139 c 2,12,-1
 54 581 l 2,13,14
 54 639 54 639 94.5 679.5 c 128,-1,15
 135 720 135 720 193 720 c 2,0,-1
193 132 m 2,16,-1
 635 132 l 2,17,18
 641 132 641 132 641 139 c 2,19,-1
 641 581 l 2,20,21
 641 588 641 588 635 588 c 2,22,-1
 193 588 l 2,23,24
 186 588 186 588 186 581 c 2,25,-1
 186 139 l 2,26,27
 186 132 186 132 193 132 c 2,16,-1
EndSplineSet
Substitution2: "'salt' Stylistic Alternatives in Latin lookup 2 subtable" O.alt
Substitution2: "'aalt' Access All Alternates in Latin lookup 0 subtable" O.alt
EndChar

StartChar: O.alt
Encoding: 65546 -1 44
Width: 824
Flags: MW
HStem: 0 132<152.5 633 191 633> 294 132<346 478 346 478> 588 132<189 633 191 633>
VStem: 52 132<139 581> 346 132<294 426> 639 133<139 581>
CounterMasks: 1 e0
LayerCount: 2
Fore
SplineSet
191 720 m 2,0,-1
 633 720 l 2,1,2
 690 720 690 720 731 679.5 c 128,-1,3
 772 639 772 639 772 581 c 2,4,-1
 772 139 l 2,5,6
 772 81 772 81 731 40.5 c 128,-1,7
 690 0 690 0 633 0 c 2,8,-1
 191 0 l 2,9,10
 133 0 133 0 92.5 40.5 c 128,-1,11
 52 81 52 81 52 139 c 2,12,-1
 52 581 l 2,13,14
 52 639 52 639 92.5 679.5 c 128,-1,15
 133 720 133 720 191 720 c 2,0,-1
639 139 m 2,16,-1
 639 581 l 2,17,18
 639 588 639 588 633 588 c 2,19,-1
 191 588 l 2,20,21
 184 588 184 588 184 581 c 2,22,-1
 184 139 l 2,23,24
 184 132 184 132 191 132 c 2,25,-1
 633 132 l 2,26,27
 639 132 639 132 639 139 c 2,16,-1
478 294 m 1,28,-1
 346 294 l 1,29,-1
 346 426 l 1,30,-1
 478 426 l 1,31,-1
 478 294 l 1,28,-1
EndSplineSet
EndChar

StartChar: OE
Encoding: 338 338 45
Width: 1374
Flags: MW
HStem: 0 132<154 634 192 634 634 636 773 1303> 294 132<773 1199 773 1199> 588 132<190.5 1303 192 634 773 773 773 1303>
VStem: 53 133<139 581> 641 132<139 294 426 581 581 583>
CounterMasks: 1 e0
LayerCount: 2
Fore
SplineSet
773 588 m 1,0,-1
 773 426 l 1,1,-1
 1199 426 l 1,2,-1
 1199 294 l 1,3,-1
 773 294 l 1,4,-1
 773 132 l 1,5,-1
 1303 132 l 1,6,-1
 1303 0 l 1,7,-1
 192 0 l 2,8,9
 135 0 135 0 94 40.5 c 128,-1,10
 53 81 53 81 53 139 c 2,11,-1
 53 581 l 2,12,13
 53 639 53 639 94 679.5 c 128,-1,14
 135 720 135 720 192 720 c 2,15,-1
 1303 720 l 1,16,-1
 1303 588 l 1,17,-1
 773 588 l 1,0,-1
634 132 m 2,18,19
 641 132 641 132 641 139 c 2,20,-1
 641 581 l 2,21,22
 641 588 641 588 634 588 c 2,23,-1
 192 588 l 2,24,25
 186 588 186 588 186 581 c 2,26,-1
 186 139 l 2,27,28
 186 132 186 132 192 132 c 2,29,-1
 634 132 l 2,18,19
EndSplineSet
EndChar

StartChar: Oacute
Encoding: 211 211 46
Width: 828
Flags: MW
HStem: 0 132<154.5 635 193 635> 588 132<191 635 193 635> 779 183<340 519 386 473>
VStem: 54 132<139 581> 641 133<139 581>
LayerCount: 2
Fore
SplineSet
193 720 m 2,0,-1
 635 720 l 2,1,2
 692 720 692 720 733 679.5 c 128,-1,3
 774 639 774 639 774 581 c 2,4,-1
 774 139 l 2,5,6
 774 81 774 81 733 40.5 c 128,-1,7
 692 0 692 0 635 0 c 2,8,-1
 193 0 l 2,9,10
 135 0 135 0 94.5 40.5 c 128,-1,11
 54 81 54 81 54 139 c 2,12,-1
 54 581 l 2,13,14
 54 639 54 639 94.5 679.5 c 128,-1,15
 135 720 135 720 193 720 c 2,0,-1
193 132 m 2,16,-1
 635 132 l 2,17,18
 641 132 641 132 641 139 c 2,19,-1
 641 581 l 2,20,21
 641 588 641 588 635 588 c 2,22,-1
 193 588 l 2,23,24
 186 588 186 588 186 581 c 2,25,-1
 186 139 l 2,26,27
 186 132 186 132 193 132 c 2,16,-1
340 779 m 1,28,-1
 386 962 l 1,29,-1
 519 962 l 1,30,-1
 473 779 l 1,31,-1
 340 779 l 1,28,-1
EndSplineSet
EndChar

StartChar: Ocircumflex
Encoding: 212 212 47
Width: 828
Flags: MW
HStem: 0 132<154.5 635 193 635> 588 132<191 635 193 635> 778 163<390 396 292 477 469 469 469 477 390 575>
VStem: 54 132<139 581> 641 133<139 581>
LayerCount: 2
Fore
SplineSet
193 720 m 2,0,-1
 635 720 l 2,1,2
 692 720 692 720 733 679.5 c 128,-1,3
 774 639 774 639 774 581 c 2,4,-1
 774 139 l 2,5,6
 774 81 774 81 733 40.5 c 128,-1,7
 692 0 692 0 635 0 c 2,8,-1
 193 0 l 2,9,10
 135 0 135 0 94.5 40.5 c 128,-1,11
 54 81 54 81 54 139 c 2,12,-1
 54 581 l 2,13,14
 54 639 54 639 94.5 679.5 c 128,-1,15
 135 720 135 720 193 720 c 2,0,-1
193 132 m 2,16,-1
 635 132 l 2,17,18
 641 132 641 132 641 139 c 2,19,-1
 641 581 l 2,20,21
 641 588 641 588 635 588 c 2,22,-1
 193 588 l 2,23,24
 186 588 186 588 186 581 c 2,25,-1
 186 139 l 2,26,27
 186 132 186 132 193 132 c 2,16,-1
396 778 m 1,28,-1
 292 778 l 1,29,-1
 390 941 l 1,30,-1
 477 941 l 1,31,-1
 575 778 l 1,32,-1
 469 778 l 1,33,-1
 432 837 l 1,34,35
 426 828 426 828 414 807.5 c 128,-1,36
 402 787 402 787 396 778 c 1,28,-1
EndSplineSet
EndChar

StartChar: Odieresis
Encoding: 214 214 48
Width: 828
Flags: MW
HStem: 0 132<154.5 635 193 635> 588 132<191 635 193 635> 779 132<275 406 275 406 446 578 275 446>
VStem: 54 132<139 581> 275 131<779 911 779 911> 446 132<779 911 779 911> 641 133<139 581>
LayerCount: 2
Fore
SplineSet
193 720 m 2,0,-1
 635 720 l 2,1,2
 692 720 692 720 733 679.5 c 128,-1,3
 774 639 774 639 774 581 c 2,4,-1
 774 139 l 2,5,6
 774 81 774 81 733 40.5 c 128,-1,7
 692 0 692 0 635 0 c 2,8,-1
 193 0 l 2,9,10
 135 0 135 0 94.5 40.5 c 128,-1,11
 54 81 54 81 54 139 c 2,12,-1
 54 581 l 2,13,14
 54 639 54 639 94.5 679.5 c 128,-1,15
 135 720 135 720 193 720 c 2,0,-1
193 132 m 2,16,-1
 635 132 l 2,17,18
 641 132 641 132 641 139 c 2,19,-1
 641 581 l 2,20,21
 641 588 641 588 635 588 c 2,22,-1
 193 588 l 2,23,24
 186 588 186 588 186 581 c 2,25,-1
 186 139 l 2,26,27
 186 132 186 132 193 132 c 2,16,-1
578 911 m 1,28,-1
 578 779 l 1,29,-1
 446 779 l 1,30,-1
 446 911 l 1,31,-1
 578 911 l 1,28,-1
406 911 m 1,32,-1
 406 779 l 1,33,-1
 275 779 l 1,34,-1
 275 911 l 1,35,-1
 406 911 l 1,32,-1
EndSplineSet
EndChar

StartChar: Ograve
Encoding: 210 210 49
Width: 828
Flags: MW
HStem: 0 132<154.5 635 193 635> 588 132<191 635 193 635> 779 183<386 473 340 519 386 386>
VStem: 54 132<139 581> 641 133<139 581>
LayerCount: 2
Fore
SplineSet
193 720 m 2,0,-1
 635 720 l 2,1,2
 692 720 692 720 733 679.5 c 128,-1,3
 774 639 774 639 774 581 c 2,4,-1
 774 139 l 2,5,6
 774 81 774 81 733 40.5 c 128,-1,7
 692 0 692 0 635 0 c 2,8,-1
 193 0 l 2,9,10
 135 0 135 0 94.5 40.5 c 128,-1,11
 54 81 54 81 54 139 c 2,12,-1
 54 581 l 2,13,14
 54 639 54 639 94.5 679.5 c 128,-1,15
 135 720 135 720 193 720 c 2,0,-1
193 132 m 2,16,-1
 635 132 l 2,17,18
 641 132 641 132 641 139 c 2,19,-1
 641 581 l 2,20,21
 641 588 641 588 635 588 c 2,22,-1
 193 588 l 2,23,24
 186 588 186 588 186 581 c 2,25,-1
 186 139 l 2,26,27
 186 132 186 132 193 132 c 2,16,-1
473 962 m 1,28,-1
 519 779 l 1,29,-1
 386 779 l 1,30,-1
 340 962 l 1,31,-1
 473 962 l 1,28,-1
EndSplineSet
EndChar

StartChar: Otilde
Encoding: 213 213 50
Width: 828
Flags: MW
HStem: 0 132<154.5 635 193 635> 588 132<191 635 193 635> 783 156<308 529.5> 848 91<308 311 311 323>
VStem: 54 132<139 581> 641 133<139 581>
LayerCount: 2
Fore
SplineSet
193 720 m 2,0,-1
 635 720 l 2,1,2
 692 720 692 720 733 679.5 c 128,-1,3
 774 639 774 639 774 581 c 2,4,-1
 774 139 l 2,5,6
 774 81 774 81 733 40.5 c 128,-1,7
 692 0 692 0 635 0 c 2,8,-1
 193 0 l 2,9,10
 135 0 135 0 94.5 40.5 c 128,-1,11
 54 81 54 81 54 139 c 2,12,-1
 54 581 l 2,13,14
 54 639 54 639 94.5 679.5 c 128,-1,15
 135 720 135 720 193 720 c 2,0,-1
193 132 m 2,16,-1
 635 132 l 2,17,18
 641 132 641 132 641 139 c 2,19,-1
 641 581 l 2,20,21
 641 588 641 588 635 588 c 2,22,-1
 193 588 l 2,23,24
 186 588 186 588 186 581 c 2,25,-1
 186 139 l 2,26,27
 186 132 186 132 193 132 c 2,16,-1
515 874 m 1,28,29
 562 874 562 874 602 901 c 1,30,-1
 602 805 l 1,31,32
 550 783 550 783 513 783 c 0,33,34
 477 783 477 783 417 815.5 c 128,-1,35
 357 848 357 848 323 848 c 2,36,-1
 311 848 l 2,37,38
 267 848 267 848 238 810 c 1,39,-1
 238 921 l 1,40,41
 283 939 283 939 323 939 c 0,42,43
 362 939 362 939 422.5 908.5 c 128,-1,44
 483 878 483 878 515 874 c 1,28,29
EndSplineSet
EndChar

StartChar: P
Encoding: 80 80 51
Width: 791
Flags: MW
HStem: 0 21G<56 188 56 56> 246 133<191 636> 587 132<193 195 195 636>
VStem: 56 132<0 247 384 386 386 580> 643 133<386 580>
LayerCount: 2
Fore
SplineSet
56 719 m 1,0,-1
 636 719 l 2,1,2
 694 719 694 719 735 678 c 128,-1,3
 776 637 776 637 776 580 c 2,4,-1
 776 386 l 2,5,6
 776 329 776 329 735 288 c 128,-1,7
 694 247 694 247 636 247 c 2,8,-1
 191 246 l 1,9,-1
 188 247 l 1,10,-1
 188 0 l 1,11,-1
 56 0 l 1,12,-1
 56 719 l 1,0,-1
643 386 m 2,13,-1
 643 580 l 2,14,15
 643 587 643 587 636 587 c 2,16,-1
 195 587 l 2,17,18
 188 587 188 587 188 580 c 2,19,-1
 188 386 l 2,20,21
 188 379 188 379 195 379 c 2,22,-1
 636 379 l 2,23,24
 643 379 643 379 643 386 c 2,13,-1
EndSplineSet
EndChar

StartChar: Q
Encoding: 81 81 52
Width: 884
Flags: MW
HStem: 0 132<154.5 634 193 634 634 636 774 860> 588 132<191 634 193 634>
VStem: 54 132<139 581> 641 133<139 581>
LayerCount: 2
Fore
SplineSet
774 132 m 1,0,-1
 860 132 l 1,1,-1
 860 0 l 1,2,-1
 193 0 l 2,3,4
 135 0 135 0 94.5 40.5 c 128,-1,5
 54 81 54 81 54 139 c 2,6,-1
 54 581 l 2,7,8
 54 639 54 639 94.5 679.5 c 128,-1,9
 135 720 135 720 193 720 c 2,10,-1
 634 720 l 2,11,12
 692 720 692 720 733 679.5 c 128,-1,13
 774 639 774 639 774 581 c 2,14,-1
 774 132 l 1,0,-1
193 132 m 2,15,-1
 634 132 l 2,16,17
 641 132 641 132 641 139 c 2,18,-1
 641 581 l 2,19,20
 641 588 641 588 634 588 c 2,21,-1
 193 588 l 2,22,23
 186 588 186 588 186 581 c 2,24,-1
 186 139 l 2,25,26
 186 132 186 132 193 132 c 2,15,-1
EndSplineSet
Substitution2: "'salt' Stylistic Alternatives in Latin lookup 2 subtable" Q.alt
Substitution2: "'aalt' Access All Alternates in Latin lookup 0 subtable" Q.alt
EndChar

StartChar: Q.alt
Encoding: 65547 -1 53
Width: 868
Flags: MW
HStem: -104 236<347 480 347 347> 0 132<154.5 635 193 347 480 635 480 480> 588 132<191 635 193 635>
VStem: 54 132<139 581> 347 133<-104 0 -104 0> 641 133<139 581>
LayerCount: 2
Fore
SplineSet
635 720 m 2,0,1
 692 720 692 720 733 679.5 c 128,-1,2
 774 639 774 639 774 581 c 2,3,-1
 774 139 l 2,4,5
 774 81 774 81 733 40.5 c 128,-1,6
 692 0 692 0 635 0 c 2,7,-1
 480 0 l 1,8,-1
 480 -104 l 1,9,-1
 347 -104 l 1,10,-1
 347 0 l 1,11,-1
 193 0 l 2,12,13
 135 0 135 0 94.5 40.5 c 128,-1,14
 54 81 54 81 54 139 c 2,15,-1
 54 581 l 2,16,17
 54 639 54 639 94.5 679.5 c 128,-1,18
 135 720 135 720 193 720 c 2,19,-1
 635 720 l 2,0,1
641 139 m 2,20,-1
 641 581 l 2,21,22
 641 588 641 588 635 588 c 2,23,-1
 193 588 l 2,24,25
 186 588 186 588 186 581 c 2,26,-1
 186 139 l 2,27,28
 186 132 186 132 193 132 c 2,29,-1
 635 132 l 2,30,31
 641 132 641 132 641 139 c 2,20,-1
EndSplineSet
EndChar

StartChar: R
Encoding: 82 82 54
Width: 825
Flags: MW
HStem: 0 21G<55 187 55 55 631 775 631 631> 247 132<187 635 187 635 194 423 596 635 596 596> 587 132<192 194 194 635>
VStem: 55 132<0 247 384 386 386 580> 642 133<386 580>
LayerCount: 2
Fore
SplineSet
775 580 m 2,0,-1
 775 386 l 2,1,2
 775 329 775 329 734 288 c 128,-1,3
 693 247 693 247 635 247 c 2,4,-1
 596 247 l 1,5,-1
 775 34 l 1,6,-1
 775 0 l 1,7,-1
 631 0 l 1,8,-1
 423 247 l 1,9,-1
 190 247 l 1,10,-1
 187 247 l 1,11,-1
 187 0 l 1,12,-1
 55 0 l 1,13,-1
 55 719 l 1,14,-1
 635 719 l 2,15,16
 693 719 693 719 734 678 c 128,-1,17
 775 637 775 637 775 580 c 2,0,-1
194 379 m 2,18,-1
 635 379 l 2,19,20
 642 379 642 379 642 386 c 2,21,-1
 642 580 l 2,22,23
 642 587 642 587 635 587 c 2,24,-1
 194 587 l 2,25,26
 187 587 187 587 187 580 c 2,27,-1
 187 386 l 2,28,29
 187 379 187 379 194 379 c 2,18,-1
EndSplineSet
Substitution2: "'salt' Stylistic Alternatives in Latin lookup 2 subtable" R.alt
Substitution2: "'aalt' Access All Alternates in Latin lookup 0 subtable" R.alt
EndChar

StartChar: R.alt
Encoding: 65548 -1 55
Width: 826
Flags: MW
HStem: 0 21G<54 186 54 54 641 774 641 641> 247 132<191 635 193 635> 587 132<193 673> 700 20G<54 54>
VStem: 54 132<0 240 384 386 386 580> 641 133<0 240 0 242 386 580>
LayerCount: 2
Fore
SplineSet
774 580 m 2,0,-1
 774 386 l 2,1,2
 774 335 774 335 723 313 c 1,3,4
 774 291 774 291 774 240 c 2,5,-1
 774 0 l 1,6,-1
 641 0 l 1,7,-1
 641 240 l 2,8,9
 641 247 641 247 635 247 c 2,10,-1
 193 247 l 2,11,12
 186 247 186 247 186 240 c 2,13,-1
 186 0 l 1,14,-1
 54 0 l 1,15,-1
 54 720 l 1,16,-1
 635 719 l 2,17,18
 692 719 692 719 733 678 c 128,-1,19
 774 637 774 637 774 580 c 2,0,-1
635 587 m 2,20,-1
 193 587 l 2,21,22
 186 587 186 587 186 580 c 2,23,-1
 186 386 l 2,24,25
 186 379 186 379 193 379 c 2,26,-1
 635 379 l 2,27,28
 641 379 641 379 641 386 c 2,29,-1
 641 580 l 2,30,31
 641 587 641 587 635 587 c 2,20,-1
EndSplineSet
EndChar

StartChar: S
Encoding: 83 83 56
Width: 822
Flags: MW
HStem: 0 132<151.5 632 190 632> 0 194<151.5 183 51 190 51 632> 294 132<151.5 632 190 632> 526 194<638 670 190 771 638 638> 588 132<188 632 190 632>
VStem: 51 132<139 194 137 194 433 581> 638 133<139 287 526 581>
LayerCount: 2
Fore
SplineSet
771 581 m 2,0,-1
 771 526 l 1,1,-1
 638 526 l 1,2,-1
 638 581 l 2,3,4
 638 588 638 588 632 588 c 2,5,-1
 190 588 l 2,6,7
 183 588 183 588 183 581 c 2,8,-1
 183 433 l 2,9,10
 183 426 183 426 190 426 c 2,11,-1
 632 426 l 2,12,13
 689 426 689 426 730 385.5 c 128,-1,14
 771 345 771 345 771 287 c 2,15,-1
 771 139 l 2,16,17
 771 81 771 81 730 40.5 c 128,-1,18
 689 0 689 0 632 0 c 2,19,-1
 190 0 l 2,20,21
 132 0 132 0 91.5 40.5 c 128,-1,22
 51 81 51 81 51 139 c 2,23,-1
 51 194 l 1,24,-1
 183 194 l 1,25,-1
 183 139 l 2,26,27
 183 132 183 132 190 132 c 2,28,-1
 632 132 l 2,29,30
 638 132 638 132 638 139 c 2,31,-1
 638 287 l 2,32,33
 638 294 638 294 632 294 c 2,34,-1
 190 294 l 2,35,36
 132 294 132 294 91.5 334.5 c 128,-1,37
 51 375 51 375 51 433 c 2,38,-1
 51 581 l 2,39,40
 51 639 51 639 91.5 679.5 c 128,-1,41
 132 720 132 720 190 720 c 2,42,-1
 632 720 l 2,43,44
 689 720 689 720 730 679.5 c 128,-1,45
 771 639 771 639 771 581 c 2,0,-1
EndSplineSet
Substitution2: "'salt' Stylistic Alternatives in Latin lookup 2 subtable" S.alt
Substitution2: "'aalt' Access All Alternates in Latin lookup 0 subtable" S.alt
EndChar

StartChar: S.alt
Encoding: 65549 -1 57
Width: 812
Flags: MW
HStem: 0 132<46 627 46 627> 294 132<146.5 627 185 627> 588 132<183 766 185 766>
VStem: 46 132<433 581> 633 133<139 287>
CounterMasks: 1 e0
LayerCount: 2
Fore
SplineSet
185 426 m 2,0,-1
 627 426 l 2,1,2
 684 426 684 426 725 385.5 c 128,-1,3
 766 345 766 345 766 287 c 2,4,-1
 766 139 l 2,5,6
 766 81 766 81 725 40.5 c 128,-1,7
 684 0 684 0 627 0 c 2,8,-1
 46 0 l 1,9,-1
 46 132 l 1,10,-1
 627 132 l 2,11,12
 633 132 633 132 633 139 c 2,13,-1
 633 287 l 2,14,15
 633 294 633 294 627 294 c 2,16,-1
 185 294 l 2,17,18
 127 294 127 294 86.5 334.5 c 128,-1,19
 46 375 46 375 46 433 c 2,20,-1
 46 581 l 2,21,22
 46 639 46 639 86.5 679.5 c 128,-1,23
 127 720 127 720 185 720 c 2,24,-1
 766 720 l 1,25,-1
 766 588 l 1,26,-1
 185 588 l 2,27,28
 178 588 178 588 178 581 c 2,29,-1
 178 433 l 2,30,31
 178 426 178 426 185 426 c 2,0,-1
EndSplineSet
EndChar

StartChar: Scaron
Encoding: 352 352 58
Width: 822
Flags: MW
HStem: 0 132<151.5 632 190 632> 0 194<151.5 183 51 190 51 632> 294 132<151.5 632 190 632> 526 194<638 670 190 771 638 638> 588 132<188 632 190 632> 778 163<387 392 466 474 387 387>
VStem: 51 132<139 194 137 194 433 581> 638 133<139 287 526 581>
LayerCount: 2
Fore
SplineSet
771 581 m 2,0,-1
 771 526 l 1,1,-1
 638 526 l 1,2,-1
 638 581 l 2,3,4
 638 588 638 588 632 588 c 2,5,-1
 190 588 l 2,6,7
 183 588 183 588 183 581 c 2,8,-1
 183 433 l 2,9,10
 183 426 183 426 190 426 c 2,11,-1
 632 426 l 2,12,13
 689 426 689 426 730 385.5 c 128,-1,14
 771 345 771 345 771 287 c 2,15,-1
 771 139 l 2,16,17
 771 81 771 81 730 40.5 c 128,-1,18
 689 0 689 0 632 0 c 2,19,-1
 190 0 l 2,20,21
 132 0 132 0 91.5 40.5 c 128,-1,22
 51 81 51 81 51 139 c 2,23,-1
 51 194 l 1,24,-1
 183 194 l 1,25,-1
 183 139 l 2,26,27
 183 132 183 132 190 132 c 2,28,-1
 632 132 l 2,29,30
 638 132 638 132 638 139 c 2,31,-1
 638 287 l 2,32,33
 638 294 638 294 632 294 c 2,34,-1
 190 294 l 2,35,36
 132 294 132 294 91.5 334.5 c 128,-1,37
 51 375 51 375 51 433 c 2,38,-1
 51 581 l 2,39,40
 51 639 51 639 91.5 679.5 c 128,-1,41
 132 720 132 720 190 720 c 2,42,-1
 632 720 l 2,43,44
 689 720 689 720 730 679.5 c 128,-1,45
 771 639 771 639 771 581 c 2,0,-1
289 941 m 1,46,-1
 392 941 l 1,47,-1
 429 882 l 1,48,-1
 466 941 l 1,49,-1
 572 941 l 1,50,-1
 474 778 l 1,51,-1
 387 778 l 1,52,-1
 289 941 l 1,46,-1
EndSplineSet
EndChar

StartChar: T
Encoding: 84 84 59
Width: 759
Flags: MW
HStem: 0 21G<314 447 314 314> 588 132<20 314 20 740 447 740 447 447>
VStem: 314 133<0 588 0 588>
LayerCount: 2
Fore
SplineSet
20 720 m 1,0,-1
 740 720 l 1,1,-1
 740 588 l 1,2,-1
 447 588 l 1,3,-1
 447 0 l 1,4,-1
 314 0 l 1,5,-1
 314 588 l 1,6,-1
 20 588 l 1,7,-1
 20 720 l 1,0,-1
EndSplineSet
EndChar

StartChar: U
Encoding: 85 85 60
Width: 828
Flags: MW
HStem: 0 132<154.5 635 193 635> 700 20G<54 186 186 186 641 774 774 774>
VStem: 54 132<139 720> 641 133<139 720>
LayerCount: 2
Fore
SplineSet
641 139 m 2,0,-1
 641 720 l 1,1,-1
 774 720 l 1,2,-1
 774 139 l 2,3,4
 774 81 774 81 733 40.5 c 128,-1,5
 692 0 692 0 635 0 c 2,6,-1
 193 0 l 2,7,8
 135 0 135 0 94.5 40.5 c 128,-1,9
 54 81 54 81 54 139 c 2,10,-1
 54 720 l 1,11,-1
 186 720 l 1,12,-1
 186 139 l 2,13,14
 186 132 186 132 193 132 c 2,15,-1
 635 132 l 2,16,17
 641 132 641 132 641 139 c 2,0,-1
EndSplineSet
EndChar

StartChar: Uacute
Encoding: 218 218 61
Width: 828
Flags: MW
HStem: 0 132<154.5 635 193 635> 700 20G<54 186 186 186 641 774 774 774> 779 183<340 519 386 473>
VStem: 54 132<139 720> 641 133<139 720>
LayerCount: 2
Fore
SplineSet
641 139 m 2,0,-1
 641 720 l 1,1,-1
 774 720 l 1,2,-1
 774 139 l 2,3,4
 774 81 774 81 733 40.5 c 128,-1,5
 692 0 692 0 635 0 c 2,6,-1
 193 0 l 2,7,8
 135 0 135 0 94.5 40.5 c 128,-1,9
 54 81 54 81 54 139 c 2,10,-1
 54 720 l 1,11,-1
 186 720 l 1,12,-1
 186 139 l 2,13,14
 186 132 186 132 193 132 c 2,15,-1
 635 132 l 2,16,17
 641 132 641 132 641 139 c 2,0,-1
340 779 m 1,18,-1
 386 962 l 1,19,-1
 519 962 l 1,20,-1
 473 779 l 1,21,-1
 340 779 l 1,18,-1
EndSplineSet
EndChar

StartChar: Ucircumflex
Encoding: 219 219 62
Width: 828
Flags: MW
HStem: 0 132<154.5 635 193 635> 700 20G<54 186 186 186 641 774 774 774> 778 163<390 396 292 477 469 469 469 477 390 575>
VStem: 54 132<139 720> 641 133<139 720>
LayerCount: 2
Fore
SplineSet
641 139 m 2,0,-1
 641 720 l 1,1,-1
 774 720 l 1,2,-1
 774 139 l 2,3,4
 774 81 774 81 733 40.5 c 128,-1,5
 692 0 692 0 635 0 c 2,6,-1
 193 0 l 2,7,8
 135 0 135 0 94.5 40.5 c 128,-1,9
 54 81 54 81 54 139 c 2,10,-1
 54 720 l 1,11,-1
 186 720 l 1,12,-1
 186 139 l 2,13,14
 186 132 186 132 193 132 c 2,15,-1
 635 132 l 2,16,17
 641 132 641 132 641 139 c 2,0,-1
396 778 m 1,18,-1
 292 778 l 1,19,-1
 390 941 l 1,20,-1
 477 941 l 1,21,-1
 575 778 l 1,22,-1
 469 778 l 1,23,-1
 432 837 l 1,24,25
 426 828 426 828 414 807.5 c 128,-1,26
 402 787 402 787 396 778 c 1,18,-1
EndSplineSet
EndChar

StartChar: Udieresis
Encoding: 220 220 63
Width: 828
Flags: MW
HStem: 0 132<154.5 635 193 635> 700 20G<54 186 186 186 641 774 774 774> 779 132<275 406 275 406 446 578 275 446>
VStem: 54 132<139 720> 275 131<779 911 779 911> 446 132<779 911 779 911> 641 133<139 720>
LayerCount: 2
Fore
SplineSet
641 139 m 2,0,-1
 641 720 l 1,1,-1
 774 720 l 1,2,-1
 774 139 l 2,3,4
 774 81 774 81 733 40.5 c 128,-1,5
 692 0 692 0 635 0 c 2,6,-1
 193 0 l 2,7,8
 135 0 135 0 94.5 40.5 c 128,-1,9
 54 81 54 81 54 139 c 2,10,-1
 54 720 l 1,11,-1
 186 720 l 1,12,-1
 186 139 l 2,13,14
 186 132 186 132 193 132 c 2,15,-1
 635 132 l 2,16,17
 641 132 641 132 641 139 c 2,0,-1
578 911 m 1,18,-1
 578 779 l 1,19,-1
 446 779 l 1,20,-1
 446 911 l 1,21,-1
 578 911 l 1,18,-1
406 911 m 1,22,-1
 406 779 l 1,23,-1
 275 779 l 1,24,-1
 275 911 l 1,25,-1
 406 911 l 1,22,-1
EndSplineSet
EndChar

StartChar: Ugrave
Encoding: 217 217 64
Width: 828
Flags: MW
HStem: 0 132<154.5 635 193 635> 700 20G<54 186 186 186 641 774 774 774> 779 183<386 473 340 519 386 386>
VStem: 54 132<139 720> 641 133<139 720>
LayerCount: 2
Fore
SplineSet
641 139 m 2,0,-1
 641 720 l 1,1,-1
 774 720 l 1,2,-1
 774 139 l 2,3,4
 774 81 774 81 733 40.5 c 128,-1,5
 692 0 692 0 635 0 c 2,6,-1
 193 0 l 2,7,8
 135 0 135 0 94.5 40.5 c 128,-1,9
 54 81 54 81 54 139 c 2,10,-1
 54 720 l 1,11,-1
 186 720 l 1,12,-1
 186 139 l 2,13,14
 186 132 186 132 193 132 c 2,15,-1
 635 132 l 2,16,17
 641 132 641 132 641 139 c 2,0,-1
473 962 m 1,18,-1
 519 779 l 1,19,-1
 386 779 l 1,20,-1
 340 962 l 1,21,-1
 473 962 l 1,18,-1
EndSplineSet
EndChar

StartChar: V
Encoding: 86 86 65
Width: 1003
Flags: MW
HStem: 0 21G<451 570 451 451> 700 20G<35 188 188 188 833 986 986 986>
LayerCount: 2
Fore
SplineSet
511 160 m 1,0,-1
 833 720 l 1,1,-1
 986 720 l 1,2,-1
 570 0 l 1,3,-1
 451 0 l 1,4,-1
 35 720 l 1,5,-1
 188 720 l 1,6,-1
 511 160 l 1,0,-1
EndSplineSet
Substitution2: "'ss02' Style Set 2 in Latin lookup 5 subtable" V.alt2
Substitution2: "'ss01' Style Set 1 in Latin lookup 4 subtable" V.alt
Substitution2: "'salt' Stylistic Alternatives in Latin lookup 2 subtable" V.alt3
AlternateSubs2: "'aalt' Access All Alternates in Latin lookup 1 subtable" V.alt3 V.alt V.alt2
EndChar

StartChar: V.alt
Encoding: 57354 57354 66
Width: 774
Flags: MW
HStem: 0 21G<54 197 54 54> 700 20G<54 185 185 185 625 767 767 767>
VStem: 54 131<190 720 190 720 190 720>
LayerCount: 2
Fore
SplineSet
54 720 m 1,0,-1
 185 720 l 1,1,-1
 185 190 l 1,2,-1
 625 720 l 1,3,-1
 767 720 l 1,4,-1
 767 680 l 1,5,-1
 197 0 l 1,6,-1
 54 0 l 1,7,-1
 54 720 l 1,0,-1
EndSplineSet
EndChar

StartChar: V.alt2
Encoding: 65550 -1 67
Width: 774
Flags: MW
HStem: 0 21G<576 720 576 576> 700 20G<0 144 144 144 587 720 720 720>
VStem: 587 133<192 720 0 720>
LayerCount: 2
Fore
SplineSet
587 192 m 1,0,-1
 587 720 l 1,1,-1
 720 720 l 1,2,-1
 720 0 l 1,3,-1
 576 0 l 1,4,-1
 0 686 l 1,5,-1
 0 720 l 1,6,-1
 144 720 l 1,7,-1
 587 192 l 1,0,-1
EndSplineSet
EndChar

StartChar: V.alt3
Encoding: 65551 -1 68
Width: 827
Flags: MW
HStem: 0 132<153.5 640 192 640 192 773> 700 20G<53 185 185 185 640 773 773 773>
VStem: 53 132<139 720> 640 133<132 720 0 720>
LayerCount: 2
Fore
SplineSet
640 720 m 1,0,-1
 773 720 l 1,1,-1
 773 0 l 1,2,-1
 192 0 l 2,3,4
 134 0 134 0 93.5 40.5 c 128,-1,5
 53 81 53 81 53 139 c 2,6,-1
 53 720 l 1,7,-1
 185 720 l 1,8,-1
 185 139 l 2,9,10
 185 132 185 132 192 132 c 2,11,-1
 640 132 l 1,12,-1
 640 720 l 1,0,-1
EndSplineSet
EndChar

StartChar: W
Encoding: 87 87 69
Width: 1179
Flags: MW
HStem: 0 21G<297 400 297 297 774 878 774 774> 700 20G<35 175 175 175 523 652 652 652 1000 1140 1140 1140>
LayerCount: 2
Fore
SplineSet
1000 720 m 1,0,-1
 1140 720 l 1,1,-1
 878 0 l 1,2,-1
 774 0 l 1,3,-1
 587 511 l 1,4,-1
 400 0 l 1,5,-1
 297 0 l 1,6,-1
 35 720 l 1,7,-1
 175 720 l 1,8,-1
 349 245 l 1,9,-1
 523 720 l 1,10,-1
 652 720 l 1,11,-1
 826 245 l 1,12,-1
 1000 720 l 1,0,-1
EndSplineSet
Substitution2: "'ss02' Style Set 2 in Latin lookup 5 subtable" W.alt2
Substitution2: "'ss01' Style Set 1 in Latin lookup 4 subtable" W.alt
Substitution2: "'salt' Stylistic Alternatives in Latin lookup 2 subtable" W.alt4
AlternateSubs2: "'aalt' Access All Alternates in Latin lookup 1 subtable" W.alt4 W.alt W.alt2
EndChar

StartChar: W.alt
Encoding: 65552 -1 70
Width: 1149
Flags: MW
HStem: 0 21G<65 209 65 65 428 572 428 428> 700 20G<65 197 197 197 641 785 785 785 1004 1148 1148 1148>
VStem: 65 132<192 720 192 720 192 720> 428 133<192 262 262 262>
LayerCount: 2
Fore
SplineSet
1004 720 m 1,0,-1
 1148 720 l 1,1,-1
 1148 686 l 1,2,-1
 572 0 l 1,3,-1
 428 0 l 1,4,-1
 428 262 l 1,5,-1
 209 0 l 1,6,-1
 65 0 l 1,7,-1
 65 720 l 1,8,-1
 197 720 l 1,9,-1
 197 192 l 1,10,-1
 641 720 l 1,11,-1
 785 720 l 1,12,-1
 785 685 l 1,13,-1
 561 420 l 1,14,-1
 561 192 l 1,15,-1
 1004 720 l 1,0,-1
EndSplineSet
EndChar

StartChar: W.alt2
Encoding: 65553 -1 71
Width: 1131
Flags: MW
HStem: 0 21G<573 717 573 573 936 1080 936 936> 700 20G<-3 141 141 141 360 504 504 504 948 1080 1080 1080>
VStem: 584 133<192 261 0 420> 948 132<192 720 0 720>
LayerCount: 2
Fore
SplineSet
141 720 m 1,0,-1
 584 192 l 1,1,-1
 584 420 l 1,2,-1
 360 685 l 1,3,-1
 360 720 l 1,4,-1
 504 720 l 1,5,-1
 948 192 l 1,6,-1
 948 720 l 1,7,-1
 1080 720 l 1,8,-1
 1080 0 l 1,9,-1
 936 0 l 1,10,-1
 717 261 l 1,11,-1
 717 0 l 1,12,-1
 573 0 l 1,13,-1
 -3 686 l 1,14,-1
 -3 720 l 1,15,-1
 141 720 l 1,0,-1
EndSplineSet
EndChar

StartChar: W.alt3
Encoding: 65554 -1 72
Width: 1028
Flags: MW
HStem: 0 21G<54 198 54 54 822 822 822 966> 700 20G<54 186 186 186 833 966 966 966>
VStem: 54 132<191 720 191 720 191 720> 833 133<192 720 0 720>
LayerCount: 2
Fore
SplineSet
510 372 m 1,0,-1
 198 0 l 1,1,-1
 54 0 l 1,2,-1
 54 720 l 1,3,-1
 186 720 l 1,4,-1
 186 191 l 1,5,-1
 510 577 l 1,6,-1
 833 192 l 1,7,-1
 833 720 l 1,8,-1
 966 720 l 1,9,-1
 966 0 l 1,10,-1
 822 0 l 1,11,-1
 510 372 l 1,0,-1
EndSplineSet
EndChar

StartChar: W.alt4
Encoding: 65555 -1 73
Width: 1155
Flags: MW
HStem: 0 132<153.5 516 192 516 655 955> 700 20G<53 185 185 185 516 648 648 648 955 1088 1088 1088>
VStem: 53 132<139 720> 516 132<137 139 139 720> 955 133<132 720 0 720>
LayerCount: 2
Fore
SplineSet
192 0 m 2,0,1
 134 0 134 0 93.5 40.5 c 128,-1,2
 53 81 53 81 53 139 c 2,3,-1
 53 720 l 1,4,-1
 185 720 l 1,5,-1
 185 139 l 2,6,7
 185 132 185 132 192 132 c 2,8,-1
 516 132 l 1,9,-1
 516 720 l 1,10,-1
 648 720 l 1,11,-1
 648 139 l 2,12,13
 648 132 648 132 655 132 c 2,14,-1
 955 132 l 1,15,-1
 955 720 l 1,16,-1
 1088 720 l 1,17,-1
 1088 0 l 1,18,-1
 192 0 l 2,0,1
EndSplineSet
EndChar

StartChar: X
Encoding: 88 88 74
Width: 812
Flags: MW
HStem: 0 21G<46 191 46 46 621 766 621 621> 700 20G<46 191 191 191 621 766 766 766>
LayerCount: 2
Fore
SplineSet
621 720 m 1,0,-1
 766 720 l 1,1,-1
 766 685 l 1,2,-1
 492 360 l 1,3,-1
 766 35 l 1,4,-1
 766 0 l 1,5,-1
 621 0 l 1,6,-1
 406 255 l 1,7,-1
 191 0 l 1,8,-1
 46 0 l 1,9,-1
 46 35 l 1,10,-1
 319 360 l 1,11,-1
 46 685 l 1,12,-1
 46 720 l 1,13,-1
 191 720 l 1,14,-1
 406 465 l 1,15,-1
 621 720 l 1,0,-1
EndSplineSet
Substitution2: "'salt' Stylistic Alternatives in Latin lookup 2 subtable" X.alt
Substitution2: "'aalt' Access All Alternates in Latin lookup 0 subtable" X.alt
EndChar

StartChar: X.alt
Encoding: 65556 -1 75
Width: 829
Flags: MW
HStem: 0 21G<55 187 55 55 641 774 641 641> 291 132<193 194 194 635> 700 20G<54 186 186 186 642 775 775 775>
VStem: 54 132<449 720> 642 132
LayerCount: 2
Fore
SplineSet
642 720 m 1,0,-1
 775 720 l 1,1,-1
 775 449 l 2,2,3
 775 419 775 419 753.5 394.5 c 128,-1,4
 732 370 732 370 698 357 c 1,5,6
 732 343 732 343 753 319 c 128,-1,7
 774 295 774 295 774 265 c 2,8,-1
 774 0 l 1,9,-1
 641 0 l 1,10,-1
 641 284 l 2,11,12
 641 291 641 291 635 291 c 2,13,-1
 194 291 l 2,14,15
 187 291 187 291 187 284 c 2,16,-1
 187 0 l 1,17,-1
 55 0 l 1,18,-1
 55 265 l 2,19,20
 55 327 55 327 130 357 c 1,21,22
 54 386 54 386 54 449 c 2,23,-1
 54 720 l 1,24,-1
 186 720 l 1,25,-1
 186 430 l 2,26,27
 186 423 186 423 193 423 c 2,28,-1
 635 423 l 2,29,30
 642 423 642 423 642 430 c 2,31,-1
 642 720 l 1,0,-1
EndSplineSet
EndChar

StartChar: Y
Encoding: 89 89 76
Width: 806
Flags: MW
HStem: 0 21G<350 482 350 350> 700 20G<17 174 174 174 657 815 815 815>
VStem: 350 132<0 269 0 269>
LayerCount: 2
Fore
SplineSet
657 720 m 1,0,-1
 815 720 l 1,1,-1
 482 269 l 1,2,-1
 482 0 l 1,3,-1
 350 0 l 1,4,-1
 350 269 l 1,5,-1
 17 720 l 1,6,-1
 174 720 l 1,7,-1
 416 414 l 1,8,-1
 657 720 l 1,0,-1
EndSplineSet
Substitution2: "'salt' Stylistic Alternatives in Latin lookup 2 subtable" Y.alt
Substitution2: "'aalt' Access All Alternates in Latin lookup 0 subtable" Y.alt
EndChar

StartChar: Y.alt
Encoding: 65557 -1 77
Width: 824
Flags: MW
HStem: 0 132<51 632 51 632> 294 132<151.5 638 190 632> 700 20G<51 183 183 183 638 771 771 771>
VStem: 51 132<433 720> 638 133<139 287 287 289 426 720>
LayerCount: 2
Fore
SplineSet
638 720 m 1,0,-1
 771 720 l 1,1,-1
 771 139 l 2,2,3
 771 81 771 81 730 40.5 c 128,-1,4
 689 0 689 0 632 0 c 2,5,-1
 51 0 l 1,6,-1
 51 132 l 1,7,-1
 632 132 l 2,8,9
 638 132 638 132 638 139 c 2,10,-1
 638 287 l 2,11,12
 638 294 638 294 632 294 c 2,13,-1
 190 294 l 2,14,15
 132 294 132 294 91.5 334.5 c 128,-1,16
 51 375 51 375 51 433 c 2,17,-1
 51 720 l 1,18,-1
 183 720 l 1,19,-1
 183 433 l 2,20,21
 183 426 183 426 190 426 c 2,22,-1
 638 426 l 1,23,-1
 638 720 l 1,0,-1
EndSplineSet
EndChar

StartChar: Yacute
Encoding: 221 221 78
Width: 806
Flags: MW
HStem: 0 21G<350 482 350 350> 700 20G<17 174 174 174 657 815 815 815> 779 183<329 508 375 462>
VStem: 350 132<0 269 0 269>
LayerCount: 2
Fore
SplineSet
657 720 m 1,0,-1
 815 720 l 1,1,-1
 482 269 l 1,2,-1
 482 0 l 1,3,-1
 350 0 l 1,4,-1
 350 269 l 1,5,-1
 17 720 l 1,6,-1
 174 720 l 1,7,-1
 416 414 l 1,8,-1
 657 720 l 1,0,-1
329 779 m 1,9,-1
 375 962 l 1,10,-1
 508 962 l 1,11,-1
 462 779 l 1,12,-1
 329 779 l 1,9,-1
EndSplineSet
EndChar

StartChar: Ydieresis
Encoding: 376 376 79
Width: 806
Flags: MW
HStem: 0 21G<350 482 350 350> 700 20G<17 174 174 174 657 815 815 815> 779 132<264 395 264 395 435 567 264 435>
VStem: 264 131<779 911 779 911> 350 132<0 269 0 269> 435 132<779 911 779 911>
LayerCount: 2
Fore
SplineSet
657 720 m 1,0,-1
 815 720 l 1,1,-1
 482 269 l 1,2,-1
 482 0 l 1,3,-1
 350 0 l 1,4,-1
 350 269 l 1,5,-1
 17 720 l 1,6,-1
 174 720 l 1,7,-1
 416 414 l 1,8,-1
 657 720 l 1,0,-1
567 911 m 1,9,-1
 567 779 l 1,10,-1
 435 779 l 1,11,-1
 435 911 l 1,12,-1
 567 911 l 1,9,-1
395 911 m 1,13,-1
 395 779 l 1,14,-1
 264 779 l 1,15,-1
 264 911 l 1,16,-1
 395 911 l 1,13,-1
EndSplineSet
EndChar

StartChar: Z
Encoding: 90 90 80
Width: 821
Flags: MW
HStem: 0 132<243 771 243 771> 588 132<51 771 51 579>
LayerCount: 2
Fore
SplineSet
51 588 m 1,0,-1
 51 720 l 1,1,-1
 771 720 l 1,2,-1
 771 576 l 1,3,-1
 243 132 l 1,4,-1
 771 132 l 1,5,-1
 771 0 l 1,6,-1
 51 0 l 1,7,-1
 51 144 l 1,8,-1
 579 588 l 1,9,-1
 51 588 l 1,0,-1
EndSplineSet
Substitution2: "'salt' Stylistic Alternatives in Latin lookup 2 subtable" Z.alt
Substitution2: "'aalt' Access All Alternates in Latin lookup 0 subtable" Z.alt
EndChar

StartChar: Z.alt
Encoding: 65558 -1 81
Width: 818
Flags: MW
HStem: 0 132<149.5 769 188 769> 294 132<186 630 188 630> 588 132<49 630 49 630>
VStem: 49 132<139 287> 636 133<433 581>
CounterMasks: 1 e0
LayerCount: 2
Fore
SplineSet
188 426 m 2,0,-1
 630 426 l 2,1,2
 636 426 636 426 636 433 c 2,3,-1
 636 581 l 2,4,5
 636 588 636 588 630 588 c 2,6,-1
 49 588 l 1,7,-1
 49 720 l 1,8,-1
 630 720 l 2,9,10
 687 720 687 720 728 679.5 c 128,-1,11
 769 639 769 639 769 581 c 2,12,-1
 769 433 l 2,13,14
 769 375 769 375 728 334.5 c 128,-1,15
 687 294 687 294 630 294 c 2,16,-1
 188 294 l 2,17,18
 181 294 181 294 181 287 c 2,19,-1
 181 139 l 2,20,21
 181 132 181 132 188 132 c 2,22,-1
 769 132 l 1,23,-1
 769 0 l 1,24,-1
 188 0 l 2,25,26
 130 0 130 0 89.5 40.5 c 128,-1,27
 49 81 49 81 49 139 c 2,28,-1
 49 287 l 2,29,30
 49 345 49 345 89.5 385.5 c 128,-1,31
 130 426 130 426 188 426 c 2,0,-1
EndSplineSet
EndChar

StartChar: Zcaron
Encoding: 381 381 82
Width: 821
Flags: MW
HStem: 0 132<243 771 243 771> 588 132<51 771 51 579> 778 163<386 391 465 473 386 386>
LayerCount: 2
Fore
SplineSet
51 588 m 1,0,-1
 51 720 l 1,1,-1
 771 720 l 1,2,-1
 771 576 l 1,3,-1
 243 132 l 1,4,-1
 771 132 l 1,5,-1
 771 0 l 1,6,-1
 51 0 l 1,7,-1
 51 144 l 1,8,-1
 579 588 l 1,9,-1
 51 588 l 1,0,-1
288 941 m 1,10,-1
 391 941 l 1,11,-1
 428 882 l 1,12,-1
 465 941 l 1,13,-1
 571 941 l 1,14,-1
 473 778 l 1,15,-1
 386 778 l 1,16,-1
 288 941 l 1,10,-1
EndSplineSet
EndChar

StartChar: a
Encoding: 97 97 83
Width: 694
Flags: MW
HStem: 0 131<152 510 190 510 190 641> 224 132<183 510 183 183> 449 131<52 503 52 503>
VStem: 52 131<138 224 136 356> 510 131<131 224 224 224 356 442 0 444>
CounterMasks: 1 e0
LayerCount: 2
Fore
SplineSet
503 580 m 2,0,1
 560 580 560 580 600.5 539.5 c 128,-1,2
 641 499 641 499 641 442 c 2,3,-1
 641 0 l 1,4,-1
 190 0 l 2,5,6
 133 0 133 0 92.5 40.5 c 128,-1,7
 52 81 52 81 52 138 c 2,8,-1
 52 356 l 1,9,-1
 510 356 l 1,10,-1
 510 442 l 2,11,12
 510 449 510 449 503 449 c 2,13,-1
 52 449 l 1,14,-1
 52 580 l 1,15,-1
 503 580 l 2,0,1
510 131 m 1,16,-1
 510 224 l 1,17,-1
 183 224 l 1,18,-1
 183 138 l 2,19,20
 183 131 183 131 190 131 c 2,21,-1
 510 131 l 1,16,-1
EndSplineSet
Substitution2: "'smcp' Lowercase to Small Capitals in Latin lookup 3 subtable" a.sc
Substitution2: "'salt' Stylistic Alternatives in Latin lookup 2 subtable" a.alt
AlternateSubs2: "'aalt' Access All Alternates in Latin lookup 1 subtable" a.sc a.alt
EndChar

StartChar: a.alt
Encoding: 65559 -1 84
Width: 693
Flags: MW
HStem: 0 131<151 509 189 509 189 640> 449 131<187 502 189 502>
VStem: 51 131<138 442> 509 131<131 442 0 444>
LayerCount: 2
Fore
SplineSet
502 580 m 2,0,1
 559 580 559 580 599.5 539.5 c 128,-1,2
 640 499 640 499 640 442 c 2,3,-1
 640 0 l 1,4,-1
 189 0 l 2,5,6
 132 0 132 0 91.5 40.5 c 128,-1,7
 51 81 51 81 51 138 c 2,8,-1
 51 442 l 2,9,10
 51 499 51 499 91.5 539.5 c 128,-1,11
 132 580 132 580 189 580 c 2,12,-1
 502 580 l 2,0,1
189 131 m 2,13,-1
 509 131 l 1,14,-1
 509 442 l 2,15,16
 509 449 509 449 502 449 c 2,17,-1
 189 449 l 2,18,19
 182 449 182 449 182 442 c 2,20,-1
 182 138 l 2,21,22
 182 131 182 131 189 131 c 2,13,-1
EndSplineSet
EndChar

StartChar: a.sc
Encoding: 65560 -1 85
Width: 725
Flags: MW
HStem: 0 21G<53 184 53 53 540 671 540 540> 145 131<184 540 184 540> 449 131<189 533 191 533>
VStem: 53 131<0 145 276 442> 540 131<0 145 145 145 276 442 0 444>
LayerCount: 2
Fore
SplineSet
191 580 m 2,0,-1
 533 580 l 2,1,2
 590 580 590 580 630.5 539.5 c 128,-1,3
 671 499 671 499 671 442 c 2,4,-1
 671 0 l 1,5,-1
 540 0 l 1,6,-1
 540 145 l 1,7,-1
 184 145 l 1,8,-1
 184 0 l 1,9,-1
 53 0 l 1,10,-1
 53 442 l 2,11,12
 53 499 53 499 93.5 539.5 c 128,-1,13
 134 580 134 580 191 580 c 2,0,-1
184 276 m 1,14,-1
 540 276 l 1,15,-1
 540 442 l 2,16,17
 540 449 540 449 533 449 c 2,18,-1
 191 449 l 2,19,20
 184 449 184 449 184 442 c 2,21,-1
 184 276 l 1,14,-1
EndSplineSet
EndChar

StartChar: aacute
Encoding: 225 225 86
Width: 725
Flags: MW
HStem: 0 131<152 510 190 510 190 641> 224 132<183 510 183 183> 449 131<52 503 52 503> 677 183<288 467 334 421>
VStem: 52 131<138 224 136 356> 510 131<131 224 224 224 356 442 0 444>
LayerCount: 2
Fore
SplineSet
503 580 m 2,0,1
 560 580 560 580 600.5 539.5 c 128,-1,2
 641 499 641 499 641 442 c 2,3,-1
 641 0 l 1,4,-1
 190 0 l 2,5,6
 133 0 133 0 92.5 40.5 c 128,-1,7
 52 81 52 81 52 138 c 2,8,-1
 52 356 l 1,9,-1
 510 356 l 1,10,-1
 510 442 l 2,11,12
 510 449 510 449 503 449 c 2,13,-1
 52 449 l 1,14,-1
 52 580 l 1,15,-1
 503 580 l 2,0,1
510 131 m 1,16,-1
 510 224 l 1,17,-1
 183 224 l 1,18,-1
 183 138 l 2,19,20
 183 131 183 131 190 131 c 2,21,-1
 510 131 l 1,16,-1
288 677 m 1,22,-1
 334 860 l 1,23,-1
 467 860 l 1,24,-1
 421 677 l 1,25,-1
 288 677 l 1,22,-1
EndSplineSet
EndChar

StartChar: acircumflex
Encoding: 226 226 87
Width: 725
Flags: MW
HStem: 0 131<152 510 190 510 190 641> 224 132<183 510 183 183> 449 131<52 503 52 503> 677 163<338 344 240 425 417 417 417 425 338 523>
VStem: 52 131<138 224 136 356> 510 131<131 224 224 224 356 442 0 444>
LayerCount: 2
Fore
SplineSet
503 580 m 2,0,1
 560 580 560 580 600.5 539.5 c 128,-1,2
 641 499 641 499 641 442 c 2,3,-1
 641 0 l 1,4,-1
 190 0 l 2,5,6
 133 0 133 0 92.5 40.5 c 128,-1,7
 52 81 52 81 52 138 c 2,8,-1
 52 356 l 1,9,-1
 510 356 l 1,10,-1
 510 442 l 2,11,12
 510 449 510 449 503 449 c 2,13,-1
 52 449 l 1,14,-1
 52 580 l 1,15,-1
 503 580 l 2,0,1
510 131 m 1,16,-1
 510 224 l 1,17,-1
 183 224 l 1,18,-1
 183 138 l 2,19,20
 183 131 183 131 190 131 c 2,21,-1
 510 131 l 1,16,-1
344 677 m 1,22,-1
 240 677 l 1,23,-1
 338 840 l 1,24,-1
 425 840 l 1,25,-1
 523 677 l 1,26,-1
 417 677 l 1,27,-1
 380 736 l 1,28,29
 374 727 374 727 362 706.5 c 128,-1,30
 350 686 350 686 344 677 c 1,22,-1
EndSplineSet
EndChar

StartChar: acute
Encoding: 180 180 88
Width: 213
Flags: MW
HStem: 786 183<33 212 79 166>
LayerCount: 2
Fore
SplineSet
33 786 m 1,0,-1
 79 969 l 1,1,-1
 212 969 l 1,2,-1
 166 786 l 1,3,-1
 33 786 l 1,0,-1
EndSplineSet
EndChar

StartChar: adieresis
Encoding: 228 228 89
Width: 725
Flags: MW
HStem: 0 131<152 510 190 510 190 641> 224 132<183 510 183 183> 449 131<52 503 52 503> 677 132<223 354 223 354 394 526 223 394>
VStem: 52 131<138 224 136 356> 223 131<677 809 677 809> 394 132<677 809 677 809> 510 131<131 224 224 224 356 442 0 444>
LayerCount: 2
Fore
SplineSet
503 580 m 2,0,1
 560 580 560 580 600.5 539.5 c 128,-1,2
 641 499 641 499 641 442 c 2,3,-1
 641 0 l 1,4,-1
 190 0 l 2,5,6
 133 0 133 0 92.5 40.5 c 128,-1,7
 52 81 52 81 52 138 c 2,8,-1
 52 356 l 1,9,-1
 510 356 l 1,10,-1
 510 442 l 2,11,12
 510 449 510 449 503 449 c 2,13,-1
 52 449 l 1,14,-1
 52 580 l 1,15,-1
 503 580 l 2,0,1
510 131 m 1,16,-1
 510 224 l 1,17,-1
 183 224 l 1,18,-1
 183 138 l 2,19,20
 183 131 183 131 190 131 c 2,21,-1
 510 131 l 1,16,-1
526 809 m 1,22,-1
 526 677 l 1,23,-1
 394 677 l 1,24,-1
 394 809 l 1,25,-1
 526 809 l 1,22,-1
354 809 m 1,26,-1
 354 677 l 1,27,-1
 223 677 l 1,28,-1
 223 809 l 1,29,-1
 354 809 l 1,26,-1
EndSplineSet
EndChar

StartChar: ae
Encoding: 230 230 90
Width: 1178
Flags: MW
HStem: 0 131<152 511 190 511 649 1100> 224 132<184 511 184 184 642 969 53 642> 449 131<53 504 53 963 647 649 649 963>
VStem: 53 131<138 224 136 356> 511 131<134.5 136 136 224 134.5 224 356 442> 969 131<356 442>
CounterMasks: 1 fc
LayerCount: 2
Fore
SplineSet
963 580 m 2,0,1
 1020 580 1020 580 1060 539.5 c 128,-1,2
 1100 499 1100 499 1100 442 c 2,3,-1
 1100 224 l 1,4,-1
 642 224 l 1,5,-1
 642 136 l 2,6,7
 642 131 642 131 649 131 c 2,8,-1
 1100 131 l 1,9,-1
 1100 0 l 1,10,-1
 190 0 l 2,11,12
 133 0 133 0 93 40.5 c 128,-1,13
 53 81 53 81 53 138 c 2,14,-1
 53 356 l 1,15,-1
 511 356 l 1,16,-1
 511 442 l 2,17,18
 511 449 511 449 504 449 c 2,19,-1
 53 449 l 1,20,-1
 53 580 l 1,21,-1
 963 580 l 2,0,1
511 131 m 1,22,-1
 511 224 l 1,23,-1
 184 224 l 1,24,-1
 184 138 l 2,25,26
 184 131 184 131 190 131 c 2,27,-1
 511 131 l 1,22,-1
642 356 m 1,28,-1
 969 356 l 1,29,-1
 969 442 l 2,30,31
 969 449 969 449 963 449 c 2,32,-1
 649 449 l 2,33,34
 642 449 642 449 642 442 c 2,35,-1
 642 356 l 1,28,-1
EndSplineSet
EndChar

StartChar: agrave
Encoding: 224 224 91
Width: 725
Flags: MW
HStem: 0 131<152 510 190 510 190 641> 224 132<183 510 183 183> 449 131<52 503 52 503> 677 183<334 421 288 467 334 334>
VStem: 52 131<138 224 136 356> 510 131<131 224 224 224 356 442 0 444>
LayerCount: 2
Fore
SplineSet
503 580 m 2,0,1
 560 580 560 580 600.5 539.5 c 128,-1,2
 641 499 641 499 641 442 c 2,3,-1
 641 0 l 1,4,-1
 190 0 l 2,5,6
 133 0 133 0 92.5 40.5 c 128,-1,7
 52 81 52 81 52 138 c 2,8,-1
 52 356 l 1,9,-1
 510 356 l 1,10,-1
 510 442 l 2,11,12
 510 449 510 449 503 449 c 2,13,-1
 52 449 l 1,14,-1
 52 580 l 1,15,-1
 503 580 l 2,0,1
510 131 m 1,16,-1
 510 224 l 1,17,-1
 183 224 l 1,18,-1
 183 138 l 2,19,20
 183 131 183 131 190 131 c 2,21,-1
 510 131 l 1,16,-1
421 860 m 1,22,-1
 467 677 l 1,23,-1
 334 677 l 1,24,-1
 288 860 l 1,25,-1
 421 860 l 1,22,-1
EndSplineSet
EndChar

StartChar: ampersand
Encoding: 38 38 92
Width: 938
Flags: MW
HStem: -8 21G<887 887> 0 131<153 608 191 608 191 628> 521 199<606 633.5 229 737 606 606> 588 132<227 600 229 600>
VStem: 53 131<138 332> 91 131<476 581 457 582 457 620> 606 131<521 581 581 583> 635 131<249 358>
LayerCount: 2
Fore
SplineSet
766 195 m 1,0,-1
 887 124 l 1,1,-1
 887 -8 l 1,2,-1
 749 70 l 1,3,4
 732 38 732 38 699.5 19 c 128,-1,5
 667 0 667 0 628 0 c 2,6,-1
 191 0 l 2,7,8
 134 0 134 0 93.5 40.5 c 128,-1,9
 53 81 53 81 53 138 c 2,10,-1
 53 332 l 2,11,12
 53 354 53 354 66.5 379 c 128,-1,13
 80 404 80 404 103 414 c 1,14,15
 91 435 91 435 91 476 c 2,16,-1
 91 582 l 2,17,18
 91 639 91 639 131.5 679.5 c 128,-1,19
 172 720 172 720 229 720 c 2,20,-1
 600 720 l 2,21,22
 650 720 650 720 689.5 687.5 c 128,-1,23
 729 655 729 655 737 606 c 1,24,-1
 737 521 l 1,25,-1
 606 521 l 1,26,-1
 606 581 l 2,27,28
 606 588 606 588 600 588 c 2,29,-1
 229 588 l 2,30,31
 222 588 222 588 222 581 c 2,32,-1
 222 457 l 1,33,-1
 635 249 l 1,34,-1
 635 358 l 1,35,-1
 766 358 l 1,36,-1
 766 195 l 1,0,-1
191 131 m 2,37,-1
 608 131 l 1,38,-1
 198 338 l 1,39,-1
 191 338 l 2,40,41
 184 338 184 338 184 332 c 2,42,-1
 184 138 l 2,43,44
 184 131 184 131 191 131 c 2,37,-1
EndSplineSet
EndChar

StartChar: aring
Encoding: 229 229 93
Width: 725
Flags: MW
HStem: 0 131<152 510 190 510 190 641> 224 132<183 510 183 183> 449 131<52 503 52 503> 677 181<314 386 332 386>
VStem: 52 131<138 224 136 356> 267 184<742 793 724.5 810.5> 510 131<131 224 224 224 356 442 0 444>
LayerCount: 2
Fore
SplineSet
503 580 m 2,0,1
 560 580 560 580 600.5 539.5 c 128,-1,2
 641 499 641 499 641 442 c 2,3,-1
 641 0 l 1,4,-1
 190 0 l 2,5,6
 133 0 133 0 92.5 40.5 c 128,-1,7
 52 81 52 81 52 138 c 2,8,-1
 52 356 l 1,9,-1
 510 356 l 1,10,-1
 510 442 l 2,11,12
 510 449 510 449 503 449 c 2,13,-1
 52 449 l 1,14,-1
 52 580 l 1,15,-1
 503 580 l 2,0,1
510 131 m 1,16,-1
 510 224 l 1,17,-1
 183 224 l 1,18,-1
 183 138 l 2,19,20
 183 131 183 131 190 131 c 2,21,-1
 510 131 l 1,16,-1
332 858 m 2,22,-1
 386 858 l 2,23,24
 413 858 413 858 432 838.5 c 128,-1,25
 451 819 451 819 451 793 c 2,26,-1
 451 742 l 2,27,28
 451 716 451 716 432 696.5 c 128,-1,29
 413 677 413 677 386 677 c 2,30,-1
 332 677 l 2,31,32
 305 677 305 677 286 696.5 c 128,-1,33
 267 716 267 716 267 742 c 2,34,-1
 267 793 l 2,35,36
 267 819 267 819 286 838.5 c 128,-1,37
 305 858 305 858 332 858 c 2,22,-1
333 791 m 1,38,-1
 333 744 l 1,39,-1
 385 744 l 1,40,-1
 385 791 l 1,41,-1
 333 791 l 1,38,-1
EndSplineSet
EndChar

StartChar: asciitilde
Encoding: 126 126 94
Width: 404
Flags: MW
HStem: 221 156<94 315.5> 285 92<94 139.5>
LayerCount: 2
Fore
SplineSet
301 312 m 1,0,1
 349 312 349 312 388 338 c 1,2,-1
 388 242 l 1,3,4
 338 221 338 221 299 221 c 0,5,6
 263 221 263 221 201.5 253 c 128,-1,7
 140 285 140 285 103 285 c 0,8,9
 56 285 56 285 24 254 c 1,10,-1
 24 358 l 1,11,12
 67 377 67 377 109 377 c 0,13,14
 147 377 147 377 208 347 c 128,-1,15
 269 317 269 317 301 312 c 1,0,1
EndSplineSet
EndChar

StartChar: asterisk
Encoding: 42 42 95
Width: 491
Flags: MW
HStem: 287 21G<177 177 328 328> 699 20G<186 318 318 318>
VStem: 186 132<592 719 592 719 592 719>
LayerCount: 2
Fore
SplineSet
439 632 m 1,0,-1
 480 506 l 1,1,-1
 358 467 l 1,2,-1
 434 364 l 1,3,-1
 328 287 l 1,4,-1
 251 390 l 1,5,-1
 177 287 l 1,6,-1
 71 364 l 1,7,-1
 146 467 l 1,8,-1
 25 506 l 1,9,-1
 65 632 l 1,10,-1
 186 591 l 1,11,-1
 186 719 l 1,12,-1
 318 719 l 1,13,-1
 318 592 l 1,14,-1
 439 632 l 1,0,-1
EndSplineSet
EndChar

StartChar: at
Encoding: 64 64 96
Width: 831
Flags: MW
HStem: 0 131<157 770 195 770> 198 112<352 381 381 482 584 639> 427 102<350 447 381 447 447 476> 589 131<193 632 195 632>
VStem: 57 131<138 582> 243 102<336 392 392 421> 482 102<310 392 310 421 310 422.5> 639 131<310 582>
LayerCount: 2
Fore
SplineSet
381 529 m 2,0,-1
 447 529 l 2,1,2
 504 529 504 529 544 489 c 128,-1,3
 584 449 584 449 584 392 c 2,4,-1
 584 310 l 1,5,-1
 639 310 l 1,6,-1
 639 582 l 2,7,8
 639 589 639 589 632 589 c 2,9,-1
 195 589 l 2,10,11
 188 589 188 589 188 582 c 2,12,-1
 188 138 l 2,13,14
 188 131 188 131 195 131 c 2,15,-1
 770 131 l 1,16,-1
 770 0 l 1,17,-1
 195 0 l 2,18,19
 138 0 138 0 97.5 40.5 c 128,-1,20
 57 81 57 81 57 138 c 2,21,-1
 57 582 l 2,22,23
 57 639 57 639 97.5 679.5 c 128,-1,24
 138 720 138 720 195 720 c 2,25,-1
 632 720 l 2,26,27
 689 720 689 720 729.5 679.5 c 128,-1,28
 770 639 770 639 770 582 c 2,29,-1
 770 198 l 1,30,-1
 381 198 l 2,31,32
 324 198 324 198 283.5 238 c 128,-1,33
 243 278 243 278 243 336 c 2,34,-1
 243 392 l 2,35,36
 243 449 243 449 283.5 489 c 128,-1,37
 324 529 324 529 381 529 c 2,0,-1
352 310 m 2,38,-1
 482 310 l 1,39,-1
 482 421 l 2,40,41
 482 427 482 427 476 427 c 2,42,-1
 352 427 l 2,43,44
 345 427 345 427 345 421 c 2,45,-1
 345 317 l 2,46,47
 345 310 345 310 352 310 c 2,38,-1
EndSplineSet
EndChar

StartChar: atilde
Encoding: 227 227 97
Width: 725
Flags: MW
HStem: 0 131<152 510 190 510 190 641> 224 132<183 510 183 183> 449 131<52 503 52 503> 680 156<256 477.5> 745 91<256 259 259 271>
VStem: 52 131<138 224 136 356> 510 131<131 224 224 224 356 442 0 444>
LayerCount: 2
Fore
SplineSet
503 580 m 2,0,1
 560 580 560 580 600.5 539.5 c 128,-1,2
 641 499 641 499 641 442 c 2,3,-1
 641 0 l 1,4,-1
 190 0 l 2,5,6
 133 0 133 0 92.5 40.5 c 128,-1,7
 52 81 52 81 52 138 c 2,8,-1
 52 356 l 1,9,-1
 510 356 l 1,10,-1
 510 442 l 2,11,12
 510 449 510 449 503 449 c 2,13,-1
 52 449 l 1,14,-1
 52 580 l 1,15,-1
 503 580 l 2,0,1
510 131 m 1,16,-1
 510 224 l 1,17,-1
 183 224 l 1,18,-1
 183 138 l 2,19,20
 183 131 183 131 190 131 c 2,21,-1
 510 131 l 1,16,-1
463 771 m 1,22,23
 510 771 510 771 550 798 c 1,24,-1
 550 702 l 1,25,26
 498 680 498 680 461 680 c 0,27,28
 425 680 425 680 365 712.5 c 128,-1,29
 305 745 305 745 271 745 c 2,30,-1
 259 745 l 2,31,32
 215 745 215 745 186 707 c 1,33,-1
 186 818 l 1,34,35
 231 836 231 836 271 836 c 0,36,37
 310 836 310 836 370.5 805.5 c 128,-1,38
 431 775 431 775 463 771 c 1,22,23
EndSplineSet
EndChar

StartChar: b
Encoding: 98 98 98
Width: 667
Flags: MW
HStem: 0 131<192 505 192 505> 449 131<190 192 192 505> 750 20G<54 185 185 185>
VStem: 54 131<136 138 138 442 580 770> 512 131<138 442>
LayerCount: 2
Fore
SplineSet
505 580 m 2,0,1
 562 580 562 580 602.5 539.5 c 128,-1,2
 643 499 643 499 643 442 c 2,3,-1
 643 138 l 2,4,5
 643 81 643 81 602.5 40.5 c 128,-1,6
 562 0 562 0 505 0 c 2,7,-1
 54 0 l 1,8,-1
 54 770 l 1,9,-1
 185 770 l 1,10,-1
 185 580 l 1,11,-1
 505 580 l 2,0,1
512 138 m 2,12,-1
 512 442 l 2,13,14
 512 449 512 449 505 449 c 2,15,-1
 192 449 l 2,16,17
 185 449 185 449 185 442 c 2,18,-1
 185 138 l 2,19,20
 185 131 185 131 192 131 c 2,21,-1
 505 131 l 2,22,23
 512 131 512 131 512 138 c 2,12,-1
EndSplineSet
Substitution2: "'smcp' Lowercase to Small Capitals in Latin lookup 3 subtable" b.sc
Substitution2: "'aalt' Access All Alternates in Latin lookup 0 subtable" b.sc
EndChar

StartChar: b.sc
Encoding: 65561 -1 99
Width: 700
Flags: MW
HStem: 0 131<192 515 192 515> 222 131<190 486 192 486 486 488 192 515> 450 131<190 192 192 486>
VStem: 54 131<136 138 138 215 357.5 359 359 443> 493 131<359 443 350 445> 522 131<138 215 100 217>
LayerCount: 2
Fore
SplineSet
624 443 m 2,0,-1
 624 359 l 2,1,2
 624 332 624 332 615 309 c 1,3,4
 653 269 653 269 653 215 c 2,5,-1
 653 138 l 2,6,7
 653 81 653 81 612.5 40.5 c 128,-1,8
 572 0 572 0 515 0 c 2,9,-1
 54 0 l 1,10,-1
 54 581 l 1,11,-1
 486 581 l 2,12,13
 543 581 543 581 583.5 540.5 c 128,-1,14
 624 500 624 500 624 443 c 2,0,-1
486 450 m 2,15,-1
 192 450 l 2,16,17
 185 450 185 450 185 443 c 2,18,-1
 185 359 l 2,19,20
 185 353 185 353 192 353 c 2,21,-1
 486 353 l 2,22,23
 493 353 493 353 493 359 c 2,24,-1
 493 443 l 2,25,26
 493 450 493 450 486 450 c 2,15,-1
522 138 m 2,27,-1
 522 215 l 2,28,29
 522 222 522 222 515 222 c 2,30,-1
 192 222 l 2,31,32
 185 222 185 222 185 215 c 2,33,-1
 185 138 l 2,34,35
 185 131 185 131 192 131 c 2,36,-1
 515 131 l 2,37,38
 522 131 522 131 522 138 c 2,27,-1
EndSplineSet
EndChar

StartChar: backslash
Encoding: 92 92 100
Width: 520
Flags: MW
HStem: 0 21G<483 518 483 483> 700 20G<5 40 40 40>
LayerCount: 2
Fore
SplineSet
5 720 m 1,0,-1
 40 720 l 1,1,-1
 518 141 l 1,2,-1
 518 0 l 1,3,-1
 483 0 l 1,4,-1
 5 579 l 1,5,-1
 5 720 l 1,0,-1
EndSplineSet
EndChar

StartChar: bar
Encoding: 124 124 101
Width: 214
Flags: MW
HStem: -104 21G<54 54 54 185> 796 20G<54 185 185 185>
VStem: 54 131<-104 816 -104 816>
LayerCount: 2
Fore
SplineSet
54 -104 m 1,0,-1
 54 816 l 1,1,-1
 185 816 l 1,2,-1
 185 -104 l 1,3,-1
 54 -104 l 1,0,-1
EndSplineSet
EndChar

StartChar: braceleft
Encoding: 123 123 102
Width: 289
Flags: MW
HStem: 0 21G<164.5 203 203 257> 700 20G<203 257 257 257>
VStem: 23 173<306 318 411 425 425 425> 65 131<138 281 281 281 448 582> 65 192<0 281 0 281 589 620>
LayerCount: 2
Fore
SplineSet
196 318 m 1,0,-1
 196 138 l 2,1,2
 196 131 196 131 203 131 c 2,3,-1
 257 131 l 1,4,-1
 257 0 l 1,5,-1
 203 0 l 2,6,7
 145 0 145 0 105 40.5 c 128,-1,8
 65 81 65 81 65 138 c 2,9,-1
 65 281 l 1,10,11
 58 285 58 285 43 294.5 c 128,-1,12
 28 304 28 304 23 306 c 1,13,-1
 23 425 l 1,14,-1
 65 448 l 1,15,-1
 65 582 l 2,16,17
 65 639 65 639 105 679.5 c 128,-1,18
 145 720 145 720 203 720 c 2,19,-1
 257 720 l 1,20,-1
 257 589 l 1,21,-1
 203 589 l 2,22,23
 196 589 196 589 196 582 c 2,24,-1
 196 411 l 1,25,-1
 139 365 l 1,26,-1
 196 318 l 1,0,-1
EndSplineSet
EndChar

StartChar: braceright
Encoding: 125 125 103
Width: 289
Flags: MW
HStem: 0 21G<51 105 51 51> 700 20G<51 105 105 143>
VStem: 51 192<100 131 131 131> 112 131<138 281 453 582> 112 173<306 318 318 318 411 424 306 582 306 584>
LayerCount: 2
Fore
SplineSet
112 138 m 2,0,-1
 112 318 l 1,1,-1
 169 365 l 1,2,-1
 112 411 l 1,3,-1
 112 582 l 2,4,5
 112 589 112 589 105 589 c 2,6,-1
 51 589 l 1,7,-1
 51 720 l 1,8,-1
 105 720 l 2,9,10
 162 720 162 720 202.5 679.5 c 128,-1,11
 243 639 243 639 243 582 c 2,12,-1
 243 453 l 1,13,14
 250 449 250 449 264.5 438 c 128,-1,15
 279 427 279 427 285 424 c 1,16,-1
 285 306 l 1,17,-1
 243 281 l 1,18,-1
 243 138 l 2,19,20
 243 81 243 81 202.5 40.5 c 128,-1,21
 162 0 162 0 105 0 c 2,22,-1
 51 0 l 1,23,-1
 51 131 l 1,24,-1
 105 131 l 2,25,26
 112 131 112 131 112 138 c 2,0,-1
EndSplineSet
EndChar

StartChar: bracketleft
Encoding: 91 91 104
Width: 275
Flags: MW
HStem: 0 131<185 246 185 246> 589 131<185 246 185 185>
VStem: 54 131<131 589 131 720> 54 192<0 131 589 720>
LayerCount: 2
Fore
SplineSet
54 0 m 1,0,-1
 54 720 l 1,1,-1
 246 720 l 1,2,-1
 246 589 l 1,3,-1
 185 589 l 1,4,-1
 185 131 l 1,5,-1
 246 131 l 1,6,-1
 246 0 l 1,7,-1
 54 0 l 1,0,-1
EndSplineSet
EndChar

StartChar: bracketright
Encoding: 93 93 105
Width: 276
Flags: MW
HStem: 0 131<51 111 51 243 51 111> 589 131<51 243 51 111>
VStem: 51 192<0 131 131 131 589 720 0 720> 111 132<131 589 589 589>
LayerCount: 2
Fore
SplineSet
51 589 m 1,0,-1
 51 720 l 1,1,-1
 243 720 l 1,2,-1
 243 0 l 1,3,-1
 51 0 l 1,4,-1
 51 131 l 1,5,-1
 111 131 l 1,6,-1
 111 589 l 1,7,-1
 51 589 l 1,0,-1
EndSplineSet
EndChar

StartChar: breve
Encoding: 728 728 106
Width: 287
Flags: MW
HStem: 786 78<117 128 128 177> 786 109<102.5 117 40 128 40 177>
VStem: 40 225<874 895 850 895>
LayerCount: 2
Fore
SplineSet
189 895 m 1,0,-1
 265 895 l 1,1,-1
 265 874 l 2,2,3
 265 837 265 837 240 811.5 c 128,-1,4
 215 786 215 786 177 786 c 2,5,-1
 128 786 l 2,6,7
 90 786 90 786 65 811.5 c 128,-1,8
 40 837 40 837 40 874 c 2,9,-1
 40 895 l 1,10,-1
 117 895 l 1,11,-1
 117 864 l 1,12,-1
 189 864 l 1,13,-1
 189 895 l 1,0,-1
EndSplineSet
EndChar

StartChar: bullet
Encoding: 8226 8226 107
Width: 371
Flags: MW
HStem: 293 127<154.5 194 172 194>
VStem: 118 131<347 366 329.5 383.5>
LayerCount: 2
Fore
SplineSet
172 420 m 2,0,-1
 194 420 l 2,1,2
 249 420 249 420 249 366 c 2,3,-1
 249 347 l 2,4,5
 249 293 249 293 194 293 c 2,6,-1
 172 293 l 2,7,8
 118 293 118 293 118 347 c 2,9,-1
 118 366 l 2,10,11
 118 420 118 420 172 420 c 2,0,-1
EndSplineSet
EndChar

StartChar: c
Encoding: 99 99 108
Width: 695
Flags: MW
HStem: 0 131<151 640 189 640> 449 131<187 638 189 638>
VStem: 51 131<138 442>
LayerCount: 2
Fore
SplineSet
189 131 m 2,0,-1
 640 131 l 1,1,-1
 640 0 l 1,2,-1
 189 0 l 2,3,4
 132 0 132 0 91.5 40.5 c 128,-1,5
 51 81 51 81 51 138 c 2,6,-1
 51 442 l 2,7,8
 51 499 51 499 91.5 539.5 c 128,-1,9
 132 580 132 580 189 580 c 2,10,-1
 638 580 l 1,11,-1
 638 449 l 1,12,-1
 189 449 l 2,13,14
 182 449 182 449 182 442 c 2,15,-1
 182 138 l 2,16,17
 182 131 182 131 189 131 c 2,0,-1
EndSplineSet
Substitution2: "'smcp' Lowercase to Small Capitals in Latin lookup 3 subtable" c.sc
Substitution2: "'aalt' Access All Alternates in Latin lookup 0 subtable" c.sc
EndChar

StartChar: c.sc
Encoding: 65562 -1 109
Width: 693
Flags: MW
HStem: 0 131<151 638 189 638> 450 131<187 638 189 638>
VStem: 51 131<138 443>
LayerCount: 2
Fore
SplineSet
638 450 m 1,0,-1
 189 450 l 2,1,2
 182 450 182 450 182 443 c 2,3,-1
 182 138 l 2,4,5
 182 131 182 131 189 131 c 2,6,-1
 638 131 l 1,7,-1
 638 0 l 1,8,-1
 189 0 l 2,9,10
 132 0 132 0 91.5 40.5 c 128,-1,11
 51 81 51 81 51 138 c 2,12,-1
 51 443 l 2,13,14
 51 500 51 500 91.5 540.5 c 128,-1,15
 132 581 132 581 189 581 c 2,16,-1
 638 581 l 1,17,-1
 638 450 l 1,0,-1
EndSplineSet
EndChar

StartChar: caron
Encoding: 711 711 110
Width: 297
Flags: MW
HStem: 785 163<125 130 204 212 125 125>
LayerCount: 2
Fore
SplineSet
27 948 m 1,0,-1
 130 948 l 1,1,-1
 167 889 l 1,2,-1
 204 948 l 1,3,-1
 310 948 l 1,4,-1
 212 785 l 1,5,-1
 125 785 l 1,6,-1
 27 948 l 1,0,-1
EndSplineSet
EndChar

StartChar: ccedilla
Encoding: 231 231 111
Width: 693
Flags: MW
HStem: -154 21G<262 395 262 262> 0 131<151 640 189 300 433 640 433 433> 449 131<187 638 189 638>
VStem: 51 131<138 442>
LayerCount: 2
Fore
SplineSet
189 131 m 2,0,-1
 640 131 l 1,1,-1
 640 0 l 1,2,-1
 433 0 l 1,3,-1
 395 -154 l 1,4,-1
 262 -154 l 1,5,-1
 300 0 l 1,6,-1
 189 0 l 2,7,8
 132 0 132 0 91.5 40.5 c 128,-1,9
 51 81 51 81 51 138 c 2,10,-1
 51 442 l 2,11,12
 51 499 51 499 91.5 539.5 c 128,-1,13
 132 580 132 580 189 580 c 2,14,-1
 638 580 l 1,15,-1
 638 449 l 1,16,-1
 189 449 l 2,17,18
 182 449 182 449 182 442 c 2,19,-1
 182 138 l 2,20,21
 182 131 182 131 189 131 c 2,0,-1
EndSplineSet
EndChar

StartChar: cedilla
Encoding: 184 184 112
Width: 213
Flags: MW
HStem: -154 183<33 212 79 166>
LayerCount: 2
Fore
SplineSet
33 -154 m 1,0,-1
 79 29 l 1,1,-1
 212 29 l 1,2,-1
 166 -154 l 1,3,-1
 33 -154 l 1,0,-1
EndSplineSet
EndChar

StartChar: cent
Encoding: 162 162 113
Width: 636
Flags: MW
HStem: -104 21G<292 424 292 292> 0 131<133 292 171 292 424 621> 458 132<169 292 171 292 424 621> 691 20G<292 424 424 424>
VStem: 33 131<138 452> 292 132<-104 0 -104 0 131 458 590 711>
LayerCount: 2
Fore
SplineSet
621 458 m 1,0,-1
 424 458 l 1,1,-1
 424 131 l 1,2,-1
 621 131 l 1,3,-1
 621 0 l 1,4,-1
 424 0 l 1,5,-1
 424 -104 l 1,6,-1
 292 -104 l 1,7,-1
 292 0 l 1,8,-1
 171 0 l 2,9,10
 114 0 114 0 73.5 40.5 c 128,-1,11
 33 81 33 81 33 138 c 2,12,-1
 33 452 l 2,13,14
 33 509 33 509 73.5 549.5 c 128,-1,15
 114 590 114 590 171 590 c 2,16,-1
 292 590 l 1,17,-1
 292 711 l 1,18,-1
 424 711 l 1,19,-1
 424 590 l 1,20,-1
 621 590 l 1,21,-1
 621 458 l 1,0,-1
292 131 m 1,22,-1
 292 458 l 1,23,-1
 171 458 l 2,24,25
 164 458 164 458 164 452 c 2,26,-1
 164 138 l 2,27,28
 164 131 164 131 171 131 c 2,29,-1
 292 131 l 1,22,-1
EndSplineSet
EndChar

StartChar: circumflex
Encoding: 710 710 114
Width: 300
Flags: MW
HStem: 785 163<126 132 28 213 205 205 205 213 126 311>
LayerCount: 2
Fore
SplineSet
132 785 m 1,0,-1
 28 785 l 1,1,-1
 126 948 l 1,2,-1
 213 948 l 1,3,-1
 311 785 l 1,4,-1
 205 785 l 1,5,-1
 168 844 l 1,6,7
 162 835 162 835 150 814.5 c 128,-1,8
 138 794 138 794 132 785 c 1,0,-1
EndSplineSet
EndChar

StartChar: colon
Encoding: 58 58 115
Width: 214
Flags: MW
HStem: 0 131<54 185 54 185> 456 132<54 185 54 185>
VStem: 54 131<0 131 0 131 456 588>
LayerCount: 2
Fore
SplineSet
54 131 m 1,0,-1
 185 131 l 1,1,-1
 185 0 l 1,2,-1
 54 0 l 1,3,-1
 54 131 l 1,0,-1
185 588 m 1,4,-1
 185 456 l 1,5,-1
 54 456 l 1,6,-1
 54 588 l 1,7,-1
 185 588 l 1,4,-1
EndSplineSet
EndChar

StartChar: comma
Encoding: 44 44 116
Width: 220
Flags: MW
HStem: -137 21G<54 54> 99 20G<54 185 185 185>
VStem: 54 131<-32.5 2 2 119 -32.5 119>
LayerCount: 2
Fore
SplineSet
54 119 m 1,0,-1
 185 119 l 1,1,-1
 185 2 l 2,2,3
 185 -49 185 -49 147.5 -88 c 128,-1,4
 110 -127 110 -127 54 -137 c 1,5,-1
 54 119 l 1,0,-1
EndSplineSet
EndChar

StartChar: d
Encoding: 100 100 117
Width: 667
Flags: MW
HStem: 0 131<123 475 161 475 475 477 161 613> 449 131<159 482 161 475> 750 20G<482 613 613 613>
VStem: 23 132<138 442> 482 131<138 442 442 444 580 770 0 770>
LayerCount: 2
Fore
SplineSet
482 770 m 1,0,-1
 613 770 l 1,1,-1
 613 0 l 1,2,-1
 161 0 l 2,3,4
 104 0 104 0 63.5 40.5 c 128,-1,5
 23 81 23 81 23 138 c 2,6,-1
 23 442 l 2,7,8
 23 499 23 499 63.5 539.5 c 128,-1,9
 104 580 104 580 161 580 c 2,10,-1
 482 580 l 1,11,-1
 482 770 l 1,0,-1
161 131 m 2,12,-1
 475 131 l 2,13,14
 482 131 482 131 482 138 c 2,15,-1
 482 442 l 2,16,17
 482 449 482 449 475 449 c 2,18,-1
 161 449 l 2,19,20
 155 449 155 449 155 442 c 2,21,-1
 155 138 l 2,22,23
 155 131 155 131 161 131 c 2,12,-1
EndSplineSet
Substitution2: "'smcp' Lowercase to Small Capitals in Latin lookup 3 subtable" d.sc
Substitution2: "'aalt' Access All Alternates in Latin lookup 0 subtable" d.sc
EndChar

StartChar: d.sc
Encoding: 65563 -1 118
Width: 705
Flags: MW
HStem: 0 131<192 515 192 515> 450 131<190 192 192 515>
VStem: 54 131<136 138 138 443> 522 131<138 443>
LayerCount: 2
Fore
SplineSet
54 581 m 1,0,-1
 515 581 l 2,1,2
 572 581 572 581 612.5 540.5 c 128,-1,3
 653 500 653 500 653 443 c 2,4,-1
 653 138 l 2,5,6
 653 81 653 81 612.5 40.5 c 128,-1,7
 572 0 572 0 515 0 c 2,8,-1
 54 0 l 1,9,-1
 54 581 l 1,0,-1
522 138 m 2,10,-1
 522 443 l 2,11,12
 522 450 522 450 515 450 c 2,13,-1
 192 450 l 2,14,15
 185 450 185 450 185 443 c 2,16,-1
 185 138 l 2,17,18
 185 131 185 131 192 131 c 2,19,-1
 515 131 l 2,20,21
 522 131 522 131 522 138 c 2,10,-1
EndSplineSet
EndChar

StartChar: degree
Encoding: 176 176 119
Width: 439
Flags: MW
HStem: 361 113<164 183 183 268> 601 112<162 268 183 268 268 287>
VStem: 45 112<499 575 575 594> 294 112<480 499 499 575 461 594 461 596>
LayerCount: 2
Fore
SplineSet
183 713 m 2,0,-1
 268 713 l 2,1,2
 325 713 325 713 365.5 672.5 c 128,-1,3
 406 632 406 632 406 575 c 2,4,-1
 406 499 l 2,5,6
 406 442 406 442 365.5 401.5 c 128,-1,7
 325 361 325 361 268 361 c 2,8,-1
 183 361 l 2,9,10
 126 361 126 361 85.5 401.5 c 128,-1,11
 45 442 45 442 45 499 c 2,12,-1
 45 575 l 2,13,14
 45 632 45 632 85.5 672.5 c 128,-1,15
 126 713 126 713 183 713 c 2,0,-1
164 474 m 2,16,-1
 287 474 l 2,17,18
 294 474 294 474 294 480 c 2,19,-1
 294 594 l 2,20,21
 294 601 294 601 287 601 c 2,22,-1
 164 601 l 2,23,24
 157 601 157 601 157 594 c 2,25,-1
 157 480 l 2,26,27
 157 474 157 474 164 474 c 2,16,-1
EndSplineSet
EndChar

StartChar: dieresis
Encoding: 168 168 120
Width: 385
Flags: MW
HStem: 786 132<54 185 54 185 225 357 54 225>
VStem: 54 131<786 918 786 918> 225 132<786 918 786 918>
LayerCount: 2
Fore
SplineSet
357 918 m 1,0,-1
 357 786 l 1,1,-1
 225 786 l 1,2,-1
 225 918 l 1,3,-1
 357 918 l 1,0,-1
185 918 m 1,4,-1
 185 786 l 1,5,-1
 54 786 l 1,6,-1
 54 918 l 1,7,-1
 185 918 l 1,4,-1
EndSplineSet
EndChar

StartChar: divide
Encoding: 247 247 121
Width: 502
Flags: MW
HStem: 1 131<201 332 201 332> 230 131<18 503 18 503> 457 132<201 332 201 332>
VStem: 201 131<1 132 1 132 457 589>
LayerCount: 2
Fore
SplineSet
503 361 m 1,0,-1
 503 230 l 1,1,-1
 18 230 l 1,2,-1
 18 361 l 1,3,-1
 503 361 l 1,0,-1
201 132 m 1,4,-1
 332 132 l 1,5,-1
 332 1 l 1,6,-1
 201 1 l 1,7,-1
 201 132 l 1,4,-1
332 589 m 1,8,-1
 332 457 l 1,9,-1
 201 457 l 1,10,-1
 201 589 l 1,11,-1
 332 589 l 1,8,-1
EndSplineSet
EndChar

StartChar: dollar
Encoding: 36 36 122
Width: 788
Flags: MW
HStem: -103 21G<325 456 325 325> 0 131<134 325 172 325 456 609> 0 192<134 165 34 172 34 325> 295 131<134 325 172 325 456 609> 528 192<616 647 616 616> 589 131<170 325 172 325 456 609> 803 20G<325 456 456 456>
VStem: 34 131<138 192 136 192 433 582> 325 131<-103 0 -103 0 131 295 426 589 720 823> 616 131<138 288 528 582>
CounterMasks: 1 01c0
LayerCount: 2
Fore
SplineSet
747 582 m 2,0,-1
 747 528 l 1,1,-1
 616 528 l 1,2,-1
 616 582 l 2,3,4
 616 589 616 589 609 589 c 2,5,-1
 456 589 l 1,6,-1
 456 426 l 1,7,-1
 609 426 l 2,8,9
 666 426 666 426 706.5 385.5 c 128,-1,10
 747 345 747 345 747 288 c 2,11,-1
 747 138 l 2,12,13
 747 81 747 81 706.5 40.5 c 128,-1,14
 666 0 666 0 609 0 c 2,15,-1
 456 0 l 1,16,-1
 456 -103 l 1,17,-1
 325 -103 l 1,18,-1
 325 0 l 1,19,-1
 172 0 l 2,20,21
 115 0 115 0 74.5 40.5 c 128,-1,22
 34 81 34 81 34 138 c 2,23,-1
 34 192 l 1,24,-1
 165 192 l 1,25,-1
 165 138 l 2,26,27
 165 131 165 131 172 131 c 2,28,-1
 325 131 l 1,29,-1
 325 295 l 1,30,-1
 172 295 l 2,31,32
 115 295 115 295 74.5 335.5 c 128,-1,33
 34 376 34 376 34 433 c 2,34,-1
 34 582 l 2,35,36
 34 639 34 639 74.5 679.5 c 128,-1,37
 115 720 115 720 172 720 c 2,38,-1
 325 720 l 1,39,-1
 325 823 l 1,40,-1
 456 823 l 1,41,-1
 456 720 l 1,42,-1
 609 720 l 2,43,44
 666 720 666 720 706.5 679.5 c 128,-1,45
 747 639 747 639 747 582 c 2,0,-1
609 295 m 2,46,-1
 456 295 l 1,47,-1
 456 131 l 1,48,-1
 609 131 l 2,49,50
 616 131 616 131 616 138 c 2,51,-1
 616 288 l 2,52,53
 616 295 616 295 609 295 c 2,46,-1
325 426 m 1,54,-1
 325 589 l 1,55,-1
 172 589 l 2,56,57
 165 589 165 589 165 582 c 2,58,-1
 165 433 l 2,59,60
 165 426 165 426 172 426 c 2,61,-1
 325 426 l 1,54,-1
EndSplineSet
EndChar

StartChar: dotaccent
Encoding: 729 729 123
Width: 233
Flags: MW
HStem: 787 162<93 145 111 145>
VStem: 45 166<852 884 834.5 901.5>
LayerCount: 2
Fore
SplineSet
111 949 m 2,0,-1
 145 949 l 2,1,2
 172 949 172 949 191.5 929.5 c 128,-1,3
 211 910 211 910 211 884 c 2,4,-1
 211 852 l 2,5,6
 211 826 211 826 191.5 806.5 c 128,-1,7
 172 787 172 787 145 787 c 2,8,-1
 111 787 l 2,9,10
 84 787 84 787 64.5 806.5 c 128,-1,11
 45 826 45 826 45 852 c 2,12,-1
 45 884 l 2,13,14
 45 910 45 910 64.5 929.5 c 128,-1,15
 84 949 84 949 111 949 c 2,0,-1
EndSplineSet
EndChar

StartChar: dotlessi
Encoding: 305 305 124
Width: 214
Flags: MW
HStem: 0 21G<52 52 52 183> 560 20G<52 183 183 183>
VStem: 52 131<0 580 0 580>
LayerCount: 2
Fore
SplineSet
52 0 m 1,0,-1
 52 580 l 1,1,-1
 183 580 l 1,2,-1
 183 0 l 1,3,-1
 52 0 l 1,0,-1
EndSplineSet
EndChar

StartChar: e
Encoding: 101 101 125
Width: 692
Flags: MW
HStem: 0 131<151 640 189 640> 224 132<182 509 182 640 182 509> 449 131<187 502 189 502>
VStem: 51 131<138 224 356 442> 509 131<356 442>
CounterMasks: 1 e0
LayerCount: 2
Fore
SplineSet
502 580 m 2,0,1
 559 580 559 580 599.5 539.5 c 128,-1,2
 640 499 640 499 640 442 c 2,3,-1
 640 224 l 1,4,-1
 182 224 l 1,5,-1
 182 138 l 2,6,7
 182 131 182 131 189 131 c 2,8,-1
 640 131 l 1,9,-1
 640 0 l 1,10,-1
 189 0 l 2,11,12
 132 0 132 0 91.5 40.5 c 128,-1,13
 51 81 51 81 51 138 c 2,14,-1
 51 442 l 2,15,16
 51 499 51 499 91.5 539.5 c 128,-1,17
 132 580 132 580 189 580 c 2,18,-1
 502 580 l 2,0,1
182 356 m 1,19,-1
 509 356 l 1,20,-1
 509 442 l 2,21,22
 509 449 509 449 502 449 c 2,23,-1
 189 449 l 2,24,25
 182 449 182 449 182 442 c 2,26,-1
 182 356 l 1,19,-1
EndSplineSet
Substitution2: "'smcp' Lowercase to Small Capitals in Latin lookup 3 subtable" e.sc
Substitution2: "'aalt' Access All Alternates in Latin lookup 0 subtable" e.sc
EndChar

StartChar: e.sc
Encoding: 65564 -1 126
Width: 638
Flags: MW
HStem: 0 131<185 586 185 586> 224 132<185 484 185 484> 450 131<185 586 185 185>
VStem: 54 131<131 224 356 450>
LayerCount: 2
Fore
SplineSet
586 581 m 1,0,-1
 586 450 l 1,1,-1
 185 450 l 1,2,-1
 185 356 l 1,3,-1
 484 356 l 1,4,-1
 484 224 l 1,5,-1
 185 224 l 1,6,-1
 185 131 l 1,7,-1
 586 131 l 1,8,-1
 586 0 l 1,9,-1
 54 0 l 1,10,-1
 54 581 l 1,11,-1
 586 581 l 1,0,-1
EndSplineSet
EndChar

StartChar: eacute
Encoding: 233 233 127
Width: 638
Flags: MW
HStem: 0 131<151 640 189 640> 224 132<182 509 182 640 182 509> 449 131<187 502 189 502> 678 183<245 424 291 378>
VStem: 51 131<138 224 356 442> 509 131<356 442>
LayerCount: 2
Fore
SplineSet
502 580 m 2,0,1
 559 580 559 580 599.5 539.5 c 128,-1,2
 640 499 640 499 640 442 c 2,3,-1
 640 224 l 1,4,-1
 182 224 l 1,5,-1
 182 138 l 2,6,7
 182 131 182 131 189 131 c 2,8,-1
 640 131 l 1,9,-1
 640 0 l 1,10,-1
 189 0 l 2,11,12
 132 0 132 0 91.5 40.5 c 128,-1,13
 51 81 51 81 51 138 c 2,14,-1
 51 442 l 2,15,16
 51 499 51 499 91.5 539.5 c 128,-1,17
 132 580 132 580 189 580 c 2,18,-1
 502 580 l 2,0,1
182 356 m 1,19,-1
 509 356 l 1,20,-1
 509 442 l 2,21,22
 509 449 509 449 502 449 c 2,23,-1
 189 449 l 2,24,25
 182 449 182 449 182 442 c 2,26,-1
 182 356 l 1,19,-1
245 678 m 1,27,-1
 291 861 l 1,28,-1
 424 861 l 1,29,-1
 378 678 l 1,30,-1
 245 678 l 1,27,-1
EndSplineSet
EndChar

StartChar: ecircumflex
Encoding: 234 234 128
Width: 638
Flags: MW
HStem: 0 131<151 640 189 640> 224 132<182 509 182 640 182 509> 449 131<187 502 189 502> 677 163<295 301 197 382 374 374 374 382 295 480>
VStem: 51 131<138 224 356 442> 509 131<356 442>
LayerCount: 2
Fore
SplineSet
502 580 m 2,0,1
 559 580 559 580 599.5 539.5 c 128,-1,2
 640 499 640 499 640 442 c 2,3,-1
 640 224 l 1,4,-1
 182 224 l 1,5,-1
 182 138 l 2,6,7
 182 131 182 131 189 131 c 2,8,-1
 640 131 l 1,9,-1
 640 0 l 1,10,-1
 189 0 l 2,11,12
 132 0 132 0 91.5 40.5 c 128,-1,13
 51 81 51 81 51 138 c 2,14,-1
 51 442 l 2,15,16
 51 499 51 499 91.5 539.5 c 128,-1,17
 132 580 132 580 189 580 c 2,18,-1
 502 580 l 2,0,1
182 356 m 1,19,-1
 509 356 l 1,20,-1
 509 442 l 2,21,22
 509 449 509 449 502 449 c 2,23,-1
 189 449 l 2,24,25
 182 449 182 449 182 442 c 2,26,-1
 182 356 l 1,19,-1
301 677 m 1,27,-1
 197 677 l 1,28,-1
 295 840 l 1,29,-1
 382 840 l 1,30,-1
 480 677 l 1,31,-1
 374 677 l 1,32,-1
 337 736 l 1,33,34
 331 727 331 727 319 706.5 c 128,-1,35
 307 686 307 686 301 677 c 1,27,-1
EndSplineSet
EndChar

StartChar: edieresis
Encoding: 235 235 129
Width: 638
Flags: MW
HStem: 0 131<151 640 189 640> 224 132<182 509 182 640 182 509> 449 131<187 502 189 502> 677 132<180 311 180 311 351 483 180 351>
VStem: 51 131<138 224 356 442> 180 131<677 809 677 809> 351 132<677 809 677 809> 509 131<356 442>
LayerCount: 2
Fore
SplineSet
502 580 m 2,0,1
 559 580 559 580 599.5 539.5 c 128,-1,2
 640 499 640 499 640 442 c 2,3,-1
 640 224 l 1,4,-1
 182 224 l 1,5,-1
 182 138 l 2,6,7
 182 131 182 131 189 131 c 2,8,-1
 640 131 l 1,9,-1
 640 0 l 1,10,-1
 189 0 l 2,11,12
 132 0 132 0 91.5 40.5 c 128,-1,13
 51 81 51 81 51 138 c 2,14,-1
 51 442 l 2,15,16
 51 499 51 499 91.5 539.5 c 128,-1,17
 132 580 132 580 189 580 c 2,18,-1
 502 580 l 2,0,1
182 356 m 1,19,-1
 509 356 l 1,20,-1
 509 442 l 2,21,22
 509 449 509 449 502 449 c 2,23,-1
 189 449 l 2,24,25
 182 449 182 449 182 442 c 2,26,-1
 182 356 l 1,19,-1
483 809 m 1,27,-1
 483 677 l 1,28,-1
 351 677 l 1,29,-1
 351 809 l 1,30,-1
 483 809 l 1,27,-1
311 809 m 1,31,-1
 311 677 l 1,32,-1
 180 677 l 1,33,-1
 180 809 l 1,34,-1
 311 809 l 1,31,-1
EndSplineSet
EndChar

StartChar: egrave
Encoding: 232 232 130
Width: 638
Flags: MW
HStem: 0 131<151 640 189 640> 224 132<182 509 182 640 182 509> 449 131<187 502 189 502> 677 183<291 378 245 424 291 291>
VStem: 51 131<138 224 356 442> 509 131<356 442>
LayerCount: 2
Fore
SplineSet
502 580 m 2,0,1
 559 580 559 580 599.5 539.5 c 128,-1,2
 640 499 640 499 640 442 c 2,3,-1
 640 224 l 1,4,-1
 182 224 l 1,5,-1
 182 138 l 2,6,7
 182 131 182 131 189 131 c 2,8,-1
 640 131 l 1,9,-1
 640 0 l 1,10,-1
 189 0 l 2,11,12
 132 0 132 0 91.5 40.5 c 128,-1,13
 51 81 51 81 51 138 c 2,14,-1
 51 442 l 2,15,16
 51 499 51 499 91.5 539.5 c 128,-1,17
 132 580 132 580 189 580 c 2,18,-1
 502 580 l 2,0,1
182 356 m 1,19,-1
 509 356 l 1,20,-1
 509 442 l 2,21,22
 509 449 509 449 502 449 c 2,23,-1
 189 449 l 2,24,25
 182 449 182 449 182 442 c 2,26,-1
 182 356 l 1,19,-1
378 860 m 1,27,-1
 424 677 l 1,28,-1
 291 677 l 1,29,-1
 245 860 l 1,30,-1
 378 860 l 1,27,-1
EndSplineSet
EndChar

StartChar: eight
Encoding: 56 56 131
Width: 834
Flags: MW
HStem: 0 131<157 632 195 632> 303 121<193 632 195 632> 588 132<193 632 195 632>
VStem: 57 131<138 297 441 581> 639 131<138 297 431 441 441 581 581 583>
LayerCount: 2
Fore
SplineSet
770 606 m 1,0,-1
 770 441 l 2,1,2
 770 399 770 399 750 369 c 1,3,4
 770 339 770 339 770 297 c 2,5,-1
 770 138 l 2,6,7
 770 81 770 81 729.5 40.5 c 128,-1,8
 689 0 689 0 632 0 c 2,9,-1
 195 0 l 2,10,11
 138 0 138 0 97.5 40.5 c 128,-1,12
 57 81 57 81 57 138 c 2,13,-1
 57 297 l 2,14,15
 57 337 57 337 77 369 c 1,16,17
 57 401 57 401 57 441 c 2,18,-1
 57 582 l 2,19,20
 57 639 57 639 97.5 679.5 c 128,-1,21
 138 720 138 720 195 720 c 2,22,-1
 632 720 l 2,23,24
 683 720 683 720 722.5 687.5 c 128,-1,25
 762 655 762 655 770 606 c 1,0,-1
639 138 m 2,26,-1
 639 297 l 2,27,28
 639 303 639 303 632 303 c 2,29,-1
 195 303 l 2,30,31
 188 303 188 303 188 297 c 2,32,-1
 188 138 l 2,33,34
 188 131 188 131 195 131 c 2,35,-1
 632 131 l 2,36,37
 639 131 639 131 639 138 c 2,26,-1
639 431 m 2,38,-1
 639 581 l 2,39,40
 639 588 639 588 632 588 c 2,41,-1
 195 588 l 2,42,43
 188 588 188 588 188 581 c 2,44,-1
 188 431 l 2,45,46
 188 424 188 424 195 424 c 2,47,-1
 632 424 l 2,48,49
 639 424 639 424 639 431 c 2,38,-1
EndSplineSet
EndChar

StartChar: ellipsis
Encoding: 8230 8230 132
Width: 574
Flags: MW
HStem: 0 131<54 185 54 185 234 366 54 234 415 546>
VStem: 54 131<0 131 0 131> 234 132<0 131 0 131> 415 131<0 131 0 131>
CounterMasks: 1 70
LayerCount: 2
Fore
SplineSet
366 131 m 1,0,-1
 366 0 l 1,1,-1
 234 0 l 1,2,-1
 234 131 l 1,3,-1
 366 131 l 1,0,-1
546 131 m 1,4,-1
 546 0 l 1,5,-1
 415 0 l 1,6,-1
 415 131 l 1,7,-1
 546 131 l 1,4,-1
185 131 m 1,8,-1
 185 0 l 1,9,-1
 54 0 l 1,10,-1
 54 131 l 1,11,-1
 185 131 l 1,8,-1
EndSplineSet
EndChar

StartChar: emdash
Encoding: 8212 8212 133
Width: 822
Flags: MW
HStem: 229 131<54 762 54 762>
LayerCount: 2
Fore
SplineSet
762 360 m 1,0,-1
 762 229 l 1,1,-1
 54 229 l 1,2,-1
 54 360 l 1,3,-1
 762 360 l 1,0,-1
EndSplineSet
EndChar

StartChar: endash
Encoding: 8211 8211 134
Width: 708
Flags: MW
HStem: 229 131<54 653 54 653>
LayerCount: 2
Fore
SplineSet
653 360 m 1,0,-1
 653 229 l 1,1,-1
 54 229 l 1,2,-1
 54 360 l 1,3,-1
 653 360 l 1,0,-1
EndSplineSet
EndChar

StartChar: equal
Encoding: 61 61 135
Width: 638
Flags: MW
HStem: 136 131<59 582 59 582> 317 131<59 582 59 582>
LayerCount: 2
Fore
SplineSet
582 267 m 1,0,-1
 582 136 l 1,1,-1
 59 136 l 1,2,-1
 59 267 l 1,3,-1
 582 267 l 1,0,-1
582 448 m 1,4,-1
 582 317 l 1,5,-1
 59 317 l 1,6,-1
 59 448 l 1,7,-1
 582 448 l 1,4,-1
EndSplineSet
EndChar

StartChar: exclam
Encoding: 33 33 136
Width: 220
Flags: MW
HStem: 0 131<58 189 58 189> 700 20G<58 189 189 189>
VStem: 58 131<0 131 197 720>
LayerCount: 2
Fore
SplineSet
189 0 m 1,0,-1
 58 0 l 1,1,-1
 58 131 l 1,2,-1
 189 131 l 1,3,-1
 189 0 l 1,0,-1
58 197 m 1,4,-1
 58 720 l 1,5,-1
 189 720 l 1,6,-1
 189 197 l 1,7,-1
 58 197 l 1,4,-1
EndSplineSet
EndChar

StartChar: exclamdown
Encoding: 161 161 137
Width: 210
Flags: MW
HStem: 0 21G<53 184 53 53> 589 131<53 184 53 184>
VStem: 53 131<0 523 589 720>
LayerCount: 2
Fore
SplineSet
184 720 m 1,0,-1
 184 589 l 1,1,-1
 53 589 l 1,2,-1
 53 720 l 1,3,-1
 184 720 l 1,0,-1
184 0 m 1,4,-1
 53 0 l 1,5,-1
 53 523 l 1,6,-1
 184 523 l 1,7,-1
 184 0 l 1,4,-1
EndSplineSet
EndChar

StartChar: f
Encoding: 102 102 138
Width: 437
Flags: MW
HStem: 0 21G<53 184 53 53> 449 131<184 410 184 410> 638 132<189 410 191 410>
VStem: 53 131<0 449 580 632>
LayerCount: 2
Fore
SplineSet
191 638 m 2,0,1
 184 638 184 638 184 632 c 2,2,-1
 184 580 l 1,3,-1
 410 580 l 1,4,-1
 410 449 l 1,5,-1
 184 449 l 1,6,-1
 184 0 l 1,7,-1
 53 0 l 1,8,-1
 53 632 l 2,9,10
 53 689 53 689 93 729.5 c 128,-1,11
 133 770 133 770 191 770 c 2,12,-1
 410 770 l 1,13,-1
 410 638 l 1,14,-1
 191 638 l 2,0,1
EndSplineSet
Substitution2: "'smcp' Lowercase to Small Capitals in Latin lookup 3 subtable" f.sc
Substitution2: "'aalt' Access All Alternates in Latin lookup 0 subtable" f.sc
EndChar

StartChar: f.sc
Encoding: 65565 -1 139
Width: 591
Flags: MW
HStem: 0 21G<54 185 54 54> 224 132<185 484 185 484> 450 131<185 586 185 185>
VStem: 54 131<0 224 356 450>
LayerCount: 2
Fore
SplineSet
54 581 m 1,0,-1
 586 581 l 1,1,-1
 586 450 l 1,2,-1
 185 450 l 1,3,-1
 185 356 l 1,4,-1
 484 356 l 1,5,-1
 484 224 l 1,6,-1
 185 224 l 1,7,-1
 185 0 l 1,8,-1
 54 0 l 1,9,-1
 54 581 l 1,0,-1
EndSplineSet
EndChar

StartChar: five
Encoding: 53 53 140
Width: 830
Flags: MW
HStem: 0 131<157 632 195 632> 0 192<157 188 57 195 57 632> 303 132<195 632 195 632> 589 131<193 195 195 770>
VStem: 57 131<138 192 136 192 439.5 441 441 582> 639 131<138 297>
LayerCount: 2
Fore
SplineSet
188 582 m 2,0,-1
 188 441 l 2,1,2
 188 435 188 435 195 435 c 2,3,-1
 632 435 l 2,4,5
 689 435 689 435 729.5 394.5 c 128,-1,6
 770 354 770 354 770 297 c 2,7,-1
 770 138 l 2,8,9
 770 81 770 81 729.5 40.5 c 128,-1,10
 689 0 689 0 632 0 c 2,11,-1
 195 0 l 2,12,13
 138 0 138 0 97.5 40.5 c 128,-1,14
 57 81 57 81 57 138 c 2,15,-1
 57 192 l 1,16,-1
 188 192 l 1,17,-1
 188 138 l 2,18,19
 188 131 188 131 195 131 c 2,20,-1
 632 131 l 2,21,22
 639 131 639 131 639 138 c 2,23,-1
 639 297 l 2,24,25
 639 303 639 303 632 303 c 2,26,-1
 57 303 l 1,27,-1
 57 720 l 1,28,-1
 770 720 l 1,29,-1
 770 589 l 1,30,-1
 195 589 l 2,31,32
 188 589 188 589 188 582 c 2,0,-1
EndSplineSet
EndChar

StartChar: four
Encoding: 52 52 141
Width: 730
Flags: MW
HStem: 0 21G<459 590 459 459> 181 131<210 459 210 459 590 691> 700 20G<467 590 590 590>
VStem: 459 131<0 181 0 181 312 514 514 514>
LayerCount: 2
Fore
SplineSet
590 312 m 1,0,-1
 691 312 l 1,1,-1
 691 181 l 1,2,-1
 590 181 l 1,3,-1
 590 0 l 1,4,-1
 459 0 l 1,5,-1
 459 181 l 1,6,-1
 6 181 l 1,7,-1
 6 304 l 1,8,-1
 467 720 l 1,9,-1
 590 720 l 1,10,-1
 590 312 l 1,0,-1
459 514 m 1,11,-1
 210 312 l 1,12,-1
 459 312 l 1,13,-1
 459 514 l 1,11,-1
EndSplineSet
Substitution2: "'ss03' Style Set 3 in Latin lookup 6 subtable" four.alt
Substitution2: "'aalt' Access All Alternates in Latin lookup 0 subtable" four.alt
EndChar

StartChar: four.alt
Encoding: 57351 57351 142
Width: 723
Flags: MW
HStem: 0 21G<462 593 462 462> 181 131<179 462 179 462 593 694> 700 20G<365 488 488 488>
VStem: 462 131<0 181 0 181 312 454>
LayerCount: 2
Fore
SplineSet
593 312 m 1,0,-1
 694 312 l 1,1,-1
 694 181 l 1,2,-1
 593 181 l 1,3,-1
 593 0 l 1,4,-1
 462 0 l 1,5,-1
 462 181 l 1,6,-1
 9 181 l 1,7,-1
 9 303 l 1,8,-1
 365 720 l 1,9,-1
 488 720 l 1,10,-1
 488 653 l 1,11,-1
 179 312 l 1,12,-1
 462 312 l 1,13,-1
 462 454 l 1,14,-1
 593 454 l 1,15,-1
 593 312 l 1,0,-1
EndSplineSet
EndChar

StartChar: g
Encoding: 103 103 143
Width: 683
Flags: MW
HStem: -230 132<138 493 138 493> 0 131<141 493 179 493 493 494.5 179 499> 449 131<177 493 179 493>
VStem: 41 131<138 442> 499 131<-92 0 0 0 138 442>
LayerCount: 2
Fore
SplineSet
630 -92 m 2,0,1
 630 -149 630 -149 590 -189.5 c 128,-1,2
 550 -230 550 -230 493 -230 c 2,3,-1
 138 -230 l 1,4,-1
 138 -98 l 1,5,-1
 493 -98 l 2,6,7
 499 -98 499 -98 499 -92 c 2,8,-1
 499 0 l 1,9,-1
 179 0 l 2,10,11
 122 0 122 0 81.5 40.5 c 128,-1,12
 41 81 41 81 41 138 c 2,13,-1
 41 442 l 2,14,15
 41 499 41 499 81.5 539.5 c 128,-1,16
 122 580 122 580 179 580 c 2,17,-1
 493 580 l 2,18,19
 550 580 550 580 590 539.5 c 128,-1,20
 630 499 630 499 630 442 c 2,21,-1
 630 -92 l 2,0,1
179 131 m 2,22,-1
 493 131 l 2,23,24
 499 131 499 131 499 138 c 2,25,-1
 499 442 l 2,26,27
 499 449 499 449 493 449 c 2,28,-1
 179 449 l 2,29,30
 172 449 172 449 172 442 c 2,31,-1
 172 138 l 2,32,33
 172 131 172 131 179 131 c 2,22,-1
EndSplineSet
Substitution2: "'smcp' Lowercase to Small Capitals in Latin lookup 3 subtable" g.sc
Substitution2: "'aalt' Access All Alternates in Latin lookup 0 subtable" g.sc
EndChar

StartChar: g.sc
Encoding: 65566 -1 144
Width: 690
Flags: MW
HStem: 0 131<151 502 189 502> 196 131<347 509 347 640> 412 169<509 540 189 640 509 509> 450 131<187 502 189 502>
VStem: 51 131<138 443> 509 131<138 196 196 196 412 443>
LayerCount: 2
Fore
SplineSet
640 443 m 2,0,-1
 640 412 l 1,1,-1
 509 412 l 1,2,-1
 509 443 l 2,3,4
 509 450 509 450 502 450 c 2,5,-1
 189 450 l 2,6,7
 182 450 182 450 182 443 c 2,8,-1
 182 138 l 2,9,10
 182 131 182 131 189 131 c 2,11,-1
 502 131 l 2,12,13
 509 131 509 131 509 138 c 2,14,-1
 509 196 l 1,15,-1
 347 196 l 1,16,-1
 347 327 l 1,17,-1
 640 327 l 1,18,-1
 640 138 l 2,19,20
 640 81 640 81 599.5 40.5 c 128,-1,21
 559 0 559 0 502 0 c 2,22,-1
 189 0 l 2,23,24
 132 0 132 0 91.5 40.5 c 128,-1,25
 51 81 51 81 51 138 c 2,26,-1
 51 443 l 2,27,28
 51 500 51 500 91.5 540.5 c 128,-1,29
 132 581 132 581 189 581 c 2,30,-1
 502 581 l 2,31,32
 559 581 559 581 599.5 540.5 c 128,-1,33
 640 500 640 500 640 443 c 2,0,-1
EndSplineSet
EndChar

StartChar: germandbls
Encoding: 223 223 145
Width: 833
Flags: MW
HStem: 0 131<57 632 273 632 273 632> 300 121<273 632 273 632> 581 132<193 632 195 632>
VStem: 57 131<0 574 0 575 0 613> 639 131<138 294 428 438 438 574 574 576>
LayerCount: 2
Fore
SplineSet
770 599 m 1,0,-1
 770 438 l 2,1,2
 770 396 770 396 750 366 c 1,3,4
 770 336 770 336 770 294 c 2,5,-1
 770 138 l 2,6,7
 770 81 770 81 729.5 40.5 c 128,-1,8
 689 0 689 0 632 0 c 2,9,-1
 273 0 l 1,10,-1
 273 131 l 1,11,-1
 632 131 l 2,12,13
 639 131 639 131 639 138 c 2,14,-1
 639 294 l 2,15,16
 639 300 639 300 632 300 c 2,17,-1
 273 300 l 1,18,-1
 273 421 l 1,19,-1
 632 421 l 2,20,21
 639 421 639 421 639 428 c 2,22,-1
 639 574 l 2,23,24
 639 581 639 581 632 581 c 2,25,-1
 195 581 l 2,26,27
 188 581 188 581 188 574 c 2,28,-1
 188 0 l 1,29,-1
 57 0 l 1,30,-1
 57 575 l 2,31,32
 57 632 57 632 97.5 672.5 c 128,-1,33
 138 713 138 713 195 713 c 2,34,-1
 632 713 l 2,35,36
 683 713 683 713 722.5 680.5 c 128,-1,37
 762 648 762 648 770 599 c 1,0,-1
EndSplineSet
EndChar

StartChar: grave
Encoding: 96 96 146
Width: 213
Flags: MW
HStem: 786 183<78 165 32 211 78 78>
LayerCount: 2
Fore
SplineSet
165 969 m 1,0,-1
 211 786 l 1,1,-1
 78 786 l 1,2,-1
 32 969 l 1,3,-1
 165 969 l 1,0,-1
EndSplineSet
EndChar

StartChar: greater
Encoding: 62 62 147
Width: 475
Flags: MW
HStem: -9 21G<59 59> 575 20G<59 59>
LayerCount: 2
Fore
SplineSet
59 -9 m 1,0,-1
 59 143 l 1,1,-1
 319 294 l 1,2,-1
 59 444 l 1,3,-1
 59 595 l 1,4,-1
 479 353 l 1,5,-1
 479 235 l 1,6,-1
 59 -9 l 1,0,-1
EndSplineSet
EndChar

StartChar: h
Encoding: 104 104 148
Width: 668
Flags: MW
HStem: 0 21G<54 185 54 54 512 643 512 512> 449 131<190 192 192 505> 750 20G<54 185 185 185>
VStem: 54 131<0 442 580 770> 512 131<0 442 0 444>
LayerCount: 2
Fore
SplineSet
505 580 m 2,0,1
 561 580 561 580 602 539.5 c 128,-1,2
 643 499 643 499 643 442 c 2,3,-1
 643 0 l 1,4,-1
 512 0 l 1,5,-1
 512 442 l 2,6,7
 512 449 512 449 505 449 c 2,8,-1
 192 449 l 2,9,10
 185 449 185 449 185 442 c 2,11,-1
 185 0 l 1,12,-1
 54 0 l 1,13,-1
 54 770 l 1,14,-1
 185 770 l 1,15,-1
 185 580 l 1,16,-1
 505 580 l 2,0,1
EndSplineSet
Substitution2: "'smcp' Lowercase to Small Capitals in Latin lookup 3 subtable" h.sc
Substitution2: "'aalt' Access All Alternates in Latin lookup 0 subtable" h.sc
EndChar

StartChar: h.sc
Encoding: 65567 -1 149
Width: 715
Flags: MW
HStem: 0 21G<54 185 54 54 528 660 528 528> 224 132<185 528 185 528> 560 20G<54 185 185 185 528 660 660 660>
VStem: 54 131<0 224 356 580> 528 132<0 224 224 224 356 580 0 580>
LayerCount: 2
Fore
SplineSet
528 580 m 1,0,-1
 660 580 l 1,1,-1
 660 0 l 1,2,-1
 528 0 l 1,3,-1
 528 224 l 1,4,-1
 185 224 l 1,5,-1
 185 0 l 1,6,-1
 54 0 l 1,7,-1
 54 580 l 1,8,-1
 185 580 l 1,9,-1
 185 356 l 1,10,-1
 528 356 l 1,11,-1
 528 580 l 1,0,-1
EndSplineSet
EndChar

StartChar: hyphen
Encoding: 45 45 150
Width: 517
Flags: MW
HStem: 230 131<59 468 59 468>
LayerCount: 2
Fore
SplineSet
468 361 m 1,0,-1
 468 230 l 1,1,-1
 59 230 l 1,2,-1
 59 361 l 1,3,-1
 468 361 l 1,0,-1
EndSplineSet
EndChar

StartChar: i
Encoding: 105 105 151
Width: 233
Flags: MW
HStem: 0 21G<52 52 52 183> 638 132<52 183 52 183>
VStem: 52 131<0 580 0 580 638 770>
LayerCount: 2
Fore
SplineSet
52 0 m 1,0,-1
 52 580 l 1,1,-1
 183 580 l 1,2,-1
 183 0 l 1,3,-1
 52 0 l 1,0,-1
52 770 m 1,4,-1
 183 770 l 1,5,-1
 183 638 l 1,6,-1
 52 638 l 1,7,-1
 52 770 l 1,4,-1
EndSplineSet
Substitution2: "'smcp' Lowercase to Small Capitals in Latin lookup 3 subtable" i.sc
Substitution2: "'aalt' Access All Alternates in Latin lookup 0 subtable" i.sc
EndChar

StartChar: i.sc
Encoding: 65568 -1 152
Width: 214
Flags: MW
HStem: 0 21G<54 54 54 185> 560 20G<54 185 185 185>
VStem: 54 131<0 580 0 580>
LayerCount: 2
Fore
SplineSet
54 0 m 1,0,-1
 54 580 l 1,1,-1
 185 580 l 1,2,-1
 185 0 l 1,3,-1
 54 0 l 1,0,-1
EndSplineSet
EndChar

StartChar: iacute
Encoding: 237 237 153
Width: 214
Flags: MW
HStem: 0 21G<51 51 51 182> 560 20G<51 182 182 182> 677 183<49 228 95 182>
VStem: 51 131<0 580 0 580>
LayerCount: 2
Fore
SplineSet
51 0 m 1,0,-1
 51 580 l 1,1,-1
 182 580 l 1,2,-1
 182 0 l 1,3,-1
 51 0 l 1,0,-1
49 677 m 1,4,-1
 95 860 l 1,5,-1
 228 860 l 1,6,-1
 182 677 l 1,7,-1
 49 677 l 1,4,-1
EndSplineSet
EndChar

StartChar: icircumflex
Encoding: 238 238 154
Width: 214
Flags: MW
HStem: 0 21G<51 51 51 182> 560 20G<51 182 182 182> 677 163<83 89 -15 170 162 162 162 170 83 268>
VStem: 51 131<0 580 0 580>
LayerCount: 2
Fore
SplineSet
51 0 m 1,0,-1
 51 580 l 1,1,-1
 182 580 l 1,2,-1
 182 0 l 1,3,-1
 51 0 l 1,0,-1
89 677 m 1,4,-1
 -15 677 l 1,5,-1
 83 840 l 1,6,-1
 170 840 l 1,7,-1
 268 677 l 1,8,-1
 162 677 l 1,9,-1
 125 736 l 1,10,11
 119 727 119 727 107 706.5 c 128,-1,12
 95 686 95 686 89 677 c 1,4,-1
EndSplineSet
EndChar

StartChar: idieresis
Encoding: 239 239 155
Width: 214
Flags: MW
HStem: 0 21G<55 55 55 186> 560 20G<55 186 186 186> 679 132<-32 99 -32 99 139 271 -32 139>
VStem: -32 131<679 811 679 811> 55 131<0 580 0 580> 139 132<679 811 679 811>
LayerCount: 2
Fore
SplineSet
55 0 m 1,0,-1
 55 580 l 1,1,-1
 186 580 l 1,2,-1
 186 0 l 1,3,-1
 55 0 l 1,0,-1
271 811 m 1,4,-1
 271 679 l 1,5,-1
 139 679 l 1,6,-1
 139 811 l 1,7,-1
 271 811 l 1,4,-1
99 811 m 1,8,-1
 99 679 l 1,9,-1
 -32 679 l 1,10,-1
 -32 811 l 1,11,-1
 99 811 l 1,8,-1
EndSplineSet
EndChar

StartChar: igrave
Encoding: 236 236 156
Width: 214
Flags: MW
HStem: 0 21G<56 56 56 187> 560 20G<56 187 187 187> 678 183<62 149 16 195 62 62>
VStem: 56 131<0 580 0 580>
LayerCount: 2
Fore
SplineSet
56 0 m 1,0,-1
 56 580 l 1,1,-1
 187 580 l 1,2,-1
 187 0 l 1,3,-1
 56 0 l 1,0,-1
149 861 m 1,4,-1
 195 678 l 1,5,-1
 62 678 l 1,6,-1
 16 861 l 1,7,-1
 149 861 l 1,4,-1
EndSplineSet
EndChar

StartChar: j
Encoding: 106 106 157
Width: 239
Flags: MW
HStem: -219 132<-187 63 -187 63> 638 132<70 201 70 201>
VStem: 70 131<-81 580 638 770>
LayerCount: 2
Fore
SplineSet
70 770 m 1,0,-1
 201 770 l 1,1,-1
 201 638 l 1,2,-1
 70 638 l 1,3,-1
 70 770 l 1,0,-1
201 580 m 1,4,-1
 201 -81 l 2,5,6
 201 -138 201 -138 160.5 -178.5 c 128,-1,7
 120 -219 120 -219 63 -219 c 2,8,-1
 -187 -219 l 1,9,-1
 -187 -87 l 1,10,-1
 63 -87 l 2,11,12
 70 -87 70 -87 70 -81 c 2,13,-1
 70 580 l 1,14,-1
 201 580 l 1,4,-1
EndSplineSet
Substitution2: "'smcp' Lowercase to Small Capitals in Latin lookup 3 subtable" j.sc
Substitution2: "'aalt' Access All Alternates in Latin lookup 0 subtable" j.sc
EndChar

StartChar: j.sc
Encoding: 65569 -1 158
Width: 657
Flags: MW
HStem: 0 131<105 466 143 466> 0 209<105 136 5 143 5 466> 560 20G<473 604 604 604>
VStem: 5 131<138 209 136 209> 473 131<138 580>
LayerCount: 2
Fore
SplineSet
473 138 m 2,0,-1
 473 580 l 1,1,-1
 604 580 l 1,2,-1
 604 138 l 2,3,4
 604 81 604 81 563.5 40.5 c 128,-1,5
 523 0 523 0 466 0 c 2,6,-1
 143 0 l 2,7,8
 86 0 86 0 45.5 40.5 c 128,-1,9
 5 81 5 81 5 138 c 2,10,-1
 5 209 l 1,11,-1
 136 209 l 1,12,-1
 136 138 l 2,13,14
 136 131 136 131 143 131 c 2,15,-1
 466 131 l 2,16,17
 473 131 473 131 473 138 c 2,0,-1
EndSplineSet
EndChar

StartChar: k
Encoding: 107 107 159
Width: 646
Flags: MW
HStem: 0 21G<54 185 54 54 495 636 495 495> 224 132<185 288 185 288> 750 20G<54 185 185 185>
VStem: 54 131<0 224 356 770>
LayerCount: 2
Fore
SplineSet
495 580 m 1,0,-1
 636 580 l 1,1,-1
 636 546 l 1,2,-1
 404 290 l 1,3,-1
 636 34 l 1,4,-1
 636 0 l 1,5,-1
 495 0 l 1,6,-1
 288 224 l 1,7,-1
 185 224 l 1,8,-1
 185 0 l 1,9,-1
 54 0 l 1,10,-1
 54 770 l 1,11,-1
 185 770 l 1,12,-1
 185 356 l 1,13,-1
 288 356 l 1,14,-1
 495 580 l 1,0,-1
EndSplineSet
Substitution2: "'smcp' Lowercase to Small Capitals in Latin lookup 3 subtable" k.sc
Substitution2: "'salt' Stylistic Alternatives in Latin lookup 2 subtable" k.alt
AlternateSubs2: "'aalt' Access All Alternates in Latin lookup 1 subtable" k.sc k.alt
EndChar

StartChar: k.alt
Encoding: 65570 -1 160
Width: 669
Flags: MW
HStem: 0 21G<54 185 54 54 512 643 512 512> 224 132<185 505 185 505> 749 20G<54 185 185 185>
VStem: 54 131<0 224 356 769> 512 131<0 218 0 220 362 580>
LayerCount: 2
Fore
SplineSet
643 580 m 1,0,-1
 643 362 l 2,1,2
 643 322 643 322 623 290 c 1,3,4
 643 258 643 258 643 218 c 2,5,-1
 643 0 l 1,6,-1
 512 0 l 1,7,-1
 512 218 l 2,8,9
 512 224 512 224 505 224 c 2,10,-1
 185 224 l 1,11,-1
 185 0 l 1,12,-1
 54 0 l 1,13,-1
 54 769 l 1,14,-1
 185 769 l 1,15,-1
 185 356 l 1,16,-1
 505 356 l 2,17,18
 512 356 512 356 512 362 c 2,19,-1
 512 580 l 1,20,-1
 643 580 l 1,0,-1
EndSplineSet
EndChar

StartChar: k.sc
Encoding: 65571 -1 161
Width: 682
Flags: MW
HStem: 0 21G<54 185 54 54 495 636 495 495> 224 132<185 288 185 288> 560 20G<54 185 185 185 495 636 636 636>
VStem: 54 131<0 224 356 580>
LayerCount: 2
Fore
SplineSet
495 580 m 1,0,-1
 636 580 l 1,1,-1
 636 546 l 1,2,-1
 404 290 l 1,3,-1
 636 34 l 1,4,-1
 636 0 l 1,5,-1
 495 0 l 1,6,-1
 288 224 l 1,7,-1
 185 224 l 1,8,-1
 185 0 l 1,9,-1
 54 0 l 1,10,-1
 54 580 l 1,11,-1
 185 580 l 1,12,-1
 185 356 l 1,13,-1
 288 356 l 1,14,-1
 495 580 l 1,0,-1
EndSplineSet
EndChar

StartChar: l
Encoding: 108 108 162
Width: 344
Flags: MW
HStem: 0 131<152 307 190 307> 750 20G<52 184 184 184>
VStem: 52 132<138 770>
LayerCount: 2
Fore
SplineSet
52 770 m 1,0,-1
 184 770 l 1,1,-1
 184 138 l 2,2,3
 184 131 184 131 190 131 c 2,4,-1
 307 131 l 1,5,-1
 307 0 l 1,6,-1
 190 0 l 2,7,8
 133 0 133 0 92.5 40.5 c 128,-1,9
 52 81 52 81 52 138 c 2,10,-1
 52 770 l 1,0,-1
EndSplineSet
Substitution2: "'smcp' Lowercase to Small Capitals in Latin lookup 3 subtable" l.sc
Substitution2: "'aalt' Access All Alternates in Latin lookup 0 subtable" l.sc
EndChar

StartChar: l.sc
Encoding: 65572 -1 163
Width: 659
Flags: MW
HStem: 0 131<185 653 185 653> 560 20G<54 185 185 185>
VStem: 54 131<131 580 131 580 131 580>
LayerCount: 2
Fore
SplineSet
54 0 m 1,0,-1
 54 580 l 1,1,-1
 185 580 l 1,2,-1
 185 131 l 1,3,-1
 653 131 l 1,4,-1
 653 0 l 1,5,-1
 54 0 l 1,0,-1
EndSplineSet
EndChar

StartChar: less
Encoding: 60 60 164
Width: 473
Flags: MW
HStem: -7 21G<424 424> 577 20G<424 424>
LayerCount: 2
Fore
SplineSet
163 296 m 1,0,-1
 424 145 l 1,1,-1
 424 -7 l 1,2,-1
 5 237 l 1,3,-1
 5 355 l 1,4,-1
 424 597 l 1,5,-1
 424 446 l 1,6,-1
 163 296 l 1,0,-1
EndSplineSet
EndChar

StartChar: m
Encoding: 109 109 165
Width: 978
Flags: MW
HStem: 0 21G<54 185 54 54 417 549 417 417 781 911 781 781> 449 131<190 192 192 411 553 555 555 773>
VStem: 54 131<0 442 0 580> 417 132<0 442 0 444> 781 130<0 442 0 444>
LayerCount: 2
Fore
SplineSet
773 580 m 2,0,1
 830 580 830 580 870.5 539.5 c 128,-1,2
 911 499 911 499 911 442 c 2,3,-1
 911 0 l 1,4,-1
 781 0 l 1,5,-1
 781 442 l 2,6,7
 781 449 781 449 773 449 c 2,8,-1
 555 449 l 2,9,10
 549 449 549 449 549 442 c 2,11,-1
 549 0 l 1,12,-1
 417 0 l 1,13,-1
 417 442 l 2,14,15
 417 449 417 449 411 449 c 2,16,-1
 192 449 l 2,17,18
 185 449 185 449 185 442 c 2,19,-1
 185 0 l 1,20,-1
 54 0 l 1,21,-1
 54 580 l 1,22,-1
 773 580 l 2,0,1
EndSplineSet
Substitution2: "'smcp' Lowercase to Small Capitals in Latin lookup 3 subtable" m.sc
Substitution2: "'aalt' Access All Alternates in Latin lookup 0 subtable" m.sc
EndChar

StartChar: m.sc
Encoding: 65573 -1 166
Width: 824
Flags: MW
HStem: 0 21G<54 185 54 54 632 764 632 632> 561 20G<54 198 198 198 619 764 764 764>
VStem: 54 131<0 392 0 581> 632 132<0 393 393 393>
LayerCount: 2
Fore
SplineSet
409 279 m 1,0,-1
 619 581 l 1,1,-1
 764 581 l 1,2,-1
 764 0 l 1,3,-1
 632 0 l 1,4,-1
 632 393 l 1,5,-1
 409 74 l 1,6,-1
 185 392 l 1,7,-1
 185 0 l 1,8,-1
 54 0 l 1,9,-1
 54 581 l 1,10,-1
 198 581 l 1,11,-1
 409 279 l 1,0,-1
EndSplineSet
EndChar

StartChar: minus
Encoding: 8722 8722 167
Width: 517
Flags: MW
HStem: 230 131<59 468 59 468>
LayerCount: 2
Fore
SplineSet
468 361 m 1,0,-1
 468 230 l 1,1,-1
 59 230 l 1,2,-1
 59 361 l 1,3,-1
 468 361 l 1,0,-1
EndSplineSet
EndChar

StartChar: multiply
Encoding: 215 215 168
Width: 546
Flags: MW
HStem: 86 21G<53 196 53 53 356 500 356 356> 493 20G<53 196 196 196 356 500 500 500>
LayerCount: 2
Fore
SplineSet
500 513 m 1,0,-1
 500 480 l 1,1,-1
 361 300 l 1,2,-1
 500 119 l 1,3,-1
 500 86 l 1,4,-1
 356 86 l 1,5,-1
 276 195 l 1,6,-1
 196 86 l 1,7,-1
 53 86 l 1,8,-1
 53 119 l 1,9,-1
 192 300 l 1,10,-1
 53 480 l 1,11,-1
 53 513 l 1,12,-1
 196 513 l 1,13,-1
 276 404 l 1,14,-1
 356 513 l 1,15,-1
 500 513 l 1,0,-1
EndSplineSet
EndChar

StartChar: n
Encoding: 110 110 169
Width: 696
Flags: MW
HStem: 0 21G<54 185 54 54 512 643 512 512> 449 131<190 192 192 505>
VStem: 54 131<0 442 0 580> 512 131<0 442 0 444>
LayerCount: 2
Fore
SplineSet
505 580 m 2,0,1
 562 580 562 580 602.5 539.5 c 128,-1,2
 643 499 643 499 643 442 c 2,3,-1
 643 0 l 1,4,-1
 512 0 l 1,5,-1
 512 442 l 2,6,7
 512 449 512 449 505 449 c 2,8,-1
 192 449 l 2,9,10
 185 449 185 449 185 442 c 2,11,-1
 185 0 l 1,12,-1
 54 0 l 1,13,-1
 54 580 l 1,14,-1
 505 580 l 2,0,1
EndSplineSet
Substitution2: "'smcp' Lowercase to Small Capitals in Latin lookup 3 subtable" n.sc
Substitution2: "'aalt' Access All Alternates in Latin lookup 0 subtable" n.sc
EndChar

StartChar: n.sc
Encoding: 65574 -1 170
Width: 708
Flags: MW
HStem: 0 21G<54 185 54 54 509 653 509 509> 560 20G<54 197 197 197 522 653 653 653>
VStem: 54 131<0 390 0 580> 522 131<192 580 0 580>
LayerCount: 2
Fore
SplineSet
522 192 m 1,0,-1
 522 580 l 1,1,-1
 653 580 l 1,2,-1
 653 0 l 1,3,-1
 509 0 l 1,4,-1
 185 390 l 1,5,-1
 185 0 l 1,6,-1
 54 0 l 1,7,-1
 54 580 l 1,8,-1
 197 580 l 1,9,-1
 522 192 l 1,0,-1
EndSplineSet
EndChar

StartChar: nine
Encoding: 57 57 171
Width: 828
Flags: MW
HStem: 0 131<156 190 190 628> 288 132<152 634 190 628> 589 131<188 628 190 628>
VStem: 52 132<426 582> 634 131<138 282 282 284 420 582>
LayerCount: 2
Fore
SplineSet
628 288 m 2,0,-1
 190 288 l 2,1,2
 133 288 133 288 92.5 328.5 c 128,-1,3
 52 369 52 369 52 426 c 2,4,-1
 52 582 l 2,5,6
 52 639 52 639 92.5 679.5 c 128,-1,7
 133 720 133 720 190 720 c 2,8,-1
 628 720 l 2,9,10
 685 720 685 720 725 679.5 c 128,-1,11
 765 639 765 639 765 582 c 2,12,-1
 765 138 l 2,13,14
 765 81 765 81 725 40.5 c 128,-1,15
 685 0 685 0 628 0 c 2,16,-1
 190 0 l 2,17,18
 139 0 139 0 100 37.5 c 128,-1,19
 61 75 61 75 51 131 c 1,20,-1
 628 131 l 2,21,22
 634 131 634 131 634 138 c 2,23,-1
 634 282 l 2,24,25
 634 288 634 288 628 288 c 2,0,-1
184 582 m 2,26,-1
 184 426 l 2,27,28
 184 420 184 420 190 420 c 2,29,-1
 634 420 l 1,30,-1
 634 582 l 2,31,32
 634 589 634 589 628 589 c 2,33,-1
 190 589 l 2,34,35
 184 589 184 589 184 582 c 2,26,-1
EndSplineSet
Substitution2: "'ss03' Style Set 3 in Latin lookup 6 subtable" nine.alt
Substitution2: "'aalt' Access All Alternates in Latin lookup 0 subtable" nine.alt
EndChar

StartChar: nine.alt
Encoding: 57347 57347 172
Width: 784
Flags: MW
HStem: 0 21G<594 725 594 594> 287 131<112 594 150 588> 587 131<148 588 150 588>
VStem: 12 132<424 580> 594 131<0 280 280 282 418 580 0 582>
LayerCount: 2
Fore
SplineSet
150 718 m 2,0,-1
 588 718 l 2,1,2
 645 718 645 718 685 677.5 c 128,-1,3
 725 637 725 637 725 580 c 2,4,-1
 725 0 l 1,5,-1
 594 0 l 1,6,-1
 594 280 l 2,7,8
 594 287 594 287 588 287 c 2,9,-1
 150 287 l 2,10,11
 93 287 93 287 52.5 327 c 128,-1,12
 12 367 12 367 12 424 c 2,13,-1
 12 580 l 2,14,15
 12 637 12 637 52.5 677.5 c 128,-1,16
 93 718 93 718 150 718 c 2,0,-1
594 418 m 1,17,-1
 594 580 l 2,18,19
 594 587 594 587 588 587 c 2,20,-1
 150 587 l 2,21,22
 144 587 144 587 144 580 c 2,23,-1
 144 424 l 2,24,25
 144 418 144 418 150 418 c 2,26,-1
 594 418 l 1,17,-1
EndSplineSet
EndChar

StartChar: ntilde
Encoding: 241 241 173
Width: 708
Flags: MW
HStem: 0 21G<54 185 54 54 512 643 512 512> 449 131<190 192 192 505> 679 156<248 469.5> 744 91<248 251 251 263>
VStem: 54 131<0 442 0 580> 512 131<0 442 0 444>
LayerCount: 2
Fore
SplineSet
505 580 m 2,0,1
 562 580 562 580 602.5 539.5 c 128,-1,2
 643 499 643 499 643 442 c 2,3,-1
 643 0 l 1,4,-1
 512 0 l 1,5,-1
 512 442 l 2,6,7
 512 449 512 449 505 449 c 2,8,-1
 192 449 l 2,9,10
 185 449 185 449 185 442 c 2,11,-1
 185 0 l 1,12,-1
 54 0 l 1,13,-1
 54 580 l 1,14,-1
 505 580 l 2,0,1
455 770 m 1,15,16
 502 770 502 770 542 797 c 1,17,-1
 542 701 l 1,18,19
 490 679 490 679 453 679 c 0,20,21
 417 679 417 679 357 711.5 c 128,-1,22
 297 744 297 744 263 744 c 2,23,-1
 251 744 l 2,24,25
 207 744 207 744 178 706 c 1,26,-1
 178 817 l 1,27,28
 223 835 223 835 263 835 c 0,29,30
 302 835 302 835 362.5 804.5 c 128,-1,31
 423 774 423 774 455 770 c 1,15,16
EndSplineSet
EndChar

StartChar: numbersign
Encoding: 35 35 174
Width: 797
Flags: MW
HStem: 0 21G<66 198 66 66 373 505 373 373> 160 131<32 115 32 155 287 422 32 246 594 728> 435 131<61 201 61 243 61 333 375 508 682 757> 700 20G<293 427 427 427 601 734 734 734>
LayerCount: 2
Fore
SplineSet
757 566 m 1,0,-1
 757 435 l 1,1,-1
 640 435 l 1,2,-1
 594 291 l 1,3,-1
 728 291 l 1,4,-1
 728 160 l 1,5,-1
 553 160 l 1,6,-1
 505 0 l 1,7,-1
 373 0 l 1,8,-1
 422 160 l 1,9,-1
 246 160 l 1,10,-1
 198 0 l 1,11,-1
 66 0 l 1,12,-1
 115 160 l 1,13,-1
 32 160 l 1,14,-1
 32 291 l 1,15,-1
 155 291 l 1,16,-1
 201 435 l 1,17,-1
 61 435 l 1,18,-1
 61 566 l 1,19,-1
 243 566 l 1,20,-1
 293 720 l 1,21,-1
 427 720 l 1,22,-1
 375 566 l 1,23,-1
 550 566 l 1,24,-1
 601 720 l 1,25,-1
 734 720 l 1,26,-1
 682 566 l 1,27,-1
 757 566 l 1,0,-1
287 291 m 1,28,-1
 462 291 l 1,29,-1
 508 435 l 1,30,-1
 333 435 l 1,31,-1
 287 291 l 1,28,-1
EndSplineSet
EndChar

StartChar: o
Encoding: 111 111 175
Width: 692
Flags: MW
HStem: 0 131<151 502 189 502> 449 131<187 502 189 502>
VStem: 51 131<138 442> 509 131<138 442>
LayerCount: 2
Fore
SplineSet
189 580 m 2,0,-1
 502 580 l 2,1,2
 559 580 559 580 599.5 539.5 c 128,-1,3
 640 499 640 499 640 442 c 2,4,-1
 640 138 l 2,5,6
 640 81 640 81 599.5 40.5 c 128,-1,7
 559 0 559 0 502 0 c 2,8,-1
 189 0 l 2,9,10
 132 0 132 0 91.5 40.5 c 128,-1,11
 51 81 51 81 51 138 c 2,12,-1
 51 442 l 2,13,14
 51 499 51 499 91.5 539.5 c 128,-1,15
 132 580 132 580 189 580 c 2,0,-1
502 449 m 2,16,-1
 189 449 l 2,17,18
 182 449 182 449 182 442 c 2,19,-1
 182 138 l 2,20,21
 182 131 182 131 189 131 c 2,22,-1
 502 131 l 2,23,24
 509 131 509 131 509 138 c 2,25,-1
 509 442 l 2,26,27
 509 449 509 449 502 449 c 2,16,-1
EndSplineSet
Substitution2: "'smcp' Lowercase to Small Capitals in Latin lookup 3 subtable" o.sc
Substitution2: "'aalt' Access All Alternates in Latin lookup 0 subtable" o.sc
EndChar

StartChar: o.sc
Encoding: 65575 -1 176
Width: 692
Flags: MW
HStem: 0 131<151 502 189 502> 449 131<187 502 189 502>
VStem: 51 131<138 442> 509 131<138 442>
LayerCount: 2
Fore
SplineSet
189 580 m 2,0,-1
 502 580 l 2,1,2
 559 580 559 580 599.5 539.5 c 128,-1,3
 640 499 640 499 640 442 c 2,4,-1
 640 138 l 2,5,6
 640 81 640 81 599.5 40.5 c 128,-1,7
 559 0 559 0 502 0 c 2,8,-1
 189 0 l 2,9,10
 132 0 132 0 91.5 40.5 c 128,-1,11
 51 81 51 81 51 138 c 2,12,-1
 51 442 l 2,13,14
 51 499 51 499 91.5 539.5 c 128,-1,15
 132 580 132 580 189 580 c 2,0,-1
189 131 m 2,16,-1
 502 131 l 2,17,18
 509 131 509 131 509 138 c 2,19,-1
 509 442 l 2,20,21
 509 449 509 449 502 449 c 2,22,-1
 189 449 l 2,23,24
 182 449 182 449 182 442 c 2,25,-1
 182 138 l 2,26,27
 182 131 182 131 189 131 c 2,16,-1
EndSplineSet
EndChar

StartChar: oacute
Encoding: 243 243 177
Width: 692
Flags: MW
HStem: 0 131<151 502 189 502> 449 131<187 502 189 502> 678 183<272 451 318 405>
VStem: 51 131<138 442> 509 131<138 442>
LayerCount: 2
Fore
SplineSet
189 580 m 2,0,-1
 502 580 l 2,1,2
 559 580 559 580 599.5 539.5 c 128,-1,3
 640 499 640 499 640 442 c 2,4,-1
 640 138 l 2,5,6
 640 81 640 81 599.5 40.5 c 128,-1,7
 559 0 559 0 502 0 c 2,8,-1
 189 0 l 2,9,10
 132 0 132 0 91.5 40.5 c 128,-1,11
 51 81 51 81 51 138 c 2,12,-1
 51 442 l 2,13,14
 51 499 51 499 91.5 539.5 c 128,-1,15
 132 580 132 580 189 580 c 2,0,-1
502 449 m 2,16,-1
 189 449 l 2,17,18
 182 449 182 449 182 442 c 2,19,-1
 182 138 l 2,20,21
 182 131 182 131 189 131 c 2,22,-1
 502 131 l 2,23,24
 509 131 509 131 509 138 c 2,25,-1
 509 442 l 2,26,27
 509 449 509 449 502 449 c 2,16,-1
272 678 m 1,28,-1
 318 861 l 1,29,-1
 451 861 l 1,30,-1
 405 678 l 1,31,-1
 272 678 l 1,28,-1
EndSplineSet
EndChar

StartChar: ocircumflex
Encoding: 244 244 178
Width: 692
Flags: MW
HStem: 0 131<151 502 189 502> 449 131<187 502 189 502> 677 163<322 328 224 409 401 401 401 409 322 507>
VStem: 51 131<138 442> 509 131<138 442>
LayerCount: 2
Fore
SplineSet
189 580 m 2,0,-1
 502 580 l 2,1,2
 559 580 559 580 599.5 539.5 c 128,-1,3
 640 499 640 499 640 442 c 2,4,-1
 640 138 l 2,5,6
 640 81 640 81 599.5 40.5 c 128,-1,7
 559 0 559 0 502 0 c 2,8,-1
 189 0 l 2,9,10
 132 0 132 0 91.5 40.5 c 128,-1,11
 51 81 51 81 51 138 c 2,12,-1
 51 442 l 2,13,14
 51 499 51 499 91.5 539.5 c 128,-1,15
 132 580 132 580 189 580 c 2,0,-1
502 449 m 2,16,-1
 189 449 l 2,17,18
 182 449 182 449 182 442 c 2,19,-1
 182 138 l 2,20,21
 182 131 182 131 189 131 c 2,22,-1
 502 131 l 2,23,24
 509 131 509 131 509 138 c 2,25,-1
 509 442 l 2,26,27
 509 449 509 449 502 449 c 2,16,-1
328 677 m 1,28,-1
 224 677 l 1,29,-1
 322 840 l 1,30,-1
 409 840 l 1,31,-1
 507 677 l 1,32,-1
 401 677 l 1,33,-1
 364 736 l 1,34,35
 358 727 358 727 346 706.5 c 128,-1,36
 334 686 334 686 328 677 c 1,28,-1
EndSplineSet
EndChar

StartChar: odieresis
Encoding: 246 246 179
Width: 692
Flags: MW
HStem: 0 131<151 502 189 502> 449 131<187 502 189 502> 679 132<207 338 207 338 378 510 207 378>
VStem: 51 131<138 442> 207 131<679 811 679 811> 378 132<679 811 679 811> 509 131<138 442>
LayerCount: 2
Fore
SplineSet
189 580 m 2,0,-1
 502 580 l 2,1,2
 559 580 559 580 599.5 539.5 c 128,-1,3
 640 499 640 499 640 442 c 2,4,-1
 640 138 l 2,5,6
 640 81 640 81 599.5 40.5 c 128,-1,7
 559 0 559 0 502 0 c 2,8,-1
 189 0 l 2,9,10
 132 0 132 0 91.5 40.5 c 128,-1,11
 51 81 51 81 51 138 c 2,12,-1
 51 442 l 2,13,14
 51 499 51 499 91.5 539.5 c 128,-1,15
 132 580 132 580 189 580 c 2,0,-1
502 449 m 2,16,-1
 189 449 l 2,17,18
 182 449 182 449 182 442 c 2,19,-1
 182 138 l 2,20,21
 182 131 182 131 189 131 c 2,22,-1
 502 131 l 2,23,24
 509 131 509 131 509 138 c 2,25,-1
 509 442 l 2,26,27
 509 449 509 449 502 449 c 2,16,-1
510 811 m 1,28,-1
 510 679 l 1,29,-1
 378 679 l 1,30,-1
 378 811 l 1,31,-1
 510 811 l 1,28,-1
338 811 m 1,32,-1
 338 679 l 1,33,-1
 207 679 l 1,34,-1
 207 811 l 1,35,-1
 338 811 l 1,32,-1
EndSplineSet
EndChar

StartChar: oe
Encoding: 339 339 180
Width: 1177
Flags: MW
HStem: 0 131<151.5 503 190 503 503 505 648 1099> 224 132<641 968 641 1099 641 968> 449 131<188 962 190 503 646 648 648 962>
VStem: 52 131<138 442> 510 131<138 224 356 442> 968 131<356 442>
CounterMasks: 1 fc
LayerCount: 2
Fore
SplineSet
1099 224 m 1,0,-1
 641 224 l 1,1,-1
 641 138 l 2,2,3
 641 131 641 131 648 131 c 2,4,-1
 1099 131 l 1,5,-1
 1099 0 l 1,6,-1
 190 0 l 2,7,8
 132 0 132 0 92 40.5 c 128,-1,9
 52 81 52 81 52 138 c 2,10,-1
 52 442 l 2,11,12
 52 499 52 499 92 539.5 c 128,-1,13
 132 580 132 580 190 580 c 2,14,-1
 962 580 l 2,15,16
 1019 580 1019 580 1059 539.5 c 128,-1,17
 1099 499 1099 499 1099 442 c 2,18,-1
 1099 224 l 1,0,-1
648 449 m 2,19,20
 641 449 641 449 641 442 c 2,21,-1
 641 356 l 1,22,-1
 968 356 l 1,23,-1
 968 442 l 2,24,25
 968 449 968 449 962 449 c 2,26,-1
 648 449 l 2,19,20
503 131 m 2,27,28
 510 131 510 131 510 138 c 2,29,-1
 510 442 l 2,30,31
 510 449 510 449 503 449 c 2,32,-1
 190 449 l 2,33,34
 183 449 183 449 183 442 c 2,35,-1
 183 138 l 2,36,37
 183 131 183 131 190 131 c 2,38,-1
 503 131 l 2,27,28
EndSplineSet
EndChar

StartChar: ograve
Encoding: 242 242 181
Width: 692
Flags: MW
HStem: 0 131<151 502 189 502> 449 131<187 502 189 502> 678 183<318 405 272 451 318 318>
VStem: 51 131<138 442> 509 131<138 442>
LayerCount: 2
Fore
SplineSet
189 580 m 2,0,-1
 502 580 l 2,1,2
 559 580 559 580 599.5 539.5 c 128,-1,3
 640 499 640 499 640 442 c 2,4,-1
 640 138 l 2,5,6
 640 81 640 81 599.5 40.5 c 128,-1,7
 559 0 559 0 502 0 c 2,8,-1
 189 0 l 2,9,10
 132 0 132 0 91.5 40.5 c 128,-1,11
 51 81 51 81 51 138 c 2,12,-1
 51 442 l 2,13,14
 51 499 51 499 91.5 539.5 c 128,-1,15
 132 580 132 580 189 580 c 2,0,-1
502 449 m 2,16,-1
 189 449 l 2,17,18
 182 449 182 449 182 442 c 2,19,-1
 182 138 l 2,20,21
 182 131 182 131 189 131 c 2,22,-1
 502 131 l 2,23,24
 509 131 509 131 509 138 c 2,25,-1
 509 442 l 2,26,27
 509 449 509 449 502 449 c 2,16,-1
405 861 m 1,28,-1
 451 678 l 1,29,-1
 318 678 l 1,30,-1
 272 861 l 1,31,-1
 405 861 l 1,28,-1
EndSplineSet
EndChar

StartChar: one
Encoding: 49 49 182
Width: 391
Flags: MW
HStem: 0 21G<232 363 232 232> 700 20G<218 363 363 363>
VStem: 232 131<0 529 529 529>
LayerCount: 2
Fore
SplineSet
1 461 m 1,0,-1
 218 720 l 1,1,-1
 363 720 l 1,2,-1
 363 0 l 1,3,-1
 232 0 l 1,4,-1
 232 529 l 1,5,-1
 174 461 l 1,6,-1
 1 461 l 1,0,-1
EndSplineSet
EndChar

StartChar: otilde
Encoding: 245 245 183
Width: 692
Flags: MW
HStem: 0 131<151 502 189 502> 449 131<187 502 189 502> 679 156<240 461.5> 744 91<240 243 243 255>
VStem: 51 131<138 442> 509 131<138 442>
LayerCount: 2
Fore
SplineSet
189 580 m 2,0,-1
 502 580 l 2,1,2
 559 580 559 580 599.5 539.5 c 128,-1,3
 640 499 640 499 640 442 c 2,4,-1
 640 138 l 2,5,6
 640 81 640 81 599.5 40.5 c 128,-1,7
 559 0 559 0 502 0 c 2,8,-1
 189 0 l 2,9,10
 132 0 132 0 91.5 40.5 c 128,-1,11
 51 81 51 81 51 138 c 2,12,-1
 51 442 l 2,13,14
 51 499 51 499 91.5 539.5 c 128,-1,15
 132 580 132 580 189 580 c 2,0,-1
502 449 m 2,16,-1
 189 449 l 2,17,18
 182 449 182 449 182 442 c 2,19,-1
 182 138 l 2,20,21
 182 131 182 131 189 131 c 2,22,-1
 502 131 l 2,23,24
 509 131 509 131 509 138 c 2,25,-1
 509 442 l 2,26,27
 509 449 509 449 502 449 c 2,16,-1
447 770 m 1,28,29
 494 770 494 770 534 797 c 1,30,-1
 534 701 l 1,31,32
 482 679 482 679 445 679 c 0,33,34
 409 679 409 679 349 711.5 c 128,-1,35
 289 744 289 744 255 744 c 2,36,-1
 243 744 l 2,37,38
 199 744 199 744 170 706 c 1,39,-1
 170 817 l 1,40,41
 215 835 215 835 255 835 c 0,42,43
 294 835 294 835 354.5 804.5 c 128,-1,44
 415 774 415 774 447 770 c 1,28,29
EndSplineSet
EndChar

StartChar: p
Encoding: 112 112 184
Width: 664
Flags: MW
HStem: -230 21G<54 185 54 54> 0 131<192 505 192 505 185 505> 449 131<190 192 192 505>
VStem: 54 131<-230 0 136 138 138 442> 512 131<138 442>
LayerCount: 2
Fore
SplineSet
505 580 m 2,0,1
 562 580 562 580 602.5 539.5 c 128,-1,2
 643 499 643 499 643 442 c 2,3,-1
 643 138 l 2,4,5
 643 81 643 81 602.5 40.5 c 128,-1,6
 562 0 562 0 505 0 c 2,7,-1
 185 0 l 1,8,-1
 185 -230 l 1,9,-1
 54 -230 l 1,10,-1
 54 580 l 1,11,-1
 505 580 l 2,0,1
512 138 m 2,12,-1
 512 442 l 2,13,14
 512 449 512 449 505 449 c 2,15,-1
 192 449 l 2,16,17
 185 449 185 449 185 442 c 2,18,-1
 185 138 l 2,19,20
 185 131 185 131 192 131 c 2,21,-1
 505 131 l 2,22,23
 512 131 512 131 512 138 c 2,12,-1
EndSplineSet
Substitution2: "'smcp' Lowercase to Small Capitals in Latin lookup 3 subtable" p.sc
Substitution2: "'aalt' Access All Alternates in Latin lookup 0 subtable" p.sc
EndChar

StartChar: p.sc
Encoding: 65576 -1 185
Width: 660
Flags: MW
HStem: 0 21G<54 185 54 54> 186 133<188 505> 449 131<190 192 192 505>
VStem: 54 131<0 187 323 325 325 442> 512 131<325 442 287.5 444>
LayerCount: 2
Fore
SplineSet
54 580 m 1,0,-1
 505 580 l 2,1,2
 562 580 562 580 602.5 539 c 128,-1,3
 643 498 643 498 643 442 c 2,4,-1
 643 325 l 2,5,6
 643 269 643 269 602.5 228 c 128,-1,7
 562 187 562 187 505 187 c 2,8,-1
 188 186 l 1,9,-1
 185 187 l 1,10,-1
 185 0 l 1,11,-1
 54 0 l 1,12,-1
 54 580 l 1,0,-1
512 325 m 2,13,-1
 512 442 l 2,14,15
 512 449 512 449 505 449 c 2,16,-1
 192 449 l 2,17,18
 185 449 185 449 185 442 c 2,19,-1
 185 325 l 2,20,21
 185 319 185 319 192 319 c 2,22,-1
 505 319 l 2,23,24
 512 319 512 319 512 325 c 2,13,-1
EndSplineSet
EndChar

StartChar: paragraph
Encoding: 182 182 186
Width: 833
Flags: MW
HStem: 0 21G<429 561 429 429 638 769 638 638> 244 132<156 429 194 429 561 638> 581 131<192 769 194 429 561 561 561 638>
VStem: 56 131<382 574> 429 132<0 244 0 244 376 581> 638 131<0 244 244 244 376 581 581 581>
LayerCount: 2
Fore
SplineSet
56 574 m 2,0,1
 56 630 56 630 96.5 671 c 128,-1,2
 137 712 137 712 194 712 c 2,3,-1
 769 712 l 1,4,-1
 769 0 l 1,5,-1
 638 0 l 1,6,-1
 638 244 l 1,7,-1
 561 244 l 1,8,-1
 561 0 l 1,9,-1
 429 0 l 1,10,-1
 429 244 l 1,11,-1
 194 244 l 2,12,13
 137 244 137 244 96.5 285 c 128,-1,14
 56 326 56 326 56 382 c 2,15,-1
 56 574 l 2,0,1
561 581 m 1,16,-1
 561 376 l 1,17,-1
 638 376 l 1,18,-1
 638 581 l 1,19,-1
 561 581 l 1,16,-1
187 574 m 2,20,-1
 187 382 l 2,21,22
 187 376 187 376 194 376 c 2,23,-1
 429 376 l 1,24,-1
 429 581 l 1,25,-1
 194 581 l 2,26,27
 187 581 187 581 187 574 c 2,20,-1
EndSplineSet
EndChar

StartChar: parenleft
Encoding: 40 40 187
Width: 277
Flags: MW
HStem: 0 21G<151 189 189 244> 700 20G<189 244 244 244>
VStem: 52 131<138 582> 52 192<0 582 589 620>
LayerCount: 2
Fore
SplineSet
189 131 m 2,0,-1
 244 131 l 1,1,-1
 244 0 l 1,2,-1
 189 0 l 2,3,4
 132 0 132 0 92 40.5 c 128,-1,5
 52 81 52 81 52 138 c 2,6,-1
 52 582 l 2,7,8
 52 639 52 639 92 679.5 c 128,-1,9
 132 720 132 720 189 720 c 2,10,-1
 244 720 l 1,11,-1
 244 589 l 1,12,-1
 189 589 l 2,13,14
 183 589 183 589 183 582 c 2,15,-1
 183 138 l 2,16,17
 183 131 183 131 189 131 c 2,0,-1
EndSplineSet
EndChar

StartChar: parenright
Encoding: 41 41 188
Width: 278
Flags: MW
HStem: 0 21G<56 56 56 111> 700 20G<56 111 111 148.5>
VStem: 56 193<100 131 131 131> 117 132<138 582>
LayerCount: 2
Fore
SplineSet
56 0 m 1,0,-1
 56 131 l 1,1,-1
 111 131 l 2,2,3
 117 131 117 131 117 138 c 2,4,-1
 117 582 l 2,5,6
 117 589 117 589 111 589 c 2,7,-1
 56 589 l 1,8,-1
 56 720 l 1,9,-1
 111 720 l 2,10,11
 167 720 167 720 208 679.5 c 128,-1,12
 249 639 249 639 249 582 c 2,13,-1
 249 138 l 2,14,15
 249 81 249 81 208 40.5 c 128,-1,16
 167 0 167 0 111 0 c 2,17,-1
 56 0 l 1,0,-1
EndSplineSet
EndChar

StartChar: percent
Encoding: 37 37 189
Width: 966
Flags: MW
HStem: -20 20G<128 161 128 128> -1 112<660 679 679 764> 239 112<658 764 679 764 764 783> 361 113<167 186 186 272> 601 112<165 272 186 272 272 291> 700 20G<808 841 841 841>
VStem: 48 112<499 575 575 594> 297 113<480 499 499 575 461 594 461 596> 541 112<137 213 213 232> 790 112<118 137 137 213 99 232 99 234>
LayerCount: 2
Fore
SplineSet
808 720 m 1,0,-1
 841 720 l 1,1,-1
 841 577 l 1,2,-1
 161 0 l 1,3,-1
 128 0 l 1,4,-1
 128 143 l 1,5,-1
 808 720 l 1,0,-1
186 713 m 2,6,-1
 272 713 l 2,7,8
 329 713 329 713 369.5 672.5 c 128,-1,9
 410 632 410 632 410 575 c 2,10,-1
 410 499 l 2,11,12
 410 442 410 442 369.5 401.5 c 128,-1,13
 329 361 329 361 272 361 c 2,14,-1
 186 361 l 2,15,16
 129 361 129 361 88.5 401.5 c 128,-1,17
 48 442 48 442 48 499 c 2,18,-1
 48 575 l 2,19,20
 48 632 48 632 88.5 672.5 c 128,-1,21
 129 713 129 713 186 713 c 2,6,-1
167 474 m 2,22,-1
 291 474 l 2,23,24
 297 474 297 474 297 480 c 2,25,-1
 297 594 l 2,26,27
 297 601 297 601 291 601 c 2,28,-1
 167 601 l 2,29,30
 160 601 160 601 160 594 c 2,31,-1
 160 480 l 2,32,33
 160 474 160 474 167 474 c 2,22,-1
679 351 m 2,34,-1
 764 351 l 2,35,36
 821 351 821 351 861.5 310.5 c 128,-1,37
 902 270 902 270 902 213 c 2,38,-1
 902 137 l 2,39,40
 902 80 902 80 861.5 39.5 c 128,-1,41
 821 -1 821 -1 764 -1 c 2,42,-1
 679 -1 l 2,43,44
 622 -1 622 -1 581.5 39.5 c 128,-1,45
 541 80 541 80 541 137 c 2,46,-1
 541 213 l 2,47,48
 541 270 541 270 581.5 310.5 c 128,-1,49
 622 351 622 351 679 351 c 2,34,-1
660 111 m 2,50,-1
 783 111 l 2,51,52
 790 111 790 111 790 118 c 2,53,-1
 790 232 l 2,54,55
 790 239 790 239 783 239 c 2,56,-1
 660 239 l 2,57,58
 653 239 653 239 653 232 c 2,59,-1
 653 118 l 2,60,61
 653 111 653 111 660 111 c 2,50,-1
EndSplineSet
EndChar

StartChar: period
Encoding: 46 46 190
Width: 214
Flags: MW
HStem: 0 131<54 185 54 185>
VStem: 54 131<0 131 0 131>
LayerCount: 2
Fore
SplineSet
185 131 m 1,0,-1
 185 0 l 1,1,-1
 54 0 l 1,2,-1
 54 131 l 1,3,-1
 185 131 l 1,0,-1
EndSplineSet
EndChar

StartChar: plus
Encoding: 43 43 191
Width: 433
Flags: MW
HStem: 90 21G<154 285 154 154> 230 131<17 154 17 154 285 426> 479 20G<154 285 285 285>
VStem: 154 131<90 230 90 230 361 499>
LayerCount: 2
Fore
SplineSet
154 499 m 1,0,-1
 285 499 l 1,1,-1
 285 361 l 1,2,-1
 426 361 l 1,3,-1
 426 230 l 1,4,-1
 285 230 l 1,5,-1
 285 90 l 1,6,-1
 154 90 l 1,7,-1
 154 230 l 1,8,-1
 17 230 l 1,9,-1
 17 361 l 1,10,-1
 154 361 l 1,11,-1
 154 499 l 1,0,-1
EndSplineSet
EndChar

StartChar: q
Encoding: 113 113 192
Width: 664
Flags: MW
HStem: -230 21G<479 610 479 479> 0 131<120 472 158 472 472 474 158 479> 449 131<156.5 610 158 472>
VStem: 20 132<138 442> 479 131<-230 0 0 0 138 442 442 444>
LayerCount: 2
Fore
SplineSet
20 442 m 2,0,1
 20 499 20 499 60.5 539.5 c 128,-1,2
 101 580 101 580 158 580 c 2,3,-1
 610 580 l 1,4,-1
 610 -230 l 1,5,-1
 479 -230 l 1,6,-1
 479 0 l 1,7,-1
 158 0 l 2,8,9
 101 0 101 0 60.5 40.5 c 128,-1,10
 20 81 20 81 20 138 c 2,11,-1
 20 442 l 2,0,1
152 442 m 2,12,-1
 152 138 l 2,13,14
 152 131 152 131 158 131 c 2,15,-1
 472 131 l 2,16,17
 479 131 479 131 479 138 c 2,18,-1
 479 442 l 2,19,20
 479 449 479 449 472 449 c 2,21,-1
 158 449 l 2,22,23
 152 449 152 449 152 442 c 2,12,-1
EndSplineSet
Substitution2: "'smcp' Lowercase to Small Capitals in Latin lookup 3 subtable" q.sc
Substitution2: "'aalt' Access All Alternates in Latin lookup 0 subtable" q.sc
EndChar

StartChar: q.sc
Encoding: 65577 -1 193
Width: 770
Flags: MW
HStem: 0 131<152 503 190 503 503 505 641 727> 449 131<188 503 190 503>
VStem: 52 131<138 442> 510 131<138 442>
LayerCount: 2
Fore
SplineSet
641 131 m 1,0,-1
 727 131 l 1,1,-1
 727 0 l 1,2,-1
 190 0 l 2,3,4
 133 0 133 0 92.5 40.5 c 128,-1,5
 52 81 52 81 52 138 c 2,6,-1
 52 442 l 2,7,8
 52 499 52 499 92.5 539.5 c 128,-1,9
 133 580 133 580 190 580 c 2,10,-1
 503 580 l 2,11,12
 561 580 561 580 601 539.5 c 128,-1,13
 641 499 641 499 641 442 c 2,14,-1
 641 131 l 1,0,-1
190 131 m 2,15,-1
 503 131 l 2,16,17
 510 131 510 131 510 138 c 2,18,-1
 510 442 l 2,19,20
 510 449 510 449 503 449 c 2,21,-1
 190 449 l 2,22,23
 183 449 183 449 183 442 c 2,24,-1
 183 138 l 2,25,26
 183 131 183 131 190 131 c 2,15,-1
EndSplineSet
EndChar

StartChar: question
Encoding: 63 63 194
Width: 678
Flags: MW
HStem: 0 131<133 265 133 265> 196 205<133 517 133 517> 269 132<269 517 271 517> 589 131<31 517 31 517>
VStem: 133 132<0 131 0 131 196 263> 524 131<407 582>
LayerCount: 2
Fore
SplineSet
31 720 m 1,0,-1
 517 720 l 2,1,2
 575 720 575 720 615 679.5 c 128,-1,3
 655 639 655 639 655 582 c 2,4,-1
 655 407 l 2,5,6
 655 350 655 350 615 309.5 c 128,-1,7
 575 269 575 269 517 269 c 2,8,-1
 271 269 l 2,9,10
 265 269 265 269 265 263 c 2,11,-1
 265 196 l 1,12,-1
 133 196 l 1,13,-1
 133 263 l 2,14,15
 133 320 133 320 173.5 360.5 c 128,-1,16
 214 401 214 401 271 401 c 2,17,-1
 517 401 l 2,18,19
 524 401 524 401 524 407 c 2,20,-1
 524 582 l 2,21,22
 524 589 524 589 517 589 c 2,23,-1
 31 589 l 1,24,-1
 31 720 l 1,0,-1
265 0 m 1,25,-1
 133 0 l 1,26,-1
 133 131 l 1,27,-1
 265 131 l 1,28,-1
 265 0 l 1,25,-1
EndSplineSet
Substitution2: "'salt' Stylistic Alternatives in Latin lookup 2 subtable" question.alt
Substitution2: "'aalt' Access All Alternates in Latin lookup 0 subtable" question.alt
EndChar

StartChar: question.alt
Encoding: 57350 57350 195
Width: 667
Flags: MW
HStem: 0 131<186 318 186 318> 161 240<186 505 186 505> 269 132<322 505 324 505> 486 234<27 505 27 505> 589 131<163 505 163 505 158 505>
VStem: 27 131<486 589 486 605 486 605> 186 132<0 131 0 131 161 263> 512 131<407 582>
LayerCount: 2
Fore
SplineSet
163 720 m 2,0,-1
 505 720 l 2,1,2
 562 720 562 720 602.5 679.5 c 128,-1,3
 643 639 643 639 643 582 c 2,4,-1
 643 407 l 2,5,6
 643 350 643 350 602.5 309.5 c 128,-1,7
 562 269 562 269 505 269 c 2,8,-1
 324 269 l 2,9,10
 318 269 318 269 318 263 c 2,11,-1
 318 161 l 1,12,-1
 186 161 l 1,13,-1
 186 263 l 2,14,15
 186 320 186 320 226.5 360.5 c 128,-1,16
 267 401 267 401 324 401 c 2,17,-1
 505 401 l 2,18,19
 512 401 512 401 512 407 c 2,20,-1
 512 582 l 2,21,22
 512 589 512 589 505 589 c 2,23,-1
 158 589 l 1,24,-1
 158 486 l 1,25,-1
 27 486 l 1,26,-1
 27 605 l 1,27,28
 35 654 35 654 73.5 687 c 128,-1,29
 112 720 112 720 163 720 c 2,0,-1
318 0 m 1,30,-1
 186 0 l 1,31,-1
 186 131 l 1,32,-1
 318 131 l 1,33,-1
 318 0 l 1,30,-1
EndSplineSet
EndChar

StartChar: questiondown
Encoding: 191 191 196
Width: 675
Flags: MW
HStem: 0 131<119 644 157 644> 319 132<155 403 157 403> 319 211<157 541> 589 131<410 541 410 541>
VStem: 19 131<138 313> 410 131<457 530 419 530 589 720>
LayerCount: 2
Fore
SplineSet
644 0 m 1,0,-1
 157 0 l 2,1,2
 100 0 100 0 59.5 40.5 c 128,-1,3
 19 81 19 81 19 138 c 2,4,-1
 19 313 l 2,5,6
 19 370 19 370 59.5 410.5 c 128,-1,7
 100 451 100 451 157 451 c 2,8,-1
 403 451 l 2,9,10
 410 451 410 451 410 457 c 2,11,-1
 410 530 l 1,12,-1
 541 530 l 1,13,-1
 541 457 l 2,14,15
 541 400 541 400 500.5 359.5 c 128,-1,16
 460 319 460 319 403 319 c 2,17,-1
 157 319 l 2,18,19
 150 319 150 319 150 313 c 2,20,-1
 150 138 l 2,21,22
 150 131 150 131 157 131 c 2,23,-1
 644 131 l 1,24,-1
 644 0 l 1,0,-1
541 720 m 1,25,-1
 541 589 l 1,26,-1
 410 589 l 1,27,-1
 410 720 l 1,28,-1
 541 720 l 1,25,-1
EndSplineSet
EndChar

StartChar: quotedbl
Encoding: 34 34 197
Width: 372
Flags: MW
HStem: 537 182<59 191 59 191 59 219 219 350>
VStem: 59 132<537 719 537 719> 219 131<537 719 537 719>
LayerCount: 2
Fore
SplineSet
191 719 m 1,0,-1
 191 537 l 1,1,-1
 59 537 l 1,2,-1
 59 719 l 1,3,-1
 191 719 l 1,0,-1
350 719 m 1,4,-1
 350 537 l 1,5,-1
 219 537 l 1,6,-1
 219 719 l 1,7,-1
 350 719 l 1,4,-1
EndSplineSet
EndChar

StartChar: quotedblleft
Encoding: 8220 8220 198
Width: 402
Flags: MW
HStem: 467 21G<45 176 45 45 218 218 218 349> 703 20G<176 176 349 349>
VStem: 45 131<467 584 584 619> 218 131<467 584 584 619>
LayerCount: 2
Fore
SplineSet
176 467 m 1,0,-1
 45 467 l 1,1,-1
 45 584 l 2,2,3
 45 636 45 636 82.5 675 c 128,-1,4
 120 714 120 714 176 723 c 1,5,-1
 176 467 l 1,0,-1
349 467 m 1,6,-1
 218 467 l 1,7,-1
 218 584 l 2,8,9
 218 636 218 636 255.5 675 c 128,-1,10
 293 714 293 714 349 723 c 1,11,-1
 349 467 l 1,6,-1
EndSplineSet
EndChar

StartChar: quotedblright
Encoding: 8221 8221 199
Width: 401
Flags: MW
HStem: 464 21G<54 54 226 226> 700 20G<54 185 185 185 226 358 358 358>
VStem: 54 131<568.5 603 603 720 568.5 720> 226 132<568.5 603 603 720 568.5 720>
LayerCount: 2
Fore
SplineSet
226 720 m 1,0,-1
 358 720 l 1,1,-1
 358 603 l 2,2,3
 358 552 358 552 320.5 513 c 128,-1,4
 283 474 283 474 226 464 c 1,5,-1
 226 720 l 1,0,-1
54 720 m 1,6,-1
 185 720 l 1,7,-1
 185 603 l 2,8,9
 185 552 185 552 147.5 513 c 128,-1,10
 110 474 110 474 54 464 c 1,11,-1
 54 720 l 1,6,-1
EndSplineSet
EndChar

StartChar: quoteleft
Encoding: 8216 8216 200
Width: 217
Flags: MW
HStem: 467 21G<34 165 34 34> 703 20G<165 165>
VStem: 34 131<467 584 584 619>
LayerCount: 2
Fore
SplineSet
165 467 m 1,0,-1
 34 467 l 1,1,-1
 34 584 l 2,2,3
 34 636 34 636 71.5 675 c 128,-1,4
 109 714 109 714 165 723 c 1,5,-1
 165 467 l 1,0,-1
EndSplineSet
EndChar

StartChar: quoteright
Encoding: 8217 8217 201
Width: 216
Flags: MW
HStem: 464 21G<54 54> 700 20G<54 185 185 185>
VStem: 54 131<568.5 603 603 720 568.5 720>
LayerCount: 2
Fore
SplineSet
54 720 m 1,0,-1
 185 720 l 1,1,-1
 185 603 l 2,2,3
 185 552 185 552 147.5 513 c 128,-1,4
 110 474 110 474 54 464 c 1,5,-1
 54 720 l 1,0,-1
EndSplineSet
EndChar

StartChar: quotesingle
Encoding: 39 39 202
Width: 224
Flags: MW
HStem: 537 182<59 190 59 190>
VStem: 59 131<537 719 537 719>
LayerCount: 2
Fore
SplineSet
190 719 m 1,0,-1
 190 537 l 1,1,-1
 59 537 l 1,2,-1
 59 719 l 1,3,-1
 190 719 l 1,0,-1
EndSplineSet
EndChar

StartChar: r
Encoding: 114 114 203
Width: 528
Flags: MW
HStem: 0 21G<52 183 52 52> 449 131<188 512 190 512>
VStem: 52 131<0 442 0 480>
LayerCount: 2
Fore
SplineSet
190 580 m 2,0,-1
 512 580 l 1,1,-1
 512 449 l 1,2,-1
 190 449 l 2,3,4
 183 449 183 449 183 442 c 2,5,-1
 183 0 l 1,6,-1
 52 0 l 1,7,-1
 52 442 l 2,8,9
 52 499 52 499 92.5 539.5 c 128,-1,10
 133 580 133 580 190 580 c 2,0,-1
EndSplineSet
Substitution2: "'smcp' Lowercase to Small Capitals in Latin lookup 3 subtable" r.sc
Substitution2: "'aalt' Access All Alternates in Latin lookup 0 subtable" r.sc
EndChar

StartChar: r.sc
Encoding: 65578 -1 204
Width: 700
Flags: MW
HStem: 0 21G<54 185 54 54 511 653 511 511> 187 132<192 306 185 505 482 505 482 482> 449 131<190 192 192 505>
VStem: 54 131<0 187 323 325 325 442> 512 131<325 442 287.5 444>
LayerCount: 2
Fore
SplineSet
643 442 m 2,0,-1
 643 325 l 2,1,2
 643 269 643 269 602.5 228 c 128,-1,3
 562 187 562 187 505 187 c 2,4,-1
 482 187 l 1,5,-1
 653 35 l 1,6,-1
 653 0 l 1,7,-1
 511 0 l 1,8,-1
 306 187 l 1,9,-1
 185 187 l 1,10,-1
 185 0 l 1,11,-1
 54 0 l 1,12,-1
 54 580 l 1,13,-1
 505 580 l 2,14,15
 562 580 562 580 602.5 539 c 128,-1,16
 643 498 643 498 643 442 c 2,0,-1
192 319 m 2,17,-1
 505 319 l 2,18,19
 512 319 512 319 512 325 c 2,20,-1
 512 442 l 2,21,22
 512 449 512 449 505 449 c 2,23,-1
 192 449 l 2,24,25
 185 449 185 449 185 442 c 2,26,-1
 185 325 l 2,27,28
 185 319 185 319 192 319 c 2,17,-1
EndSplineSet
EndChar

StartChar: ring
Encoding: 730 730 205
Width: 233
Flags: MW
HStem: 787 181<69 141 87 141>
VStem: 22 184<852 903 834.5 920.5>
LayerCount: 2
Fore
SplineSet
87 968 m 2,0,-1
 141 968 l 2,1,2
 168 968 168 968 187 948.5 c 128,-1,3
 206 929 206 929 206 903 c 2,4,-1
 206 852 l 2,5,6
 206 826 206 826 187 806.5 c 128,-1,7
 168 787 168 787 141 787 c 2,8,-1
 87 787 l 2,9,10
 60 787 60 787 41 806.5 c 128,-1,11
 22 826 22 826 22 852 c 2,12,-1
 22 903 l 2,13,14
 22 929 22 929 41 948.5 c 128,-1,15
 60 968 60 968 87 968 c 2,0,-1
88 901 m 1,16,-1
 88 854 l 1,17,-1
 140 854 l 1,18,-1
 140 901 l 1,19,-1
 88 901 l 1,16,-1
EndSplineSet
EndChar

StartChar: s
Encoding: 115 115 206
Width: 686
Flags: MW
HStem: 0 131<148 499 186 499> 0 163<148 179 48 186 48 499> 224 132<148 499 186 499> 417 163<506 537.5 186 637 506 506> 449 131<184 499 186 499>
VStem: 48 131<138 163 136 163 362 442> 506 131<138 218 100 220 417 442>
LayerCount: 2
Fore
SplineSet
637 442 m 2,0,-1
 637 417 l 1,1,-1
 506 417 l 1,2,-1
 506 442 l 2,3,4
 506 449 506 449 499 449 c 2,5,-1
 186 449 l 2,6,7
 179 449 179 449 179 442 c 2,8,-1
 179 362 l 2,9,10
 179 356 179 356 186 356 c 2,11,-1
 499 356 l 2,12,13
 557 356 557 356 597 315.5 c 128,-1,14
 637 275 637 275 637 218 c 2,15,-1
 637 138 l 2,16,17
 637 81 637 81 597 40.5 c 128,-1,18
 557 0 557 0 499 0 c 2,19,-1
 186 0 l 2,20,21
 129 0 129 0 88.5 40.5 c 128,-1,22
 48 81 48 81 48 138 c 2,23,-1
 48 163 l 1,24,-1
 179 163 l 1,25,-1
 179 138 l 2,26,27
 179 131 179 131 186 131 c 2,28,-1
 499 131 l 2,29,30
 506 131 506 131 506 138 c 2,31,-1
 506 218 l 2,32,33
 506 224 506 224 499 224 c 2,34,-1
 186 224 l 2,35,36
 129 224 129 224 88.5 264.5 c 128,-1,37
 48 305 48 305 48 362 c 2,38,-1
 48 442 l 2,39,40
 48 499 48 499 88.5 539.5 c 128,-1,41
 129 580 129 580 186 580 c 2,42,-1
 499 580 l 2,43,44
 557 580 557 580 597 539.5 c 128,-1,45
 637 499 637 499 637 442 c 2,0,-1
EndSplineSet
Substitution2: "'smcp' Lowercase to Small Capitals in Latin lookup 3 subtable" s.sc
Substitution2: "'aalt' Access All Alternates in Latin lookup 0 subtable" s.sc
EndChar

StartChar: s.sc
Encoding: 65579 -1 207
Width: 687
Flags: MW
HStem: 0 131<149 500 187 500> 0 173<149 180 49 187 49 500> 224 132<149 500 187 500> 407 173<507 538 187 638 507 507> 449 131<185 500 187 500>
VStem: 49 131<138 173 136 173 362 442> 507 131<138 218 100 220 407 442>
LayerCount: 2
Fore
SplineSet
638 442 m 2,0,-1
 638 407 l 1,1,-1
 507 407 l 1,2,-1
 507 442 l 2,3,4
 507 449 507 449 500 449 c 2,5,-1
 187 449 l 2,6,7
 180 449 180 449 180 442 c 2,8,-1
 180 362 l 2,9,10
 180 356 180 356 187 356 c 2,11,-1
 500 356 l 2,12,13
 557 356 557 356 597.5 315.5 c 128,-1,14
 638 275 638 275 638 218 c 2,15,-1
 638 138 l 2,16,17
 638 81 638 81 597.5 40.5 c 128,-1,18
 557 0 557 0 500 0 c 2,19,-1
 187 0 l 2,20,21
 130 0 130 0 89.5 40.5 c 128,-1,22
 49 81 49 81 49 138 c 2,23,-1
 49 173 l 1,24,-1
 180 173 l 1,25,-1
 180 138 l 2,26,27
 180 131 180 131 187 131 c 2,28,-1
 500 131 l 2,29,30
 507 131 507 131 507 138 c 2,31,-1
 507 218 l 2,32,33
 507 224 507 224 500 224 c 2,34,-1
 187 224 l 2,35,36
 130 224 130 224 89.5 264.5 c 128,-1,37
 49 305 49 305 49 362 c 2,38,-1
 49 442 l 2,39,40
 49 499 49 499 89.5 539.5 c 128,-1,41
 130 580 130 580 187 580 c 2,42,-1
 500 580 l 2,43,44
 557 580 557 580 597.5 539.5 c 128,-1,45
 638 499 638 499 638 442 c 2,0,-1
EndSplineSet
EndChar

StartChar: scaron
Encoding: 353 353 208
Width: 687
Flags: MW
HStem: 0 131<148 499 186 499> 0 163<148 179 48 186 48 499> 224 132<148 499 186 499> 417 163<506 537.5 186 637 506 506> 449 131<184 499 186 499> 677 163<319 324 398 406 319 319>
VStem: 48 131<138 163 136 163 362 442> 506 131<138 218 100 220 417 442>
LayerCount: 2
Fore
SplineSet
637 442 m 2,0,-1
 637 417 l 1,1,-1
 506 417 l 1,2,-1
 506 442 l 2,3,4
 506 449 506 449 499 449 c 2,5,-1
 186 449 l 2,6,7
 179 449 179 449 179 442 c 2,8,-1
 179 362 l 2,9,10
 179 356 179 356 186 356 c 2,11,-1
 499 356 l 2,12,13
 557 356 557 356 597 315.5 c 128,-1,14
 637 275 637 275 637 218 c 2,15,-1
 637 138 l 2,16,17
 637 81 637 81 597 40.5 c 128,-1,18
 557 0 557 0 499 0 c 2,19,-1
 186 0 l 2,20,21
 129 0 129 0 88.5 40.5 c 128,-1,22
 48 81 48 81 48 138 c 2,23,-1
 48 163 l 1,24,-1
 179 163 l 1,25,-1
 179 138 l 2,26,27
 179 131 179 131 186 131 c 2,28,-1
 499 131 l 2,29,30
 506 131 506 131 506 138 c 2,31,-1
 506 218 l 2,32,33
 506 224 506 224 499 224 c 2,34,-1
 186 224 l 2,35,36
 129 224 129 224 88.5 264.5 c 128,-1,37
 48 305 48 305 48 362 c 2,38,-1
 48 442 l 2,39,40
 48 499 48 499 88.5 539.5 c 128,-1,41
 129 580 129 580 186 580 c 2,42,-1
 499 580 l 2,43,44
 557 580 557 580 597 539.5 c 128,-1,45
 637 499 637 499 637 442 c 2,0,-1
221 840 m 1,46,-1
 324 840 l 1,47,-1
 361 781 l 1,48,-1
 398 840 l 1,49,-1
 504 840 l 1,50,-1
 406 677 l 1,51,-1
 319 677 l 1,52,-1
 221 840 l 1,46,-1
EndSplineSet
EndChar

StartChar: semicolon
Encoding: 59 59 209
Width: 217
Flags: MW
HStem: -137 21G<51 51> 456 132<51 182 51 182>
VStem: 51 131<-32.5 2 2 119 -32.5 119 456 588>
LayerCount: 2
Fore
SplineSet
182 588 m 1,0,-1
 182 456 l 1,1,-1
 51 456 l 1,2,-1
 51 588 l 1,3,-1
 182 588 l 1,0,-1
51 119 m 1,4,-1
 182 119 l 1,5,-1
 182 2 l 2,6,7
 182 -49 182 -49 144.5 -88 c 128,-1,8
 107 -127 107 -127 51 -137 c 1,9,-1
 51 119 l 1,4,-1
EndSplineSet
EndChar

StartChar: seven
Encoding: 55 55 210
Width: 660
Flags: MW
HStem: 0 21G<471 602 471 471> 589 131<3 464 3 464>
VStem: 471 131<0 582 0 584>
LayerCount: 2
Fore
SplineSet
3 720 m 1,0,-1
 464 720 l 2,1,2
 521 720 521 720 561.5 679.5 c 128,-1,3
 602 639 602 639 602 582 c 2,4,-1
 602 0 l 1,5,-1
 471 0 l 1,6,-1
 471 582 l 2,7,8
 471 589 471 589 464 589 c 2,9,-1
 3 589 l 1,10,-1
 3 720 l 1,0,-1
EndSplineSet
Substitution2: "'ss03' Style Set 3 in Latin lookup 6 subtable" seven.alt
Substitution2: "'aalt' Access All Alternates in Latin lookup 0 subtable" seven.alt
EndChar

StartChar: seven.alt
Encoding: 57346 57346 211
Width: 771
Flags: MW
HStem: 0 21G<46 189 46 46> 589 131<46 507 46 760>
LayerCount: 2
Fore
SplineSet
46 720 m 1,0,-1
 760 720 l 1,1,-1
 760 687 l 1,2,-1
 189 0 l 1,3,-1
 46 0 l 1,4,-1
 46 33 l 1,5,-1
 507 589 l 1,6,-1
 46 589 l 1,7,-1
 46 720 l 1,0,-1
EndSplineSet
EndChar

StartChar: six
Encoding: 54 54 212
Width: 820
Flags: MW
HStem: 0 131<157 632 195 632> 303 132<195 632 195 632 188 632> 589 131<193 656 195 656>
VStem: 57 131<138 303 439.5 441 441 582> 639 131<138 297>
LayerCount: 2
Fore
SplineSet
195 435 m 2,0,-1
 632 435 l 2,1,2
 689 435 689 435 729.5 394.5 c 128,-1,3
 770 354 770 354 770 297 c 2,4,-1
 770 138 l 2,5,6
 770 81 770 81 729.5 40.5 c 128,-1,7
 689 0 689 0 632 0 c 2,8,-1
 195 0 l 2,9,10
 138 0 138 0 97.5 40.5 c 128,-1,11
 57 81 57 81 57 138 c 2,12,-1
 57 582 l 2,13,14
 57 639 57 639 97.5 679.5 c 128,-1,15
 138 720 138 720 195 720 c 2,16,-1
 656 720 l 1,17,-1
 656 589 l 1,18,-1
 195 589 l 2,19,20
 188 589 188 589 188 582 c 2,21,-1
 188 441 l 2,22,23
 188 435 188 435 195 435 c 2,0,-1
639 138 m 2,24,-1
 639 297 l 2,25,26
 639 303 639 303 632 303 c 2,27,-1
 188 303 l 1,28,-1
 188 138 l 2,29,30
 188 131 188 131 195 131 c 2,31,-1
 632 131 l 2,32,33
 639 131 639 131 639 138 c 2,24,-1
EndSplineSet
EndChar

StartChar: slash
Encoding: 47 47 213
Width: 521
Flags: MW
HStem: 0 21G<6 41 6 6> 700 20G<484 519 519 519>
LayerCount: 2
Fore
SplineSet
6 142 m 1,0,-1
 484 720 l 1,1,-1
 519 720 l 1,2,-1
 519 579 l 1,3,-1
 41 0 l 1,4,-1
 6 0 l 1,5,-1
 6 142 l 1,0,-1
EndSplineSet
EndChar

StartChar: A.alt2
Encoding: 57356 57356 214
Width: 774
Flags: MW
HStem: 0 21G<54 185 54 54 625 767 625 625> 183 131<185 361 185 471 185 361> 700 20G<54 197 197 197>
VStem: 54 131<0 183 314 521>
LayerCount: 2
Fore
SplineSet
54 720 m 1,0,-1
 197 720 l 1,1,-1
 767 33 l 1,2,-1
 767 0 l 1,3,-1
 625 0 l 1,4,-1
 471 183 l 1,5,-1
 185 183 l 1,6,-1
 185 0 l 1,7,-1
 54 0 l 1,8,-1
 54 720 l 1,0,-1
185 521 m 1,9,-1
 185 314 l 1,10,-1
 361 314 l 1,11,-1
 185 521 l 1,9,-1
EndSplineSet
EndChar

StartChar: sterling
Encoding: 163 163 215
Width: 734
Flags: MW
HStem: 0 131<39 134 265 683 39 134> 291 131<39 134 39 134 265 583> 539 181<552 584 272 683 552 552> 589 131<270 546 272 546>
VStem: 134 131<131 291 131 291 422 582>
LayerCount: 2
Fore
SplineSet
683 539 m 1,0,-1
 552 539 l 1,1,-1
 552 582 l 2,2,3
 552 589 552 589 546 589 c 2,4,-1
 272 589 l 2,5,6
 265 589 265 589 265 582 c 2,7,-1
 265 422 l 1,8,-1
 583 422 l 1,9,-1
 583 291 l 1,10,-1
 265 291 l 1,11,-1
 265 131 l 1,12,-1
 683 131 l 1,13,-1
 683 0 l 1,14,-1
 39 0 l 1,15,-1
 39 131 l 1,16,-1
 134 131 l 1,17,-1
 134 291 l 1,18,-1
 39 291 l 1,19,-1
 39 422 l 1,20,-1
 134 422 l 1,21,-1
 134 582 l 2,22,23
 134 639 134 639 174.5 679.5 c 128,-1,24
 215 720 215 720 272 720 c 2,25,-1
 546 720 l 2,26,27
 603 720 603 720 643 679.5 c 128,-1,28
 683 639 683 639 683 582 c 2,29,-1
 683 539 l 1,0,-1
EndSplineSet
EndChar

StartChar: t
Encoding: 116 116 216
Width: 437
Flags: MW
HStem: 0 131<152.5 410 191 410> 449 131<184 410 184 410> 750 20G<53 184 184 184>
VStem: 53 131<138 449 580 770>
LayerCount: 2
Fore
SplineSet
410 449 m 1,0,-1
 184 449 l 1,1,-1
 184 138 l 2,2,3
 184 131 184 131 191 131 c 2,4,-1
 410 131 l 1,5,-1
 410 0 l 1,6,-1
 191 0 l 2,7,8
 133 0 133 0 93 40.5 c 128,-1,9
 53 81 53 81 53 138 c 2,10,-1
 53 770 l 1,11,-1
 184 770 l 1,12,-1
 184 580 l 1,13,-1
 410 580 l 1,14,-1
 410 449 l 1,0,-1
EndSplineSet
Substitution2: "'smcp' Lowercase to Small Capitals in Latin lookup 3 subtable" t.sc
Substitution2: "'aalt' Access All Alternates in Latin lookup 0 subtable" t.sc
EndChar

StartChar: t.sc
Encoding: 65580 -1 217
Width: 644
Flags: MW
HStem: 0 21G<255 387 255 255> 449 131<22 255 22 621 387 621 387 387>
VStem: 255 132<0 449 0 449>
LayerCount: 2
Fore
SplineSet
22 580 m 1,0,-1
 621 580 l 1,1,-1
 621 449 l 1,2,-1
 387 449 l 1,3,-1
 387 0 l 1,4,-1
 255 0 l 1,5,-1
 255 449 l 1,6,-1
 22 449 l 1,7,-1
 22 580 l 1,0,-1
EndSplineSet
EndChar

StartChar: three
Encoding: 51 51 218
Width: 826
Flags: MW
HStem: 0 131<153 629 191 629> 0 181<153 184 53 191 53 629> 301 131<177 600 600 602 177 629 177 600> 530 190<53 600 53 600> 589 131<189 600 191 600>
VStem: 53 131<138 181 136 181 530 582> 607 131<438 582> 635 131<138 294>
LayerCount: 2
Fore
SplineSet
738 582 m 2,0,-1
 738 438 l 2,1,2
 738 409 738 409 728 388 c 1,3,4
 766 348 766 348 766 294 c 2,5,-1
 766 138 l 2,6,7
 766 81 766 81 726 40.5 c 128,-1,8
 686 0 686 0 629 0 c 2,9,-1
 191 0 l 2,10,11
 134 0 134 0 93.5 40.5 c 128,-1,12
 53 81 53 81 53 138 c 2,13,-1
 53 181 l 1,14,-1
 184 181 l 1,15,-1
 184 138 l 2,16,17
 184 131 184 131 191 131 c 2,18,-1
 629 131 l 2,19,20
 635 131 635 131 635 138 c 2,21,-1
 635 294 l 2,22,23
 635 301 635 301 629 301 c 2,24,-1
 177 301 l 1,25,-1
 177 432 l 1,26,-1
 600 432 l 2,27,28
 607 432 607 432 607 438 c 2,29,-1
 607 582 l 2,30,31
 607 589 607 589 600 589 c 2,32,-1
 191 589 l 2,33,34
 184 589 184 589 184 582 c 2,35,-1
 184 530 l 1,36,-1
 53 530 l 1,37,-1
 53 582 l 2,38,39
 53 639 53 639 93.5 679.5 c 128,-1,40
 134 720 134 720 191 720 c 2,41,-1
 600 720 l 2,42,43
 657 720 657 720 697.5 679.5 c 128,-1,44
 738 639 738 639 738 582 c 2,0,-1
EndSplineSet
EndChar

StartChar: tilde
Encoding: 732 732 219
Width: 403
Flags: MW
HStem: 790 156<93 314.5> 855 91<93 96 96 108>
LayerCount: 2
Fore
SplineSet
300 881 m 1,0,1
 346 881 346 881 387 908 c 1,2,-1
 387 812 l 1,3,4
 335 790 335 790 298 790 c 0,5,6
 262 790 262 790 202 822.5 c 128,-1,7
 142 855 142 855 108 855 c 2,8,-1
 96 855 l 2,9,10
 52 855 52 855 23 817 c 1,11,-1
 23 928 l 1,12,13
 68 946 68 946 108 946 c 0,14,15
 146 946 146 946 207 915.5 c 128,-1,16
 268 885 268 885 300 881 c 1,0,1
EndSplineSet
EndChar

StartChar: two
Encoding: 50 50 220
Width: 830
Flags: MW
HStem: 0 131<195 770 195 770> 284 132<193 632 195 632> 528 192<57 632 57 632>
VStem: 57 131<136 138 138 278 528 582> 639 131<422 582>
LayerCount: 2
Fore
SplineSet
195 720 m 2,0,-1
 632 720 l 2,1,2
 689 720 689 720 729.5 679.5 c 128,-1,3
 770 639 770 639 770 582 c 2,4,-1
 770 422 l 2,5,6
 770 365 770 365 729.5 324.5 c 128,-1,7
 689 284 689 284 632 284 c 2,8,-1
 195 284 l 2,9,10
 188 284 188 284 188 278 c 2,11,-1
 188 138 l 2,12,13
 188 131 188 131 195 131 c 2,14,-1
 770 131 l 1,15,-1
 770 0 l 1,16,-1
 57 0 l 1,17,-1
 57 278 l 2,18,19
 57 335 57 335 97.5 375.5 c 128,-1,20
 138 416 138 416 195 416 c 2,21,-1
 632 416 l 2,22,23
 639 416 639 416 639 422 c 2,24,-1
 639 582 l 2,25,26
 639 589 639 589 632 589 c 2,27,-1
 195 589 l 2,28,29
 188 589 188 589 188 582 c 2,30,-1
 188 528 l 1,31,-1
 57 528 l 1,32,-1
 57 582 l 2,33,34
 57 639 57 639 97.5 679.5 c 128,-1,35
 138 720 138 720 195 720 c 2,0,-1
EndSplineSet
Substitution2: "'ss03' Style Set 3 in Latin lookup 6 subtable" two.alt
Substitution2: "'aalt' Access All Alternates in Latin lookup 0 subtable" two.alt
EndChar

StartChar: two.alt
Encoding: 57349 57349 221
Width: 815
Flags: MW
HStem: 0 131<181 185 185 761> 516 204<49 625 49 625> 589 131<185 625 187 625 625 629>
VStem: 49 132<131 236 516 582>
LayerCount: 2
Fore
SplineSet
761 464 m 1,0,-1
 650 407 l 1,1,-1
 181 156 l 1,2,-1
 181 131 l 1,3,-1
 761 131 l 1,4,-1
 761 0 l 1,5,-1
 185 0 l 2,6,7
 137 0 137 0 99 31 c 128,-1,8
 61 62 61 62 50 108 c 1,9,-1
 49 236 l 1,10,-1
 629 544 l 1,11,-1
 629 589 l 1,12,-1
 187 589 l 2,13,14
 181 589 181 589 181 582 c 2,15,-1
 181 516 l 1,16,-1
 49 516 l 1,17,-1
 49 582 l 2,18,19
 49 639 49 639 89.5 679.5 c 128,-1,20
 130 720 130 720 187 720 c 2,21,-1
 625 720 l 2,22,23
 675 720 675 720 713.5 687.5 c 128,-1,24
 752 655 752 655 761 606 c 1,25,-1
 761 464 l 1,0,-1
EndSplineSet
EndChar

StartChar: u
Encoding: 117 117 222
Width: 695
Flags: MW
HStem: 0 131<152.5 504 191 504> 560 20G<53 184 184 184 511 642 642 642>
VStem: 53 131<138 580> 511 131<138 580>
LayerCount: 2
Fore
SplineSet
511 580 m 1,0,-1
 642 580 l 1,1,-1
 642 138 l 2,2,3
 642 81 642 81 601.5 40.5 c 128,-1,4
 561 0 561 0 504 0 c 2,5,-1
 191 0 l 2,6,7
 133 0 133 0 93 40.5 c 128,-1,8
 53 81 53 81 53 138 c 2,9,-1
 53 580 l 1,10,-1
 184 580 l 1,11,-1
 184 138 l 2,12,13
 184 131 184 131 191 131 c 2,14,-1
 504 131 l 2,15,16
 511 131 511 131 511 138 c 2,17,-1
 511 580 l 1,0,-1
EndSplineSet
Substitution2: "'smcp' Lowercase to Small Capitals in Latin lookup 3 subtable" u.sc
Substitution2: "'aalt' Access All Alternates in Latin lookup 0 subtable" u.sc
EndChar

StartChar: u.sc
Encoding: 65581 -1 223
Width: 695
Flags: MW
HStem: 0 131<152.5 504 191 504> 560 20G<53 184 184 184 511 642 642 642>
VStem: 53 131<138 580> 511 131<138 580>
LayerCount: 2
Fore
SplineSet
511 138 m 2,0,-1
 511 580 l 1,1,-1
 642 580 l 1,2,-1
 642 138 l 2,3,4
 642 81 642 81 601.5 40.5 c 128,-1,5
 561 0 561 0 504 0 c 2,6,-1
 191 0 l 2,7,8
 133 0 133 0 93 40.5 c 128,-1,9
 53 81 53 81 53 138 c 2,10,-1
 53 580 l 1,11,-1
 184 580 l 1,12,-1
 184 138 l 2,13,14
 184 131 184 131 191 131 c 2,15,-1
 504 131 l 2,16,17
 511 131 511 131 511 138 c 2,0,-1
EndSplineSet
EndChar

StartChar: uacute
Encoding: 250 250 224
Width: 695
Flags: MW
HStem: 0 131<152.5 504 191 504> 560 20G<53 184 184 184 511 642 642 642> 678 183<273 452 319 406>
VStem: 53 131<138 580> 511 131<138 580>
LayerCount: 2
Fore
SplineSet
511 580 m 1,0,-1
 642 580 l 1,1,-1
 642 138 l 2,2,3
 642 81 642 81 601.5 40.5 c 128,-1,4
 561 0 561 0 504 0 c 2,5,-1
 191 0 l 2,6,7
 133 0 133 0 93 40.5 c 128,-1,8
 53 81 53 81 53 138 c 2,9,-1
 53 580 l 1,10,-1
 184 580 l 1,11,-1
 184 138 l 2,12,13
 184 131 184 131 191 131 c 2,14,-1
 504 131 l 2,15,16
 511 131 511 131 511 138 c 2,17,-1
 511 580 l 1,0,-1
273 678 m 1,18,-1
 319 861 l 1,19,-1
 452 861 l 1,20,-1
 406 678 l 1,21,-1
 273 678 l 1,18,-1
EndSplineSet
EndChar

StartChar: ucircumflex
Encoding: 251 251 225
Width: 695
Flags: MW
HStem: 0 131<152.5 504 191 504> 560 20G<53 184 184 184 511 642 642 642> 678 163<323 329 225 410 402 402 402 410 323 508>
VStem: 53 131<138 580> 511 131<138 580>
LayerCount: 2
Fore
SplineSet
511 580 m 1,0,-1
 642 580 l 1,1,-1
 642 138 l 2,2,3
 642 81 642 81 601.5 40.5 c 128,-1,4
 561 0 561 0 504 0 c 2,5,-1
 191 0 l 2,6,7
 133 0 133 0 93 40.5 c 128,-1,8
 53 81 53 81 53 138 c 2,9,-1
 53 580 l 1,10,-1
 184 580 l 1,11,-1
 184 138 l 2,12,13
 184 131 184 131 191 131 c 2,14,-1
 504 131 l 2,15,16
 511 131 511 131 511 138 c 2,17,-1
 511 580 l 1,0,-1
329 678 m 1,18,-1
 225 678 l 1,19,-1
 323 841 l 1,20,-1
 410 841 l 1,21,-1
 508 678 l 1,22,-1
 402 678 l 1,23,-1
 365 737 l 1,24,25
 359 728 359 728 347 707.5 c 128,-1,26
 335 687 335 687 329 678 c 1,18,-1
EndSplineSet
EndChar

StartChar: udieresis
Encoding: 252 252 226
Width: 695
Flags: MW
HStem: 0 131<152.5 504 191 504> 560 20G<53 184 184 184 511 642 642 642> 677 132<208 339 208 339 379 511 208 379>
VStem: 53 131<138 580> 208 131<677 809 677 809> 379 132<677 809> 511 131<138 580>
LayerCount: 2
Fore
SplineSet
511 580 m 1,0,-1
 642 580 l 1,1,-1
 642 138 l 2,2,3
 642 81 642 81 601.5 40.5 c 128,-1,4
 561 0 561 0 504 0 c 2,5,-1
 191 0 l 2,6,7
 133 0 133 0 93 40.5 c 128,-1,8
 53 81 53 81 53 138 c 2,9,-1
 53 580 l 1,10,-1
 184 580 l 1,11,-1
 184 138 l 2,12,13
 184 131 184 131 191 131 c 2,14,-1
 504 131 l 2,15,16
 511 131 511 131 511 138 c 2,17,-1
 511 580 l 1,0,-1
511 809 m 1,18,-1
 511 677 l 1,19,-1
 379 677 l 1,20,-1
 379 809 l 1,21,-1
 511 809 l 1,18,-1
339 809 m 1,22,-1
 339 677 l 1,23,-1
 208 677 l 1,24,-1
 208 809 l 1,25,-1
 339 809 l 1,22,-1
EndSplineSet
EndChar

StartChar: ugrave
Encoding: 249 249 227
Width: 695
Flags: MW
HStem: 0 131<152.5 504 191 504> 560 20G<53 184 184 184 511 642 642 642> 678 183<319 406 273 452 319 319>
VStem: 53 131<138 580> 511 131<138 580>
LayerCount: 2
Fore
SplineSet
511 580 m 1,0,-1
 642 580 l 1,1,-1
 642 138 l 2,2,3
 642 81 642 81 601.5 40.5 c 128,-1,4
 561 0 561 0 504 0 c 2,5,-1
 191 0 l 2,6,7
 133 0 133 0 93 40.5 c 128,-1,8
 53 81 53 81 53 138 c 2,9,-1
 53 580 l 1,10,-1
 184 580 l 1,11,-1
 184 138 l 2,12,13
 184 131 184 131 191 131 c 2,14,-1
 504 131 l 2,15,16
 511 131 511 131 511 138 c 2,17,-1
 511 580 l 1,0,-1
406 861 m 1,18,-1
 452 678 l 1,19,-1
 319 678 l 1,20,-1
 273 861 l 1,21,-1
 406 861 l 1,18,-1
EndSplineSet
EndChar

StartChar: underscore
Encoding: 95 95 228
Width: 828
Flags: MW
HStem: -131 131<54 767 54 767>
LayerCount: 2
Fore
SplineSet
767 0 m 1,0,-1
 767 -131 l 1,1,-1
 54 -131 l 1,2,-1
 54 0 l 1,3,-1
 767 0 l 1,0,-1
EndSplineSet
EndChar

StartChar: v
Encoding: 118 118 230
Width: 790
Flags: MW
HStem: 0 21G<340 460 340 340> 560 20G<21 172 172 172 629 780 780 780>
LayerCount: 2
Fore
SplineSet
629 580 m 1,0,-1
 780 580 l 1,1,-1
 460 0 l 1,2,-1
 340 0 l 1,3,-1
 21 580 l 1,4,-1
 172 580 l 1,5,-1
 400 159 l 1,6,-1
 629 580 l 1,0,-1
EndSplineSet
Substitution2: "'smcp' Lowercase to Small Capitals in Latin lookup 3 subtable" v.sc
Substitution2: "'salt' Stylistic Alternatives in Latin lookup 2 subtable" v.alt
AlternateSubs2: "'aalt' Access All Alternates in Latin lookup 1 subtable" v.sc v.alt
EndChar

StartChar: v.alt
Encoding: 65582 -1 231
Width: 697
Flags: MW
HStem: 0 131<152.5 511 191 511 191 642> 560 20G<53 184 184 184 511 642 642 642>
VStem: 53 131<138 580> 511 131<131 580 0 580>
LayerCount: 2
Fore
SplineSet
511 580 m 1,0,-1
 642 580 l 1,1,-1
 642 0 l 1,2,-1
 191 0 l 2,3,4
 133 0 133 0 93 40.5 c 128,-1,5
 53 81 53 81 53 138 c 2,6,-1
 53 580 l 1,7,-1
 184 580 l 1,8,-1
 184 138 l 2,9,10
 184 131 184 131 191 131 c 2,11,-1
 511 131 l 1,12,-1
 511 580 l 1,0,-1
EndSplineSet
EndChar

StartChar: v.sc
Encoding: 65583 -1 232
Width: 801
Flags: MW
HStem: 0 21G<346 466 346 346> 560 20G<21 172 172 172 640 790 790 790>
LayerCount: 2
Fore
SplineSet
406 159 m 1,0,-1
 640 580 l 1,1,-1
 790 580 l 1,2,-1
 466 0 l 1,3,-1
 346 0 l 1,4,-1
 21 580 l 1,5,-1
 172 580 l 1,6,-1
 406 159 l 1,0,-1
EndSplineSet
EndChar

StartChar: w
Encoding: 119 119 233
Width: 1056
Flags: MW
HStem: 0 21G<263 364 263 263 707 809 707 707> 560 20G<35 174 174 174 463 599 599 599 888 1027 1027 1027>
LayerCount: 2
Fore
SplineSet
888 580 m 1,0,-1
 1027 580 l 1,1,-1
 809 0 l 1,2,-1
 707 0 l 1,3,-1
 532 388 l 1,4,-1
 364 0 l 1,5,-1
 263 0 l 1,6,-1
 35 580 l 1,7,-1
 174 580 l 1,8,-1
 314 238 l 1,9,-1
 463 580 l 1,10,-1
 599 580 l 1,11,-1
 757 236 l 1,12,-1
 888 580 l 1,0,-1
EndSplineSet
Substitution2: "'smcp' Lowercase to Small Capitals in Latin lookup 3 subtable" w.sc
Substitution2: "'salt' Stylistic Alternatives in Latin lookup 2 subtable" w.alt
AlternateSubs2: "'aalt' Access All Alternates in Latin lookup 1 subtable" w.sc w.alt
EndChar

StartChar: w.alt
Encoding: 65584 -1 234
Width: 978
Flags: MW
HStem: 0 131<153 409 191 409 409 411 553 772 772 774> 560 20G<53 183 183 183 415 547 547 547 779 910 910 910>
VStem: 53 130<138 580> 415 132<138 580> 779 131<138 580 0 580>
LayerCount: 2
Fore
SplineSet
191 0 m 2,0,1
 134 0 134 0 93.5 40.5 c 128,-1,2
 53 81 53 81 53 138 c 2,3,-1
 53 580 l 1,4,-1
 183 580 l 1,5,-1
 183 138 l 2,6,7
 183 131 183 131 191 131 c 2,8,-1
 409 131 l 2,9,10
 415 131 415 131 415 138 c 2,11,-1
 415 580 l 1,12,-1
 547 580 l 1,13,-1
 547 138 l 2,14,15
 547 131 547 131 553 131 c 2,16,-1
 772 131 l 2,17,18
 779 131 779 131 779 138 c 2,19,-1
 779 580 l 1,20,-1
 910 580 l 1,21,-1
 910 0 l 1,22,-1
 191 0 l 2,0,1
EndSplineSet
EndChar

StartChar: w.sc
Encoding: 65585 -1 235
Width: 1078
Flags: MW
HStem: 0 21G<266 367 266 266 710 812 710 710> 560 20G<34 173 173 173 470 598 598 598 895 1035 1035 1035>
LayerCount: 2
Fore
SplineSet
895 580 m 1,0,-1
 1035 580 l 1,1,-1
 812 0 l 1,2,-1
 710 0 l 1,3,-1
 535 379 l 1,4,-1
 367 0 l 1,5,-1
 266 0 l 1,6,-1
 34 580 l 1,7,-1
 173 580 l 1,8,-1
 318 236 l 1,9,-1
 470 580 l 1,10,-1
 598 580 l 1,11,-1
 760 236 l 1,12,-1
 895 580 l 1,0,-1
EndSplineSet
EndChar

StartChar: x
Encoding: 120 120 236
Width: 692
Flags: MW
HStem: 0 21G<46 189 46 46 502 645 502 502> 560 20G<46 189 189 189 502 645 645 645>
LayerCount: 2
Fore
SplineSet
502 580 m 1,0,-1
 645 580 l 1,1,-1
 645 547 l 1,2,-1
 430 295 l 1,3,-1
 645 33 l 1,4,-1
 645 0 l 1,5,-1
 502 0 l 1,6,-1
 345 192 l 1,7,-1
 189 0 l 1,8,-1
 46 0 l 1,9,-1
 46 33 l 1,10,-1
 260 295 l 1,11,-1
 46 547 l 1,12,-1
 46 580 l 1,13,-1
 189 580 l 1,14,-1
 345 396 l 1,15,-1
 502 580 l 1,0,-1
EndSplineSet
Substitution2: "'smcp' Lowercase to Small Capitals in Latin lookup 3 subtable" x.sc
Substitution2: "'salt' Stylistic Alternatives in Latin lookup 2 subtable" x.alt
AlternateSubs2: "'aalt' Access All Alternates in Latin lookup 1 subtable" x.sc x.alt
EndChar

StartChar: x.alt
Encoding: 65586 -1 237
Width: 698
Flags: MW
HStem: 0 21G<54 185 54 54 512 643 512 512> 224 132<190 505 192 505> 560 20G<54 185 185 185 512 643 643 643>
VStem: 54 131<0 218 0 230.5 362 580> 512 131<0 218 0 220 362 580>
LayerCount: 2
Fore
SplineSet
643 580 m 1,0,-1
 643 362 l 2,1,2
 643 322 643 322 623 290 c 1,3,4
 643 258 643 258 643 218 c 2,5,-1
 643 0 l 1,6,-1
 512 0 l 1,7,-1
 512 218 l 2,8,9
 512 224 512 224 505 224 c 2,10,-1
 192 224 l 2,11,12
 185 224 185 224 185 218 c 2,13,-1
 185 0 l 1,14,-1
 54 0 l 1,15,-1
 54 218 l 2,16,17
 54 258 54 258 74 290 c 1,18,19
 54 322 54 322 54 362 c 2,20,-1
 54 580 l 1,21,-1
 185 580 l 1,22,-1
 185 362 l 2,23,24
 185 356 185 356 192 356 c 2,25,-1
 505 356 l 2,26,27
 512 356 512 356 512 362 c 2,28,-1
 512 580 l 1,29,-1
 643 580 l 1,0,-1
EndSplineSet
EndChar

StartChar: x.sc
Encoding: 65587 -1 238
Width: 692
Flags: MW
HStem: 0 21G<46 189 46 46 502 645 502 502> 560 20G<46 189 189 189 502 645 645 645>
LayerCount: 2
Fore
SplineSet
502 580 m 1,0,-1
 645 580 l 1,1,-1
 645 547 l 1,2,-1
 430 296 l 1,3,-1
 645 33 l 1,4,-1
 645 0 l 1,5,-1
 502 0 l 1,6,-1
 345 193 l 1,7,-1
 189 0 l 1,8,-1
 46 0 l 1,9,-1
 46 33 l 1,10,-1
 259 296 l 1,11,-1
 46 547 l 1,12,-1
 46 580 l 1,13,-1
 189 580 l 1,14,-1
 345 396 l 1,15,-1
 502 580 l 1,0,-1
EndSplineSet
EndChar

StartChar: y
Encoding: 121 121 239
Width: 685
Flags: MW
HStem: -230 132<139 494 139 494> 0 131<142 494 180 494 494 495.5 180 500> 558 20G<42 173 173 173 500 631 631 631>
VStem: 42 131<138 578> 500 131<-92 0 0 0 138 578>
LayerCount: 2
Fore
SplineSet
631 -92 m 2,0,1
 631 -149 631 -149 591 -189.5 c 128,-1,2
 551 -230 551 -230 494 -230 c 2,3,-1
 139 -230 l 1,4,-1
 139 -98 l 1,5,-1
 494 -98 l 2,6,7
 500 -98 500 -98 500 -92 c 2,8,-1
 500 0 l 1,9,-1
 180 0 l 2,10,11
 123 0 123 0 82.5 40.5 c 128,-1,12
 42 81 42 81 42 138 c 2,13,-1
 42 578 l 1,14,-1
 173 578 l 1,15,-1
 173 138 l 2,16,17
 173 131 173 131 180 131 c 2,18,-1
 494 131 l 2,19,20
 500 131 500 131 500 138 c 2,21,-1
 500 578 l 1,22,-1
 631 578 l 1,23,-1
 631 -92 l 2,0,1
EndSplineSet
Substitution2: "'smcp' Lowercase to Small Capitals in Latin lookup 3 subtable" y.sc
Substitution2: "'aalt' Access All Alternates in Latin lookup 0 subtable" y.sc
EndChar

StartChar: y.sc
Encoding: 65588 -1 240
Width: 688
Flags: MW
HStem: 0 21G<290 421 290 290> 560 20G<18 173 173 173 537 693 693 693>
VStem: 290 131<0 200 0 200>
LayerCount: 2
Fore
SplineSet
537 580 m 1,0,-1
 693 580 l 1,1,-1
 421 200 l 1,2,-1
 421 0 l 1,3,-1
 290 0 l 1,4,-1
 290 200 l 1,5,-1
 18 580 l 1,6,-1
 173 580 l 1,7,-1
 356 344 l 1,8,-1
 537 580 l 1,0,-1
EndSplineSet
EndChar

StartChar: yacute
Encoding: 253 253 241
Width: 688
Flags: MW
HStem: -230 132<139 494 139 494> 0 131<142 494 180 494 494 495.5 180 500> 558 20G<42 173 173 173 500 631 631 631> 678 183<270 449 316 403>
VStem: 42 131<138 578> 500 131<-92 0 0 0 138 578>
LayerCount: 2
Fore
SplineSet
631 -92 m 2,0,1
 631 -149 631 -149 591 -189.5 c 128,-1,2
 551 -230 551 -230 494 -230 c 2,3,-1
 139 -230 l 1,4,-1
 139 -98 l 1,5,-1
 494 -98 l 2,6,7
 500 -98 500 -98 500 -92 c 2,8,-1
 500 0 l 1,9,-1
 180 0 l 2,10,11
 123 0 123 0 82.5 40.5 c 128,-1,12
 42 81 42 81 42 138 c 2,13,-1
 42 578 l 1,14,-1
 173 578 l 1,15,-1
 173 138 l 2,16,17
 173 131 173 131 180 131 c 2,18,-1
 494 131 l 2,19,20
 500 131 500 131 500 138 c 2,21,-1
 500 578 l 1,22,-1
 631 578 l 1,23,-1
 631 -92 l 2,0,1
270 678 m 1,24,-1
 316 861 l 1,25,-1
 449 861 l 1,26,-1
 403 678 l 1,27,-1
 270 678 l 1,24,-1
EndSplineSet
EndChar

StartChar: ydieresis
Encoding: 255 255 242
Width: 688
Flags: MW
HStem: -230 132<139 494 139 494> 0 131<142 494 180 494 494 495.5 180 500> 558 20G<42 173 173 173 500 631 631 631> 679 132<205 336 205 336 376 508 205 376>
VStem: 42 131<138 578> 205 131<679 811 679 811> 376 132<679 811 679 811> 500 131<-92 0 0 0 138 578>
LayerCount: 2
Fore
SplineSet
631 -92 m 2,0,1
 631 -149 631 -149 591 -189.5 c 128,-1,2
 551 -230 551 -230 494 -230 c 2,3,-1
 139 -230 l 1,4,-1
 139 -98 l 1,5,-1
 494 -98 l 2,6,7
 500 -98 500 -98 500 -92 c 2,8,-1
 500 0 l 1,9,-1
 180 0 l 2,10,11
 123 0 123 0 82.5 40.5 c 128,-1,12
 42 81 42 81 42 138 c 2,13,-1
 42 578 l 1,14,-1
 173 578 l 1,15,-1
 173 138 l 2,16,17
 173 131 173 131 180 131 c 2,18,-1
 494 131 l 2,19,20
 500 131 500 131 500 138 c 2,21,-1
 500 578 l 1,22,-1
 631 578 l 1,23,-1
 631 -92 l 2,0,1
508 811 m 1,24,-1
 508 679 l 1,25,-1
 376 679 l 1,26,-1
 376 811 l 1,27,-1
 508 811 l 1,24,-1
336 811 m 1,28,-1
 336 679 l 1,29,-1
 205 679 l 1,30,-1
 205 811 l 1,31,-1
 336 811 l 1,28,-1
EndSplineSet
EndChar

StartChar: z
Encoding: 122 122 243
Width: 698
Flags: MW
HStem: 0 131<247 643 247 643> 449 131<54 643 54 450>
LayerCount: 2
Fore
SplineSet
54 449 m 1,0,-1
 54 580 l 1,1,-1
 643 580 l 1,2,-1
 643 437 l 1,3,-1
 247 131 l 1,4,-1
 643 131 l 1,5,-1
 643 0 l 1,6,-1
 54 0 l 1,7,-1
 54 143 l 1,8,-1
 450 449 l 1,9,-1
 54 449 l 1,0,-1
EndSplineSet
Substitution2: "'smcp' Lowercase to Small Capitals in Latin lookup 3 subtable" z.sc
Substitution2: "'salt' Stylistic Alternatives in Latin lookup 2 subtable" z.alt
AlternateSubs2: "'aalt' Access All Alternates in Latin lookup 1 subtable" z.sc z.alt
EndChar

StartChar: z.alt
Encoding: 65589 -1 244
Width: 692
Flags: MW
HStem: 0 131<151 640 189 640> 224 132<187 502 189 502> 449 131<51 502 51 502>
VStem: 51 131<138 218 136 256> 509 131<362 442>
CounterMasks: 1 e0
LayerCount: 2
Fore
SplineSet
189 224 m 2,0,1
 182 224 182 224 182 218 c 2,2,-1
 182 138 l 2,3,4
 182 131 182 131 189 131 c 2,5,-1
 640 131 l 1,6,-1
 640 0 l 1,7,-1
 189 0 l 2,8,9
 132 0 132 0 91.5 40.5 c 128,-1,10
 51 81 51 81 51 138 c 2,11,-1
 51 218 l 2,12,13
 51 275 51 275 91.5 315.5 c 128,-1,14
 132 356 132 356 189 356 c 2,15,-1
 502 356 l 2,16,17
 509 356 509 356 509 362 c 2,18,-1
 509 442 l 2,19,20
 509 449 509 449 502 449 c 2,21,-1
 51 449 l 1,22,-1
 51 580 l 1,23,-1
 502 580 l 2,24,25
 559 580 559 580 599.5 539.5 c 128,-1,26
 640 499 640 499 640 442 c 2,27,-1
 640 362 l 2,28,29
 640 305 640 305 599.5 264.5 c 128,-1,30
 559 224 559 224 502 224 c 2,31,-1
 189 224 l 2,0,1
EndSplineSet
EndChar

StartChar: z.sc
Encoding: 65590 -1 245
Width: 698
Flags: MW
HStem: 0 131<247 643 247 643> 449 131<54 643 54 450>
LayerCount: 2
Fore
SplineSet
54 449 m 1,0,-1
 54 580 l 1,1,-1
 643 580 l 1,2,-1
 643 437 l 1,3,-1
 247 131 l 1,4,-1
 643 131 l 1,5,-1
 643 0 l 1,6,-1
 54 0 l 1,7,-1
 54 143 l 1,8,-1
 450 449 l 1,9,-1
 54 449 l 1,0,-1
EndSplineSet
EndChar

StartChar: zcaron
Encoding: 382 382 246
Width: 698
Flags: MW
HStem: 0 131<247 643 247 643> 449 131<54 643 54 450> 680 163<325 330 404 412 325 325>
LayerCount: 2
Fore
SplineSet
54 449 m 1,0,-1
 54 580 l 1,1,-1
 643 580 l 1,2,-1
 643 437 l 1,3,-1
 247 131 l 1,4,-1
 643 131 l 1,5,-1
 643 0 l 1,6,-1
 54 0 l 1,7,-1
 54 143 l 1,8,-1
 450 449 l 1,9,-1
 54 449 l 1,0,-1
227 843 m 1,10,-1
 330 843 l 1,11,-1
 367 784 l 1,12,-1
 404 843 l 1,13,-1
 510 843 l 1,14,-1
 412 680 l 1,15,-1
 325 680 l 1,16,-1
 227 843 l 1,10,-1
EndSplineSet
EndChar

StartChar: zero
Encoding: 48 48 247
Width: 834
Flags: MW
HStem: 0 135<157 632 247 632 247 632> 586 134<193 632 195 580>
VStem: 57 131<257 579 257 579 257 617> 639 131<142 464 464 464>
LayerCount: 2
Fore
SplineSet
195 720 m 2,0,-1
 632 720 l 2,1,2
 689 720 689 720 729.5 678 c 128,-1,3
 770 636 770 636 770 579 c 2,4,-1
 770 142 l 2,5,6
 770 85 770 85 729.5 42.5 c 128,-1,7
 689 0 689 0 632 0 c 2,8,-1
 195 0 l 2,9,10
 138 0 138 0 97.5 42.5 c 128,-1,11
 57 85 57 85 57 142 c 2,12,-1
 57 579 l 2,13,14
 57 636 57 636 97.5 678 c 128,-1,15
 138 720 138 720 195 720 c 2,0,-1
580 586 m 1,16,-1
 195 586 l 2,17,18
 188 586 188 586 188 579 c 2,19,-1
 188 257 l 1,20,-1
 580 586 l 1,16,-1
247 135 m 1,21,-1
 632 135 l 2,22,23
 639 135 639 135 639 142 c 2,24,-1
 639 464 l 1,25,-1
 247 135 l 1,21,-1
EndSplineSet
EndChar

StartChar: A
Encoding: 65 65 248
Width: 836
Flags: MW
HStem: 0 21G<58 190 58 58 645 778 645 645> 242 132<190 645 190 645> 588 132<195 638 197 638>
VStem: 58 132<0 242 374 581> 645 133<0 242 242 242 374 581 0 583>
LayerCount: 2
Fore
SplineSet
197 720 m 2,0,-1
 638 720 l 2,1,2
 696 720 696 720 737 679.5 c 128,-1,3
 778 639 778 639 778 581 c 2,4,-1
 778 0 l 1,5,-1
 645 0 l 1,6,-1
 645 242 l 1,7,-1
 190 242 l 1,8,-1
 190 0 l 1,9,-1
 58 0 l 1,10,-1
 58 581 l 2,11,12
 58 639 58 639 98.5 679.5 c 128,-1,13
 139 720 139 720 197 720 c 2,0,-1
190 374 m 1,14,-1
 645 374 l 1,15,-1
 645 581 l 2,16,17
 645 588 645 588 638 588 c 2,18,-1
 197 588 l 2,19,20
 190 588 190 588 190 581 c 2,21,-1
 190 374 l 1,14,-1
EndSplineSet
Substitution2: "'ss02' Style Set 2 in Latin lookup 5 subtable" A.alt2
Substitution2: "'ss01' Style Set 1 in Latin lookup 4 subtable" A.alt
AlternateSubs2: "'aalt' Access All Alternates in Latin lookup 1 subtable" A.alt A.alt2
EndChar
